<?xml version="1.0" standalone="no"?><!DOCTYPE svg PUBLIC "-//W3C//DTD SVG 1.1//EN" "http://www.w3.org/Graphics/SVG/1.1/DTD/svg11.dtd"><svg t="1633976228667" class="icon" viewBox="0 0 1024 1024" version="1.1" xmlns="http://www.w3.org/2000/svg" p-id="4593" width="32" height="32" xmlns:xlink="http://www.w3.org/1999/xlink"><defs><style type="text/css"></style></defs><path d="M512 899.5c-213.668 0-387.5-173.832-387.5-387.5S298.332 124.5 512 124.5 899.5 298.332 899.5 512 725.668 899.5 512 899.5z" fill="#4472C4" p-id="4594"></path><path d="M512 137c-206.776 0-375 168.224-375 375s168.224 375 375 375 375-168.224 375-375-168.224-375-375-375m0-25c220.914 0 400 179.086 400 400S732.914 912 512 912 112 732.914 112 512s179.086-400 400-400z" fill="#4472C4" p-id="4595"></path><path d="M657.098 572.53c0-16.736-3.347-31.241-10.042-44.63-6.695-12.831-15.063-23.989-25.662-32.915a132.9 132.9 0 0 0-36.821-20.645c-14.5-4.463-29.01-7.252-43.515-7.252a176.625 176.625 0 0 0-65.272 12.831c-21.2 8.926-41.841 24.547-60.809 47.42 2.789-13.389 5.579-25.663 8.926-35.7a181.9 181.9 0 0 1 8.927-27.899 155.1 155.1 0 0 1 12.273-23.431 174.368 174.368 0 0 1 16.179-22.869 167.451 167.451 0 0 1 11.715-14.5c5.021-5.579 10.6-10.6 16.736-16.179a162.638 162.638 0 0 1 17.853-15.621c6.695-4.463 12.831-8.368 18.968-11.715 2.232-1.116 5.021-2.789 7.81-3.905a64.935 64.935 0 0 1 8.368-3.347c5.021-1.116 10.042-2.232 15.621-3.347 2.789-0.558 5.021-1.116 6.695-2.232a10.961 10.961 0 0 0 5.021-9.484c0-6.695-2.789-12.831-7.81-17.852-5.579-4.463-10.6-7.252-15.621-7.252-8.926 0-21.2 4.463-35.7 13.389-7.81 4.463-15.621 9.484-23.431 14.5a259.028 259.028 0 0 0-22.315 17.294 253.37 253.37 0 0 0-39.052 41.84c-12.278 15.621-22.32 32.357-31.246 49.652a248.069 248.069 0 0 0-20.084 54.672 203.8 203.8 0 0 0-7.81 57.462c0 21.2 2.789 41.283 8.926 59.135a131.982 131.982 0 0 0 25.662 47.978c11.158 13.947 25.662 24.547 42.4 32.357 16.179 7.81 35.146 11.715 56.346 11.715a187.833 187.833 0 0 0 57.462-9.484 158.632 158.632 0 0 0 50.209-27.894 135.968 135.968 0 0 0 35.7-43.515q13.393-25.104 13.393-58.577z m-44.073-4.463a105.915 105.915 0 0 1-9.485 44.073c-6.137 14.5-13.947 26.778-23.989 36.82a106.092 106.092 0 0 1-34.589 24.547 88.908 88.908 0 0 1-40.722 9.483c-13.389 0-25.1-2.232-34.589-7.252-10.042-4.463-17.852-11.158-24.547-19.526-7.252-7.81-12.831-17.294-17.294-28.452a167.207 167.207 0 0 1-10.6-33.473c3.347-13.389 9.484-25.662 17.852-37.378a132.505 132.505 0 0 1 29.009-29.569 131.323 131.323 0 0 1 35.7-20.084c12.831-4.463 26.22-7.252 39.609-7.252 8.926 0 17.294 1.674 26.22 4.463a89.984 89.984 0 0 1 23.994 12.833 82.7 82.7 0 0 1 17.294 21.757 71.084 71.084 0 0 1 6.137 29.01z" fill="#FFFFFF" p-id="4596"></path></svg>