<svg id="Layer_1" data-name="Layer 1" xmlns="http://www.w3.org/2000/svg" viewBox="0 0 1200 1200"><defs><style>.cls-1{fill:#fff;}.cls-2{fill:#231f20;}.cls-3{fill:#fbb040;}</style></defs><title>Artboard 1</title><path class="cls-1" d="M979.44,746.88s107,137.2-1.28,136.18S979.44,746.88,979.44,746.88Z"/><path class="cls-2" d="M979.33,883.61h-1.18c-23.78-.23-39-7-45.15-20.11-7.46-15.83-2-40.34,16.32-72.85A359.5,359.5,0,0,1,979,746.54a.5.5,0,0,1,.43-.2.53.53,0,0,1,.42.21,357.76,357.76,0,0,1,28.87,44.65c17.67,32.85,22.7,57.46,14.95,73.15C1017.36,877.13,1002.45,883.61,979.33,883.61Zm.1-135.84c-5.55,7-62.12,79.86-45.45,115.27,6,12.71,20.85,19.26,44.18,19.48s38.32-6,44.55-18.65C1040,828.79,984.85,754.88,979.43,747.77Z"/><path class="cls-1" d="M969,883s5.5-83.64,77.59-121.4C1046.55,761.58,1110,809.11,969,883Z"/><path class="cls-2" d="M969,883.52a.54.54,0,0,1-.54-.58c0-.21,1.5-21.29,11.8-46.71,9.51-23.46,28.7-55.55,66.08-75.13a.55.55,0,0,1,.58,0c.16.12,16,12.26,14.31,33.34-2.83,35.2-51.58,67.82-92,89A.57.57,0,0,1,969,883.52Zm77.53-121.3c-36.87,19.44-55.83,51.16-65.25,74.39A172,172,0,0,0,969.58,882c40-21,87.74-53.17,90.53-87.62C1061.64,775.42,1048.54,763.9,1046.49,762.22Z"/><path class="cls-1" d="M986.74,883.14s-1.13-83.82-71.14-125.49C915.6,757.65,849.79,801.63,986.74,883.14Z"/><path class="cls-2" d="M986.74,883.69a.53.53,0,0,1-.27-.08c-39.28-23.37-86.28-58.65-87.21-94-.55-21.1,15.87-32.32,16-32.43a.53.53,0,0,1,.57,0c36.31,21.61,53.8,54.7,62.07,78.66,9,25.94,9.34,47.08,9.35,47.29a.55.55,0,0,1-.27.47A.57.57,0,0,1,986.74,883.69ZM915.62,758.3c-2.12,1.56-15.78,12.32-15.27,31.32s15.84,50.72,85.82,92.55a171.71,171.71,0,0,0-9.27-46C968.71,812.46,951.43,779.74,915.62,758.3Z"/><path class="cls-1" d="M969,883s41.73-71.76,122.42-71C1091.38,812,1126.8,884.46,969,883Z"/><path class="cls-2" d="M973.77,883.54l-4.82,0a.55.55,0,0,1-.46-.82c.1-.18,10.71-18.22,31.06-35.91,18.79-16.35,50-35.75,91.83-35.35a.55.55,0,0,1,.49.3c.09.19,9.05,19-2.42,37.17C1075,871.9,1036,883.54,973.77,883.54Zm-3.85-1.1c44.31.32,100.47-5.37,118.61-34.09,10.36-16.41,3.58-33.37,2.5-35.83-41.31-.28-72.14,18.9-90.74,35.06A164.14,164.14,0,0,0,969.92,882.44Z"/><path class="cls-1" d="M986.74,883.14s-40.37-72.52-121.06-73.28C865.68,809.86,828.9,881.66,986.74,883.14Z"/><path class="cls-2" d="M986.74,883.69h0c-65.09-.61-105.41-13-119.83-36.87-11.12-18.38-1.81-37-1.72-37.2a.56.56,0,0,1,.49-.3h0c41.85.39,72.67,20.37,91.15,37.06,20,18.08,30.29,36.32,30.39,36.5a.55.55,0,0,1,0,.54A.53.53,0,0,1,986.74,883.69ZM866,810.41c-1.13,2.44-8.23,19.27,1.82,35.87,17.6,29.06,73.64,35.81,117.95,36.31a164.07,164.07,0,0,0-29.71-35.42C937.79,830.66,907.33,810.91,866,810.41Z"/><path class="cls-2" d="M1085.69,866.54l-1.07,115a49.8,49.8,0,0,1-50.26,49.32l-115.78-1.09a49.39,49.39,0,0,1-21.93-5.32,47.72,47.72,0,0,1-7.19-4.43,49.65,49.65,0,0,1-20.21-40.49l1.08-115Z"/><path class="cls-2" d="M1034.83,1031.41h-.48l-115.78-1.09A49.75,49.75,0,0,1,896.4,1025a48.93,48.93,0,0,1-7.26-4.48,50.43,50.43,0,0,1-20.43-40.94l1.08-115a.54.54,0,0,1,.54-.54h0l215.36,2a.55.55,0,0,1,.38.16.57.57,0,0,1,.16.39l-1.08,115A50.39,50.39,0,0,1,1034.83,1031.41Zm-164-166.34L869.8,979.54a49.35,49.35,0,0,0,20,40.06,49.13,49.13,0,0,0,28.8,9.64l115.78,1.08h.47a49.3,49.3,0,0,0,49.24-48.78l1.08-114.47Z"/><path class="cls-1" d="M898.17,963c-8.41,25-8.92,45.61-1.52,61.42a47.72,47.72,0,0,1-7.19-4.43c-5.17-16-3.86-35.61,3.88-58.62,12.82-38.07,6.08-72.3-3.63-96.69l5.49,0C904.84,889.89,911.13,924.53,898.17,963Z"/><path class="cls-2" d="M896.65,1025a.5.5,0,0,1-.24-.06,48.52,48.52,0,0,1-7.27-4.48.52.52,0,0,1-.19-.27c-5.2-16.05-3.89-35.89,3.88-59,13.14-39,5.29-73.93-3.62-96.32a.55.55,0,0,1,.5-.75h0l5.49.06a.54.54,0,0,1,.5.34c8.79,22.92,16.44,58.64,3,98.64-8.35,24.82-8.87,45.35-1.54,61a.55.55,0,0,1-.11.62A.57.57,0,0,1,896.65,1025Zm-6.72-5.31a47.65,47.65,0,0,0,5.58,3.56c-6.76-15.74-6-36,2.14-60.39h0c13.3-39.5,5.85-74.8-2.82-97.56l-4.32,0c8.85,22.58,16.45,57.39,3.35,96.31C886.19,984.36,884.87,1003.91,889.93,1019.7Z"/><path class="cls-1" d="M962.29,1010c6,7.86,10.67,14.61,14.29,20.33l-6.1-.06c-3.24-5-7.27-10.66-12.25-17.18-13.52-17.7-4-49.36,4.45-77.28,6.13-20.34,11.92-39.54,6.62-46.94-1.55-2.16-4.15-3.29-7.93-3.41-6-.22-9.9.75-11.91,3-3.25,3.58-2.2,11.26-1,20.15,2.15,15.79,5.08,37.42-13.14,55.79-13.57,13.69-16.85,33.13-9.74,57.79.77,2.66,1.62,5.23,2.52,7.71l-5.42-.05q-1.05-3-2-6.13c-7.6-26.25-3.8-48,11-62.9,16.45-16.59,13.82-36,11.7-51.53-1.38-10.15-2.57-18.91,2.26-24.25,3.09-3.41,8.28-4.93,15.88-4.66,5.39.2,9.39,2.06,11.89,5.55,6.74,9.43.89,28.87-5.9,51.37C959.49,964,950.34,994.36,962.29,1010Z"/><path class="cls-2" d="M976.59,1030.87h0l-6.1,0a.55.55,0,0,1-.45-.25c-3.53-5.38-7.64-11.15-12.23-17.15-13.69-17.93-4.1-49.72,4.36-77.77,6.09-20.22,11.84-39.28,6.7-46.46-1.45-2-3.9-3.07-7.5-3.19-5.84-.21-9.6.71-11.5,2.81-3.07,3.38-2,10.94-.85,19.69,2.16,15.92,5.12,37.7-13.29,56.26-13.43,13.54-16.66,32.8-9.61,57.26.72,2.48,1.56,5.06,2.51,7.67a.55.55,0,0,1-.51.73h0l-5.42-.05a.53.53,0,0,1-.5-.36c-.69-2-1.36-4-2-6.15-7.66-26.46-3.81-48.4,11.12-63.45C947.6,944,945,924.79,942.88,909.35c-1.4-10.29-2.61-19.17,2.39-24.69,3.2-3.54,8.54-5.12,16.3-4.84,5.58.2,9.72,2.14,12.32,5.77,6.9,9.66,1,29.21-5.82,51.84-8,26.65-17.13,56.83-5.35,72.24,5.5,7.2,10.32,14.05,14.32,20.37a.54.54,0,0,1,0,.56A.55.55,0,0,1,976.59,1030.87Zm-5.81-1.14,4.81,0c-3.88-6.06-8.5-12.59-13.74-19.45h0c-12.11-15.85-2.93-46.31,5.18-73.18,6.75-22.39,12.57-41.7,6-50.93-2.38-3.34-6.24-5.13-11.46-5.31-7.44-.27-12.49,1.19-15.46,4.48-4.66,5.15-3.48,13.8-2.12,23.81,2.13,15.68,4.79,35.2-11.85,52-14.65,14.75-18.4,36.32-10.86,62.37.57,2,1.19,3.9,1.82,5.74l4.26,0c-.84-2.38-1.6-4.74-2.26-7-7.17-24.86-3.85-44.49,9.88-58.33,18-18.17,15.11-39.65,13-55.33-1.23-9-2.29-16.82,1.12-20.58,2.13-2.36,6.16-3.39,12.34-3.16,4,.13,6.69,1.32,8.35,3.64,5.46,7.61-.37,26.92-6.54,47.38-8.39,27.82-17.9,59.33-4.54,76.82C963.2,1018.69,967.27,1024.4,970.78,1029.73Z"/><path class="cls-1" d="M1015.09,980.78a448.64,448.64,0,0,1-14.86,49.77l-5.44,0c14.94-41.21,37.6-120.91,9-164.72l6.06.06C1025.07,891.57,1026.85,930.15,1015.09,980.78Z"/><path class="cls-2" d="M1000.23,1031.1h0l-5.44-.06a.52.52,0,0,1-.44-.23.54.54,0,0,1-.07-.49c7.29-20.12,16.82-50.55,20.8-81.27,4.66-36,.7-63.9-11.76-83a.54.54,0,0,1,0-.56.54.54,0,0,1,.47-.28h0l6.05.06a.53.53,0,0,1,.46.26c15.32,25.84,17.11,64.65,5.33,115.35a445.36,445.36,0,0,1-14.88,49.83A.54.54,0,0,1,1000.23,1031.1Zm-4.67-1.13,4.29,0a443.64,443.64,0,0,0,14.71-49.35h0c11.67-50.24,10-88.69-5-114.28l-4.75,0c12.18,19.27,16,47.14,11.39,82.86C1012.21,979.64,1002.84,1009.8,995.56,1030Z"/><path class="cls-1" d="M1027.28,1030.81l-5.78-.06a185,185,0,0,0,19.37-49.23c5.59-23.19,7.58-48.83,5.91-76.22a338.36,338.36,0,0,0-4.74-39.16l5.18.05a348.59,348.59,0,0,1,4.64,38.8C1054,940.54,1050.78,988.29,1027.28,1030.81Z"/><path class="cls-2" d="M1027.28,1031.35h0l-5.79,0a.55.55,0,0,1-.46-.28.52.52,0,0,1,0-.54,184.45,184.45,0,0,0,19.31-49.09c5.58-23.15,7.56-48.74,5.9-76.06a341,341,0,0,0-4.73-39.09.52.52,0,0,1,.12-.45.53.53,0,0,1,.41-.19h0l5.17,0a.53.53,0,0,1,.53.44A346,346,0,0,1,1052.4,905c2,33.49-.57,82.55-24.64,126.11A.56.56,0,0,1,1027.28,1031.35Zm-4.85-1.13,4.53,0c23.81-43.26,26.39-92,24.36-125.23a346.87,346.87,0,0,0-4.56-38.3l-4.07,0a340.63,340.63,0,0,1,4.63,38.58c1.67,27.42-.32,53.12-5.92,76.37A186.52,186.52,0,0,1,1022.43,1030.22Z"/><path class="cls-1" d="M1085,938l-.13,13.69a323.32,323.32,0,0,1-41.46,69.85c-2.6,3.33-5.15,6.45-7.6,9.34l-6.78-.07A316.15,316.15,0,0,0,1085,938Z"/><path class="cls-2" d="M1035.83,1031.43h0l-6.79-.06a.57.57,0,0,1-.49-.32.54.54,0,0,1,.09-.58,317,317,0,0,0,55.88-92.65.54.54,0,0,1,1,.2l-.12,13.68a.5.5,0,0,1,0,.21,327.17,327.17,0,0,1-41.53,70c-2.47,3.16-5,6.31-7.61,9.35A.57.57,0,0,1,1035.83,1031.43Zm-5.6-1.14,5.35,0c2.52-3,5-6,7.42-9.12a325.39,325.39,0,0,0,41.35-69.64l.1-10.64A318,318,0,0,1,1030.23,1030.29Z"/><polygon class="cls-2" points="635.33 1018.17 571.24 1018.17 492.96 753.55 583.15 753.55 635.33 1018.17"/><path class="cls-2" d="M636,1018.72H570.83L492.24,753H583.6Zm-64.35-1.09h63l-52-263.54h-89Z"/><polygon class="cls-2" points="572.72 753.55 624.9 1018.17 547.75 1018.17 508.62 753.55 572.72 753.55"/><path class="cls-2" d="M625.56,1018.72H547.28l-.06-.47L508,753h65.17Zm-77.34-1.09h76l-52-263.54h-63Z"/><rect class="cls-1" x="612.02" y="896.76" width="2.04" height="122.57" transform="translate(-173.77 136.7) rotate(-11.15)"/><path class="cls-2" d="M897.08,447.71v440a19.91,19.91,0,0,1-19.91,19.92H841.71V427.8h35.46A19.92,19.92,0,0,1,897.08,447.71Z"/><path class="cls-2" d="M877.17,908.21h-36V427.26h36a20.47,20.47,0,0,1,20.45,20.45v440A20.48,20.48,0,0,1,877.17,908.21Zm-34.91-1.09h34.91a19.39,19.39,0,0,0,19.37-19.38v-440a19.39,19.39,0,0,0-19.37-19.37H842.26Z"/><path class="cls-1" d="M881.45,441.14V894.32a13.34,13.34,0,0,1-13.34,13.34H175.18a19.91,19.91,0,0,1-19.91-19.9v-440a19.92,19.92,0,0,1,19.91-19.91H868.11A13.34,13.34,0,0,1,881.45,441.14Z"/><path class="cls-2" d="M868.11,908.21H175.18a20.47,20.47,0,0,1-20.45-20.45v-440a20.47,20.47,0,0,1,20.45-20.45H868.11A13.9,13.9,0,0,1,882,441.14V894.32A13.9,13.9,0,0,1,868.11,908.21ZM175.18,428.34a19.38,19.38,0,0,0-19.36,19.37V887.76a19.38,19.38,0,0,0,19.36,19.36H868.11a12.81,12.81,0,0,0,12.79-12.8V441.14a12.82,12.82,0,0,0-12.79-12.8Z"/><rect class="cls-1" x="166.3" y="437.55" width="700.29" height="460.37"/><path class="cls-2" d="M867.13,898.46H165.76V437H867.13Zm-700.29-1.08H866.05V438.09H166.84Z"/><path class="cls-1" d="M432.59,1013.69H672.73A14.28,14.28,0,0,1,687,1028v4.35a0,0,0,0,1,0,0H418.31a0,0,0,0,1,0,0V1028a14.28,14.28,0,0,1,14.28-14.28Z"/><path class="cls-2" d="M687.55,1032.86H417.77v-3.67a16.07,16.07,0,0,1,16-16.05h237.7a16.06,16.06,0,0,1,16,16.05Zm-268.7-1.08H686.47v-2.59a15,15,0,0,0-15-15H433.81a15,15,0,0,0-15,15Z"/><path class="cls-2" d="M696.21,1032.32h-47.8A18.63,18.63,0,0,1,667,1013.69h10.54a18.64,18.64,0,0,1,18.63,18.63Z"/><path class="cls-2" d="M696.75,1032.86H647.87v-.54A19.2,19.2,0,0,1,667,1013.14h10.54a19.2,19.2,0,0,1,19.17,19.18ZM649,1031.78h46.69a18.1,18.1,0,0,0-18.07-17.55H667A18.11,18.11,0,0,0,649,1031.78Z"/><rect class="cls-2" x="166.3" y="437.55" width="700.29" height="33.64"/><path class="cls-2" d="M867.13,471.73H165.76V437H867.13Zm-700.29-1.08H866.05V438.09H166.84Z"/><rect class="cls-1" x="166.3" y="471.19" width="136.51" height="426.73"/><path class="cls-2" d="M303.35,898.46H165.76V470.65H303.35Zm-136.51-1.08H302.26V471.73H166.84Z"/><circle class="cls-1" cx="185.86" cy="453.63" r="6.39"/><path class="cls-2" d="M185.86,460.56a6.94,6.94,0,1,1,6.94-6.93A6.94,6.94,0,0,1,185.86,460.56Zm0-12.78a5.85,5.85,0,1,0,5.85,5.85A5.86,5.86,0,0,0,185.86,447.78Z"/><circle class="cls-1" cx="209.42" cy="453.63" r="6.39"/><path class="cls-2" d="M209.42,460.56a6.94,6.94,0,1,1,6.93-6.93A6.94,6.94,0,0,1,209.42,460.56Zm0-12.78a5.85,5.85,0,1,0,5.85,5.85A5.85,5.85,0,0,0,209.42,447.78Z"/><circle class="cls-1" cx="232.97" cy="453.63" r="6.39"/><path class="cls-2" d="M233,460.56a6.94,6.94,0,1,1,6.94-6.93A6.95,6.95,0,0,1,233,460.56Zm0-12.78a5.85,5.85,0,1,0,5.85,5.85A5.85,5.85,0,0,0,233,447.78Z"/><rect class="cls-2" x="578.92" y="699.89" width="217.24" height="18.11"/><path class="cls-2" d="M796.71,718.53H578.38V699.34H796.71Zm-217.24-1.08H795.63v-17H579.47Z"/><rect class="cls-2" x="578.92" y="730.02" width="217.24" height="7.53"/><path class="cls-2" d="M796.71,738.1H578.38v-8.62H796.71ZM579.47,737H795.63v-6.45H579.47Z"/><rect class="cls-2" x="578.92" y="752.63" width="217.24" height="7.53"/><path class="cls-2" d="M796.71,760.7H578.38v-8.62H796.71Zm-217.24-1.08H795.63v-6.45H579.47Z"/><rect class="cls-2" x="578.92" y="775.23" width="217.24" height="7.53"/><path class="cls-2" d="M796.71,783.31H578.38v-8.62H796.71Zm-217.24-1.09H795.63v-6.45H579.47Z"/><rect class="cls-2" x="578.92" y="797.83" width="217.24" height="7.53"/><path class="cls-2" d="M796.71,805.91H578.38v-8.62H796.71Zm-217.24-1.08H795.63v-6.45H579.47Z"/><rect class="cls-2" x="578.92" y="820.44" width="217.24" height="7.53"/><path class="cls-2" d="M796.71,828.52H578.38v-8.63H796.71Zm-217.24-1.09H795.63V821H579.47Z"/><rect class="cls-2" x="578.92" y="843.04" width="217.24" height="7.53"/><path class="cls-2" d="M796.71,851.12H578.38V842.5H796.71ZM579.47,850H795.63v-6.45H579.47Z"/><rect class="cls-2" x="578.92" y="865.64" width="113.13" height="7.53"/><path class="cls-2" d="M692.59,873.72H578.38V865.1H692.59Zm-113.12-1.08h112v-6.45h-112Z"/><rect class="cls-2" x="185.86" y="548.19" width="93.16" height="93.16" rx="42.92"/><path class="cls-2" d="M232.45,641.9a47.13,47.13,0,1,1,47.12-47.12A47.18,47.18,0,0,1,232.45,641.9Zm0-93.16a46,46,0,1,0,46,46A46.09,46.09,0,0,0,232.45,548.74Z"/><rect class="cls-2" x="185.86" y="663.96" width="93.16" height="16.82"/><path class="cls-2" d="M279.57,681.32H185.32V663.41h94.25Zm-93.16-1.08h92.08V664.5H186.41Z"/><rect class="cls-2" x="185.86" y="699.89" width="93.16" height="7.53"/><path class="cls-2" d="M279.57,708H185.32v-8.62h94.25Zm-93.16-1.08h92.08v-6.45H186.41Z"/><rect class="cls-2" x="185.86" y="722.49" width="93.16" height="7.53"/><path class="cls-2" d="M279.57,730.57H185.32V722h94.25Zm-93.16-1.09h92.08V723H186.41Z"/><rect class="cls-2" x="185.86" y="745.09" width="93.16" height="7.53"/><path class="cls-2" d="M279.57,753.17H185.32v-8.62h94.25Zm-93.16-1.09h92.08v-6.44H186.41Z"/><rect class="cls-2" x="185.86" y="767.7" width="93.16" height="7.53"/><path class="cls-2" d="M279.57,775.77H185.32v-8.62h94.25Zm-93.16-1.08h92.08v-6.45H186.41Z"/><rect class="cls-2" x="185.86" y="790.3" width="48.69" height="7.53"/><path class="cls-2" d="M235.09,798.38H185.32v-8.62h49.77Zm-48.68-1.09H234v-6.45h-47.6Z"/><rect class="cls-2" x="185.86" y="815.85" width="93.16" height="61.92"/><path class="cls-2" d="M279.57,878.31H185.32v-63h94.25Zm-93.16-1.09h92.08V816.39H186.41Z"/><rect class="cls-2" x="332.8" y="531.62" width="463.37" height="136.12"/><path class="cls-2" d="M796.71,668.28H332.26V531.07H796.71Zm-463.37-1.09H795.63v-135H333.34Z"/><rect class="cls-2" x="332.8" y="751.76" width="33.12" height="84.62"/><path class="cls-2" d="M366.46,836.92h-34.2V751.21h34.2Zm-33.12-1.08h32V752.3h-32Z"/><rect class="cls-2" x="379.12" y="788.03" width="33.12" height="48.35"/><path class="cls-2" d="M412.78,836.92H378.57V787.48h34.21Zm-33.12-1.08h32V788.57h-32Z"/><rect class="cls-2" x="425.43" y="721.62" width="33.12" height="114.76"/><path class="cls-2" d="M459.1,836.92H424.89V721.08H459.1ZM426,835.84h32V722.16H426Z"/><rect class="cls-2" x="471.75" y="755.25" width="33.12" height="81.13"/><path class="cls-2" d="M505.42,836.92H471.21V754.71h34.21Zm-33.13-1.08h32V755.79h-32Z"/><rect class="cls-2" x="518.07" y="699.01" width="33.12" height="137.36"/><path class="cls-2" d="M551.74,836.92H517.53V698.47h34.21Zm-33.13-1.08h32V699.56h-32Z"/><path class="cls-1" d="M796.17,669.77a2.38,2.38,0,0,1-.58-.08L332.22,533.57a2,2,0,0,1,1.15-3.91L796.74,665.78a2,2,0,0,1-.57,4Z"/><path class="cls-1" d="M332.8,669.77a2,2,0,0,1-.58-4L795.59,529.66a2,2,0,1,1,1.15,3.91L333.37,669.69A2.24,2.24,0,0,1,332.8,669.77Z"/><circle class="cls-1" cx="232.45" cy="585.6" r="19"/><ellipse class="cls-1" cx="232.45" cy="623.42" rx="23.75" ry="13.55"/><path class="cls-1" d="M877.22,908.21h-.05v-1.09c.1,0,8.64,0,14.3-5.6,3.35-3.32,5.06-8,5.06-13.78h1.08c0,6.13-1.81,11-5.38,14.56C886.41,908.07,878,908.21,877.22,908.21Z"/><path class="cls-1" d="M1121.55,506.22a100.71,100.71,0,0,0-55.25-133.13c-49.11-19.64-105.78,2.61-128.36,50.44a100.64,100.64,0,0,0,12.11,105.65,12.74,12.74,0,0,1,1.82,13.1c-.48,1.06-.92,2.16-1.32,3.28a41.14,41.14,0,0,0,76.64,29.83c.06-.13.11-.26.17-.4a13.22,13.22,0,0,1,11-8.11A100.66,100.66,0,0,0,1121.55,506.22Z"/><path class="cls-2" d="M989.34,600.92A41.73,41.73,0,0,1,950,545.38c.4-1.13.85-2.25,1.33-3.32a12.14,12.14,0,0,0-1.75-12.54,101.25,101.25,0,1,1,88.82,37.9,12.73,12.73,0,0,0-10.58,7.78l-.17.4a41.77,41.77,0,0,1-38.35,25.32Zm39.72-234.47a100.17,100.17,0,0,0-78.59,162.39,13.21,13.21,0,0,1,1.89,13.66c-.47,1-.91,2.14-1.3,3.24a40.6,40.6,0,0,0,75.63,29.43l.17-.38a13.78,13.78,0,0,1,11.48-8.45A100.17,100.17,0,0,0,1121.05,506l.5.22-.5-.22a100.18,100.18,0,0,0-92-139.55Z"/><path class="cls-1" d="M973,557.71a2.55,2.55,0,0,1-2.52-2.93l12.83-84.61a2.55,2.55,0,0,1,5,.76l-12.84,84.62A2.54,2.54,0,0,1,973,557.71Z"/><path class="cls-2" d="M973,558.25l-.47,0A3.11,3.11,0,0,1,970,554.7l12.83-84.61a3.09,3.09,0,0,1,1.23-2,3,3,0,0,1,2.29-.56,3.08,3.08,0,0,1,2.59,3.51l-12.83,84.62A3.11,3.11,0,0,1,973,558.25Zm12.82-89.71a2,2,0,0,0-1.18.39,2,2,0,0,0-.79,1.32L971,554.86a2,2,0,1,0,4,.6l12.83-84.61a2,2,0,0,0-1.68-2.28A1.63,1.63,0,0,0,985.83,468.54Z"/><path class="cls-1" d="M1003.67,570.82a2.52,2.52,0,0,1-1.56-.53,2.55,2.55,0,0,1-.46-3.57L1054,499a2.55,2.55,0,1,1,4,3.12l-52.32,67.72A2.53,2.53,0,0,1,1003.67,570.82Z"/><path class="cls-2" d="M1003.67,571.37a3.11,3.11,0,0,1-3.07-2.7,3.1,3.1,0,0,1,.62-2.28l52.32-67.73a3.1,3.1,0,0,1,4.33-.56,3.1,3.1,0,0,1,.56,4.34l-52.32,67.73A3.07,3.07,0,0,1,1003.67,571.37ZM1056,498.54l-.26,0a2,2,0,0,0-1.33.76l-52.32,67.73a2,2,0,0,0-.4,1.48,2,2,0,0,0,.76,1.33,2,2,0,0,0,2.81-.36l52.32-67.72a2,2,0,0,0-1.58-3.24Z"/><path class="cls-1" d="M1033.07,580.85l-4.73,11.08a48.48,48.48,0,0,1-23.9,24.82,24,24,0,0,0-12,12.18l-.55,1.28a23.42,23.42,0,0,1-30.75,12.33l-12.55-5.37a23.41,23.41,0,0,1-8.17-5.82v0a23.4,23.4,0,0,1-4.16-24.91l.58-1.37a24,24,0,0,0,.55-17,48.4,48.4,0,0,1,1.47-34.35l4.74-11.07Z"/><path class="cls-2" d="M970.33,645a23.85,23.85,0,0,1-9.39-1.93l-12.55-5.37a23.9,23.9,0,0,1-8.36-5.95l-.07-.09a24,24,0,0,1-4.19-25.42l.58-1.38a23.52,23.52,0,0,0,.54-16.65,49,49,0,0,1,1.48-34.73l5-11.58.5.22,90,38.47-5,11.58a49.17,49.17,0,0,1-24.17,25.1A23.5,23.5,0,0,0,993,629.14l-.55,1.29A24,24,0,0,1,970.33,645ZM940.9,631.06a22.7,22.7,0,0,0,7.92,5.61L961.37,642a22.87,22.87,0,0,0,30-12l.55-1.29a24.61,24.61,0,0,1,12.26-12.45,48.05,48.05,0,0,0,23.63-24.55l4.52-10.57L943.89,543.3l-4.52,10.58a48,48,0,0,0-1.45,34,24.65,24.65,0,0,1-.57,17.42l-.59,1.37A23,23,0,0,0,940.83,631Z"/><path class="cls-2" d="M1033.07,580.85l-4.73,11.08a48.48,48.48,0,0,1-23.9,24.82,24,24,0,0,0-12,12.18l-.55,1.28a23.42,23.42,0,0,1-30.75,12.33l-12.55-5.37a23.41,23.41,0,0,1-8.17-5.82v0c30.91,13.22,30.17-20.72,30.17-20.72C1013.73,626.08,1033.07,580.85,1033.07,580.85Z"/><path class="cls-2" d="M970.36,645a24,24,0,0,1-9.42-1.94l-12.55-5.37a23.9,23.9,0,0,1-8.36-5.95l-.1-.16-.5-1.23,1.21.51c8.88,3.8,15.93,4,21,.61,8.68-5.87,8.47-20.68,8.46-20.83v-.79l.74.27c42.16,15.13,61.59-29,61.79-29.46l1,.42h0l-4.73,11.07a49.17,49.17,0,0,1-24.17,25.1A23.5,23.5,0,0,0,993,629.14l-.55,1.29a24,24,0,0,1-22,14.55Zm-27.67-12.16a22.84,22.84,0,0,0,6.13,3.85L961.37,642a22.9,22.9,0,0,0,30-12l.55-1.29a24.61,24.61,0,0,1,12.26-12.45,48.05,48.05,0,0,0,23.63-24.55l.93-2.17c-8.17,12.27-26.94,32.43-57.62,21.83-.07,3.24-.85,15.51-8.95,21C957.34,635.63,950.79,635.79,942.69,632.82Z"/><path class="cls-2" d="M937.48,386.5h-.19l-62.83-5.84a2,2,0,0,1,.38-4.06l62.83,5.84a2,2,0,0,1-.19,4.07Z"/><path class="cls-2" d="M952.56,365.49a2,2,0,0,1-1.57-.74l-40.3-48.55a2,2,0,0,1,3.14-2.6l40.3,48.55a2,2,0,0,1-.27,2.87A2,2,0,0,1,952.56,365.49Z"/><path class="cls-2" d="M976,354.54h-.19a2,2,0,0,1-1.84-2.21l5.84-62.83a2,2,0,0,1,4.06.37L978,352.69A2,2,0,0,1,976,354.54Z"/><polygon class="cls-1" points="156.77 1025.21 171.34 964.03 155.12 973.97 151.72 1025.21 156.77 1025.21"/><path class="cls-2" d="M156.77,1025.75h-5.05a.56.56,0,0,1-.4-.17.53.53,0,0,1-.14-.4l3.4-51.24a.53.53,0,0,1,.25-.43l16.23-10a.55.55,0,0,1,.6,0,.54.54,0,0,1,.21.56l-14.57,61.19A.55.55,0,0,1,156.77,1025.75Zm-4.47-1.08h4l14.17-59.5-14.87,9.12Z"/><polygon class="cls-1" points="95.97 1025.21 94.31 934.49 113.83 935.4 101.55 1025.21 95.97 1025.21"/><path class="cls-2" d="M101.55,1025.75H96a.54.54,0,0,1-.55-.53L93.77,934.5a.54.54,0,0,1,.17-.4.54.54,0,0,1,.4-.16l19.51.92a.58.58,0,0,1,.39.19.54.54,0,0,1,.12.42l-12.27,89.82A.55.55,0,0,1,101.55,1025.75Zm-5-1.08h4.57l12.14-88.75-18.34-.86Z"/><path class="cls-1" d="M112.42,741,100.74,843.5h0c9.54,8.69.68,21.7-11.36,16.5a21.06,21.06,0,0,1-7.07-5.19c-16.13-17.53,7.26-101.39,7.26-101.39Z"/><path class="cls-2" d="M94.82,861.75a14.14,14.14,0,0,1-5.64-1.24,21.5,21.5,0,0,1-7.24-5.33c-6.82-7.39-7.68-26.81-2.56-57.71,3.79-22.92,9.63-44,9.69-44.18a.57.57,0,0,1,.26-.33l22.83-12.47a.54.54,0,0,1,.56,0,.52.52,0,0,1,.23.51L101.31,843.28c5.21,4.91,4.59,10.46,2.46,13.77A10.53,10.53,0,0,1,94.82,861.75Zm-4.76-108c-1.31,4.79-22.68,84-7.33,100.65a20.57,20.57,0,0,0,6.88,5.06c6.09,2.63,11,.37,13.25-3,1.93-3,2.44-8.07-2.47-12.55a.57.57,0,0,1-.19-.48L111.76,742Z"/><polygon class="cls-1" points="136.36 713.74 124.98 713.74 137.62 687.79 149 687.79 136.36 713.74"/><path class="cls-2" d="M136.36,714.28H125a.53.53,0,0,1-.46-.25.55.55,0,0,1,0-.53l12.64-26a.54.54,0,0,1,.48-.31H149a.55.55,0,0,1,.49.78l-12.64,26A.53.53,0,0,1,136.36,714.28Zm-10.51-1.08H136l12.11-24.87H138Z"/><polygon class="cls-2" points="114.21 736.78 114.21 776.23 84.73 757.33 99.2 724.54 114.21 736.78"/><path class="cls-2" d="M114.21,776.78a.52.52,0,0,1-.29-.09L84.44,757.78a.54.54,0,0,1-.21-.67L98.7,724.32a.54.54,0,0,1,.37-.3.56.56,0,0,1,.47.1l15,12.24a.56.56,0,0,1,.2.42v39.45a.55.55,0,0,1-.29.48A.59.59,0,0,1,114.21,776.78Zm-28.8-19.66,28.26,18.12V737L99.4,725.41Z"/><circle class="cls-1" cx="141.18" cy="685.26" r="16.28"/><path class="cls-2" d="M141.18,702.08A16.82,16.82,0,1,1,158,685.26,16.84,16.84,0,0,1,141.18,702.08Zm0-32.55a15.74,15.74,0,1,0,15.73,15.73A15.75,15.75,0,0,0,141.18,669.53Z"/><polygon class="cls-3" points="184.64 912.96 170.13 998.3 147.9 998.3 159 915.29 131.82 807.87 120.16 913.77 112.37 998.3 92.64 998.3 94.77 917.21 94.77 784.41 168.6 784.41 184.64 912.96"/><path class="cls-2" d="M170.13,998.84H147.9a.53.53,0,0,1-.4-.19.5.5,0,0,1-.13-.42l11.08-82.91L132,810.91,120.7,913.83l-7.79,84.52a.54.54,0,0,1-.54.49H92.64a.55.55,0,0,1-.39-.16.54.54,0,0,1-.15-.4l2.13-81.09V784.41a.54.54,0,0,1,.54-.54H168.6a.55.55,0,0,1,.54.47l16,128.55a.86.86,0,0,1,0,.16l-14.5,85.34A.55.55,0,0,1,170.13,998.84Zm-21.61-1.08h21.16l14.41-84.82-16-128H95.31V917.21L93.2,997.76h18.67l7.75-84,11.66-105.91a.54.54,0,0,1,1.06-.07l27.19,107.42a.46.46,0,0,1,0,.2Z"/><path class="cls-2" d="M168.6,742.23v42.18H94.77V742.23a36.92,36.92,0,0,1,73.6-4.12A37.51,37.51,0,0,1,168.6,742.23Z"/><path class="cls-2" d="M168.6,785H94.77a.55.55,0,0,1-.55-.54V742.23a37.46,37.46,0,0,1,74.69-4.18,38.47,38.47,0,0,1,.23,4.18v42.18A.54.54,0,0,1,168.6,785Zm-73.29-1.08h72.74V742.23a36.37,36.37,0,1,0-72.74,0Z"/><path class="cls-1" d="M254.15,713.25s17.39,23.42-9.57,23.42l-11.8,29.52c-7.49,11.47-22.17,12.54-38.26,2.63l-21.26-12.09a39.81,39.81,0,0,1-23.6-36.36V709.92l61.81,36.74,27.24-38.43,28.77-4.78Z"/><path class="cls-2" d="M215.13,776.14c-6.31,0-13.46-2.28-20.9-6.86L173,757.21a40.4,40.4,0,0,1-23.88-36.84V709.92a.56.56,0,0,1,.28-.48.55.55,0,0,1,.54,0l61.39,36.49,26.94-38a.61.61,0,0,1,.36-.22l28.77-4.78a.55.55,0,0,1,.59.32.54.54,0,0,1-.18.65l-12.9,9.49c1.52,2.17,7.61,11.59,4.39,18-1.92,3.81-6.74,5.77-14.34,5.83l-11.66,29.18A20.79,20.79,0,0,1,215.13,776.14ZM150.2,710.87v9.5a39.33,39.33,0,0,0,23.28,35.87l21.3,12.11c15.82,9.73,30.2,8.79,37.55-2.46l11.75-29.42a.53.53,0,0,1,.5-.34c7.37,0,12-1.76,13.74-5.24,3.29-6.55-4.53-17.21-4.61-17.32a.56.56,0,0,1-.1-.4.55.55,0,0,1,.22-.36l11.5-8.46L239,708.73,211.92,747a.54.54,0,0,1-.72.16Z"/><path class="cls-2" d="M195.64,736.86l-12,30.43s-50-15.7-34-57.37Z"/><path class="cls-2" d="M183.63,767.83a.5.5,0,0,1-.17,0c-.24-.08-24.94-8-34.1-27-4.5-9.34-4.57-19.8-.21-31.1a.58.58,0,0,1,.33-.32.55.55,0,0,1,.45.05l46,26.94a.54.54,0,0,1,.23.67l-12,30.43A.54.54,0,0,1,183.63,767.83Zm-33.69-57.12c-4,10.78-3.89,20.75.4,29.64,8.25,17.11,29.51,25.06,33,26.26L195,737.09Z"/><polygon class="cls-2" points="123.31 1031.3 95.47 1031.3 95.7 1025.21 101.28 1025.21 123.31 1031.3"/><path class="cls-2" d="M123.31,1031.85H95.47a.54.54,0,0,1-.39-.17.59.59,0,0,1-.15-.4l.23-6.09a.54.54,0,0,1,.54-.52h5.58l.15,0,22,6.09a.54.54,0,0,1,.39.6A.56.56,0,0,1,123.31,1031.85ZM96,1030.76h23.27l-18.1-5h-5Z"/><polygon class="cls-2" points="181.25 1031.3 151.14 1031.3 151.72 1025.21 156.77 1025.21 181.25 1031.3"/><path class="cls-2" d="M181.25,1031.85H151.14a.55.55,0,0,1-.4-.18.52.52,0,0,1-.14-.42l.58-6.09a.54.54,0,0,1,.54-.49h5.05a.3.3,0,0,1,.13,0l24.48,6.09a.54.54,0,0,1-.13,1.07Zm-29.51-1.09h25.08l-20.12-5h-4.49Z"/><path class="cls-2" d="M165.3,666.07c-2.94-6.47-10.14-.27-10.14-.27s11.94-15.94-1.16-17.06c-4.93-.43-8.25,2-11,5.4-1.89,2.34-3.84,4.63-5.91,6.8,2.57-3.6,4-7,.25-7.41-6.34-.64-7.62,9.69-7.88,14.13-.62.44-1.24.87-1.89,1.28C110.7,679.6,122,700.07,133,701.87c13.46,2.21,14.23-5,14.23-5s-5.62,3.65-6.09-2c-.42-5,5.82-2.7,5.82-2.7l0-.25a17.35,17.35,0,0,1,10.52-17.24C161.91,672.74,166.91,669.63,165.3,666.07Z"/><path class="cls-2" d="M137.77,702.84a30.61,30.61,0,0,1-4.82-.43c-6.37-1-12.59-7.86-14.15-15.53-.88-4.31-1-12.45,8.46-18.4.57-.35,1.11-.73,1.66-1.11.24-3.83,1.14-10.36,4.37-13.12a5.28,5.28,0,0,1,4.09-1.26,2.82,2.82,0,0,1,2.54,1.47,3.6,3.6,0,0,1-.07,2.6c.86-1,1.76-2.08,2.71-3.26,2.14-2.64,5.67-6.1,11.48-5.6,3.18.27,5.25,1.42,6.15,3.42,1.62,3.62-1.14,9.09-3,12.17a7.77,7.77,0,0,1,5.15-1.1,5.08,5.08,0,0,1,3.49,3.16h0a3.74,3.74,0,0,1,.08,3c-1.05,2.73-5,4.92-8.16,6.28a16.83,16.83,0,0,0-10.19,16.7l0,.24a.54.54,0,0,1-.73.56c-.84-.31-3.27-.89-4.42,0a2.31,2.31,0,0,0-.67,2.16c.1,1.3.51,2.13,1.2,2.47,1.26.62,3.36-.42,4.06-.88a.55.55,0,0,1,.58,0,.52.52,0,0,1,.25.52,6,6,0,0,1-2.46,3.85C143.54,702.14,141,702.84,137.77,702.84Zm-1-48.8a4.08,4.08,0,0,0-2.76,1c-3.12,2.66-3.85,9.7-4,12.61a.53.53,0,0,1-.22.41c-.63.45-1.26.89-1.92,1.3-8.86,5.6-8.8,13.22-8,17.27,1.45,7.13,7.4,13.71,13.25,14.67,5.22.85,9.22.35,11.57-1.44a5.57,5.57,0,0,0,1.65-1.95,4.92,4.92,0,0,1-3.9.3c-1.06-.52-1.66-1.65-1.8-3.36a3.33,3.33,0,0,1,1.09-3.12c1.34-1,3.51-.67,4.67-.38a17.91,17.91,0,0,1,10.88-17.23c4.17-1.81,6.86-3.83,7.58-5.69a2.65,2.65,0,0,0-.06-2.17h0a4.06,4.06,0,0,0-2.74-2.55c-2.9-.65-6.51,2.43-6.55,2.46a.54.54,0,0,1-.72,0,.55.55,0,0,1-.07-.72c.07-.09,6.54-8.81,4.48-13.41-.73-1.61-2.49-2.55-5.25-2.78-4.09-.35-7.35,1.25-10.55,5.21-2.18,2.7-4.07,4.87-5.94,6.82a.54.54,0,0,1-.83-.69c2.6-3.64,2.56-5.14,2.3-5.71s-.77-.76-1.66-.84Z"/><path class="cls-2" d="M164.17,998.84h-.1a.54.54,0,0,1-.44-.63l15.09-84.44-25-129.25a.53.53,0,0,1,.43-.63.52.52,0,0,1,.63.43l25,129.34a.67.67,0,0,1,0,.2L164.7,998.39A.54.54,0,0,1,164.17,998.84Z"/><path class="cls-2" d="M135.51,823a.56.56,0,0,1-.53-.41l-3.62-14.33L116,801.58a.54.54,0,0,1-.28-.71.53.53,0,0,1,.71-.28L132,807.37a.53.53,0,0,1,.31.37l3.7,14.58a.55.55,0,0,1-.4.66Z"/><path class="cls-2" d="M168.6,760.64a.52.52,0,0,1-.21,0,47.43,47.43,0,0,1-16.85-13,.55.55,0,0,1,.09-.76.53.53,0,0,1,.76.09,46.22,46.22,0,0,0,16.42,12.69.55.55,0,0,1,.29.71A.54.54,0,0,1,168.6,760.64Z"/><path class="cls-2" d="M892.36,985.8c-24.05-32.87-59.34-9.62-96.22.23s-40.09-6.18-40.09-6.18l79.6-79.68Z"/><path class="cls-2" d="M775.35,989.75c-7.19,0-11.73-1.57-14.55-3.32-4.5-2.8-5.25-6.33-5.28-6.47a.54.54,0,0,1,.14-.49l79.61-79.69a.52.52,0,0,1,.43-.15.5.5,0,0,1,.4.24l56.71,85.63a.54.54,0,0,1-.89.62c-18.74-25.61-44.89-16.55-72.57-7-7.51,2.61-15.27,5.3-23.07,7.38A82,82,0,0,1,775.35,989.75ZM756.66,980a10.61,10.61,0,0,0,4.76,5.53c4.75,2.93,14.61,5.3,34.58,0,7.76-2.07,15.51-4.75,23-7.35,25.44-8.82,49.6-17.2,68.21.85l-51.65-78Z"/><polygon class="cls-1" points="825.87 775.23 852.11 1030.49 821.96 1030.49 846.88 1024.1 808.43 775.23 825.87 775.23"/><path class="cls-2" d="M852.11,1031H822a.54.54,0,0,1-.54-.48.53.53,0,0,1,.4-.59l24.45-6.27L807.89,775.31a.57.57,0,0,1,.13-.43.53.53,0,0,1,.41-.19h17.44a.55.55,0,0,1,.54.49l26.24,255.26a.6.6,0,0,1-.14.42A.55.55,0,0,1,852.11,1031ZM826.26,1030h25.25L825.38,775.77H809.06L847.41,1024a.54.54,0,0,1-.4.61Z"/><polygon class="cls-1" points="816.8 775.23 813.74 1030.49 783.59 1030.49 808.51 1024.1 799.37 775.23 816.8 775.23"/><path class="cls-2" d="M813.74,1031H783.59a.54.54,0,0,1-.54-.48.53.53,0,0,1,.4-.59l24.5-6.28-9.13-248.44a.59.59,0,0,1,.15-.4.59.59,0,0,1,.4-.16H816.8a.57.57,0,0,1,.39.16.54.54,0,0,1,.15.39l-3.06,255.26A.54.54,0,0,1,813.74,1031ZM787.89,1030H813.2l3-254.18H799.93l9.12,248.31a.55.55,0,0,1-.4.55Z"/><path class="cls-2" d="M807.14,660.36s21.91-1.9,22.58,23.27,23.48,13.86,23.32,46c-.22,46.82-73.25,31.19-73.39-4.93-.1-27.23,17.33-13.21,13.42-37.09S807.14,660.36,807.14,660.36Z"/><path class="cls-2" d="M822.88,759.3h0c-20.63,0-43.67-14.22-43.75-34.58-.05-14,4.44-17.31,8.41-20.28,3.71-2.77,6.91-5.17,5-16.73-2.06-12.57,2-19.48,5.73-23.07a18.94,18.94,0,0,1,8.77-4.81h.05c.37,0,9.17-.72,15.89,5.28,4.61,4.12,7.06,10.35,7.28,18.52.31,11.47,5.3,15.17,10.59,19.1,6.31,4.67,12.82,9.5,12.74,26.93C853.48,751.51,837.66,759.3,822.88,759.3Zm-15.67-98.4c-1,.2-17.33,3.83-13.6,26.64,2,12.21-1.62,14.91-5.44,17.77s-8,6-8,19.41c.08,19.72,22.55,33.48,42.67,33.49h0c18.45,0,29.52-10.67,29.61-28.56.08-16.89-6.21-21.55-12.29-26.06-5.51-4.09-10.71-7.94-11-20-.21-7.85-2.54-13.82-6.92-17.73C816.06,660.37,807.74,660.86,807.21,660.9Z"/><path class="cls-1" d="M795,713.34,767.7,766.7,730.48,754l-4-12-2.69,9.3-19.71,3.14s6.72,15.22,25.09,8.28l29.79,21.74a20.51,20.51,0,0,0,26-1.55l19.62-18.25Z"/><path class="cls-2" d="M771,788.92a21,21,0,0,1-12.39-4l-29.56-21.56c-18.42,6.79-25.42-8.52-25.49-8.67a.55.55,0,0,1,.41-.76l19.37-3.08,2.59-9a.53.53,0,0,1,.51-.39.53.53,0,0,1,.52.37l3.95,11.73L767.43,766l27.11-52.95a.54.54,0,0,1,.56-.29.53.53,0,0,1,.45.44l9.58,51.31a.55.55,0,0,1-.17.5l-19.62,18.24A21,21,0,0,1,771,788.92Zm-41.86-26.75a.55.55,0,0,1,.32.1L759.25,784a20,20,0,0,0,25.35-1.51l19.41-18L794.78,715l-26.6,52a.55.55,0,0,1-.66.27l-37.21-12.73a.52.52,0,0,1-.34-.34l-3.48-10.34-2.21,7.63a.51.51,0,0,1-.43.39l-19,3c1.5,2.8,8.36,13.29,24.08,7.35A.58.58,0,0,1,729.14,762.17Z"/><path class="cls-3" d="M787.64,780.25V738.07q0-2.09.18-4.11c1.58-18.46,13.71-32.8,28.42-32.8,7.9,0,15,4.13,20.23,10.81a37.41,37.41,0,0,1,4.23,7,40.2,40.2,0,0,1,2.52,26.17l-8.14,35.15L892.36,985.8s-28.06,4-61.74-21.77-74.57,15.82-74.57,15.82Z"/><path class="cls-2" d="M888.15,986.55c-9.17,0-32-2.29-57.86-22.09-13.78-10.55-30.38-11.13-49.32-1.72a103.07,103.07,0,0,0-24.53,17.49.55.55,0,0,1-.64.1.54.54,0,0,1-.29-.56L787.1,780.21V738.07c0-1.4.06-2.8.18-4.16,1.63-19,14.08-33.29,29-33.29,7.81,0,15.15,3.91,20.66,11a37.74,37.74,0,0,1,4.29,7.06,40.86,40.86,0,0,1,2.56,26.52l-8.11,35,57.24,205.42a.52.52,0,0,1-.06.44.56.56,0,0,1-.38.24A35.08,35.08,0,0,1,888.15,986.55Zm-81.86-31.43A39.59,39.59,0,0,1,831,963.6c30.39,23.26,56.42,22.11,60.72,21.73L834.55,780.4a.61.61,0,0,1,0-.27L842.69,745a39.8,39.8,0,0,0-2.48-25.82A36.47,36.47,0,0,0,836,712.3c-5.3-6.83-12.33-10.6-19.8-10.6-14.31,0-26.3,13.89-27.88,32.3-.12,1.33-.17,2.7-.17,4.07v42.18s0,.06,0,.09l-31.34,198C762,973.55,783.26,955.12,806.29,955.12ZM787.64,780.25h0Z"/><path class="cls-1" d="M814.83,711.86l4.85-5.69-5.16-22-11.1-2.52,5.08,21.7-.93,5.08A4.16,4.16,0,0,0,814.83,711.86Z"/><path class="cls-2" d="M811.71,713.89a4.81,4.81,0,0,1-2.06-.48,4.59,4.59,0,0,1-2.61-5.09l.91-5-5.06-21.59a.57.57,0,0,1,.15-.51.54.54,0,0,1,.5-.14l11.1,2.52a.51.51,0,0,1,.41.4l5.15,22a.54.54,0,0,1-.11.47l-4.85,5.69h0A4.62,4.62,0,0,1,811.71,713.89Zm-7.56-31.53L809,703.22a.54.54,0,0,1,0,.22l-.93,5.08a3.61,3.61,0,0,0,6.3,3l4.67-5.48-5-21.42Zm10.68,29.5h0Z"/><circle class="cls-1" cx="809.35" cy="680.18" r="16.28"/><path class="cls-2" d="M809.35,697a16.82,16.82,0,1,1,16.82-16.82A16.84,16.84,0,0,1,809.35,697Zm0-32.55a15.74,15.74,0,1,0,15.74,15.73A15.74,15.74,0,0,0,809.35,664.45Z"/><path class="cls-2" d="M809.35,676.43H806l-1.36-6.73-1.08,6.73h-4.42l-2.27-6.73-.29,6.73h-5.75s1.13-14.31,18.49-12.53,16.28,16.28,16.28,16.28,1.39,3.78-6.17,12.76a49,49,0,0,0,3.18-8.47,2.19,2.19,0,0,0-4.11-1.46l-3,6.3S816.1,676.43,809.35,676.43Z"/><path class="cls-2" d="M819.46,693.48a.55.55,0,0,1-.49-.79,48.5,48.5,0,0,0,3.15-8.35,1.65,1.65,0,0,0-3.1-1.1l-3,6.3a.53.53,0,0,1-.62.3.56.56,0,0,1-.41-.55c0-.08.3-7.91-2.71-11.06a3.9,3.9,0,0,0-2.94-1.26H806a.54.54,0,0,1-.53-.44l-.77-3.79-.61,3.77a.54.54,0,0,1-.53.46h-4.42a.54.54,0,0,1-.51-.37l-1.34-4-.17,3.82a.54.54,0,0,1-.54.52h-5.75a.52.52,0,0,1-.4-.18.56.56,0,0,1-.14-.41,15.17,15.17,0,0,1,5.14-9.66c3.39-2.83,8.09-4,13.95-3.36,16.9,1.74,16.81,15.43,16.77,16.76.18.75.72,4.82-6.31,13.16A.53.53,0,0,1,819.46,693.48Zm1-12.27a2.81,2.81,0,0,1,1,.17,2.65,2.65,0,0,1,1.74,3.21,36.69,36.69,0,0,1-1.47,4.55c4.22-6.07,3.43-8.75,3.42-8.78a.42.42,0,0,1,0-.22c0-.57.82-14-15.79-15.7-5.56-.57-10,.48-13.15,3.11a14.2,14.2,0,0,0-4.67,8.33h4.61l.27-6.21a.54.54,0,0,1,.46-.51.56.56,0,0,1,.6.36l2.14,6.36h3.57l1-6.27a.55.55,0,0,1,1.07,0l1.27,6.29h2.88a5,5,0,0,1,3.72,1.6c2.25,2.35,2.84,6.75,3,9.48l2-4.18A2.64,2.64,0,0,1,820.47,681.21Z"/><path class="cls-2" d="M813.37,781.79a37.57,37.57,0,0,1-8.41-1c-7.58-1.76-13.75-7.93-17.82-17.86a.55.55,0,0,1,.3-.71.53.53,0,0,1,.7.29c3.94,9.6,9.84,15.55,17.06,17.22,14.39,3.33,23.72-2.41,31.67-9.1a.55.55,0,0,1,.76.06.56.56,0,0,1-.06.77C831.06,776.93,823.64,781.79,813.37,781.79Z"/><path class="cls-2" d="M814.19,771.19c-4,0-7.41-2.1-10.05-6.24-8.84-13.85-6.39-24-4.23-32.87,1.87-7.73,3.49-14.41-2.31-22.15a.54.54,0,0,1,.11-.76.55.55,0,0,1,.76.11c6.1,8.15,4.35,15.39,2.49,23.05-2.1,8.71-4.49,18.58,4.09,32,2.52,3.94,5.71,5.86,9.52,5.73,9.79-.34,21.38-13.78,28.52-26.93a.54.54,0,0,1,.95.51c-7.29,13.43-19.22,27.15-29.44,27.51Z"/><path class="cls-2" d="M816,850.89c-15.23,0-28.77-4.55-38.12-10.33a.53.53,0,0,1-.17-.74.53.53,0,0,1,.74-.18c16.17,10,45.08,16.26,73.34,1.06a.54.54,0,1,1,.52.95A76.13,76.13,0,0,1,816,850.89Z"/><path class="cls-2" d="M818.7,831.64c-5.14,0-12.34-3.18-19.85-6.5-5.82-2.57-11.83-5.23-17.31-6.64a.54.54,0,0,1,.27-1c5.57,1.44,11.62,4.11,17.48,6.7,9.63,4.26,18.73,8.28,23.08,5.51,1.83-1.18,2.76-3.54,2.82-7.21.22-13.33-17.8-16.36-33.69-19-2.57-.44-5-.84-7.34-1.29a.55.55,0,1,1,.21-1.07c2.33.45,4.75.86,7.31,1.29,16.33,2.75,34.83,5.87,34.6,20.12-.07,4.07-1.16,6.72-3.33,8.11A7.72,7.72,0,0,1,818.7,831.64Z"/><path class="cls-2" d="M842.09,807.07c-5.64,0-11.74-1.86-18.15-5.51-14.72-8.38-27.64-15.58-36.8-18.76a.54.54,0,1,1,.35-1c9.25,3.21,22.22,10.43,37,18.83,6.36,3.63,12.37,5.43,17.93,5.37a.53.53,0,0,1,.55.54.55.55,0,0,1-.54.55Z"/><path class="cls-2" d="M811.57,943.05c-16.59,0-33.39-8-46.49-22.45a.54.54,0,1,1,.8-.73c15.52,17.14,36.29,25,55.57,21.11,11.44-2.34,17.66-5.07,19.55-8.6,1.42-2.66.22-5.61-1-8.74-1.45-3.57-3-7.26-1-11.14,2.46-5,10.07-9.06,24-12.85,1.68-.47,3.37-.85,5.18-1.19a.55.55,0,0,1,.63.44.53.53,0,0,1-.43.63c-1.78.33-3.44.71-5.09,1.16-13.39,3.66-21,7.68-23.29,12.29-1.7,3.44-.29,6.9,1.07,10.25s2.66,6.56,1,9.66c-2.05,3.84-8.5,6.75-20.29,9.15A50.42,50.42,0,0,1,811.57,943.05Z"/><path class="cls-2" d="M805.84,913.46a3,3,0,0,1-.59-.06c-3.77-.79-6.82-9.06-10.68-19.53-4.78-12.94-10.72-29-19.72-34a.55.55,0,0,1-.21-.74.54.54,0,0,1,.74-.21c9.35,5.19,15.37,21.51,20.21,34.62,3.44,9.34,6.7,18.17,9.88,18.83a2.65,2.65,0,0,0,2.43-1.07c4.34-4.52,1.77-13.94-.51-22.25-2-7.44-3.78-13.87-.64-16.28s11.27.11,25.9,8.56c10.53,6.09,21.17,6.46,30.75,1.08a.54.54,0,0,1,.74.2.55.55,0,0,1-.21.74c-9.93,5.59-20.94,5.21-31.83-1.08-13.81-8-21.88-10.8-24.69-8.64-2.56,2-.82,8.36,1,15.13,2.35,8.59,5,18.33.25,23.29A4.05,4.05,0,0,1,805.84,913.46Z"/><path class="cls-2" d="M824.71,960.76a.53.53,0,0,1-.43-.22.54.54,0,0,1,.11-.76c11.84-8.82,26.74-10.92,44.29-6.23a32.11,32.11,0,0,0,14.93.73.54.54,0,1,1,.22,1.06,33.16,33.16,0,0,1-15.43-.74c-17.22-4.6-31.81-2.57-43.36,6A.51.51,0,0,1,824.71,960.76Z"/><path class="cls-2" d="M772.18,967.66a.53.53,0,0,1-.3-.09A65.9,65.9,0,0,1,759.33,957a.54.54,0,0,1,.8-.73,65.53,65.53,0,0,0,12.35,10.4.54.54,0,0,1-.3,1Z"/><path class="cls-2" d="M819.74,745.66h0c-1.49,0-2.76-1.43-4-4.48-4.79-11.9,5-26,14-35.73a.54.54,0,1,1,.8.74c-8.83,9.5-18.39,23.21-13.81,34.58,1,2.48,2,3.8,3,3.8h0c2.38,0,5.35-7.18,8.23-14.12,2.58-6.23,5.5-13.28,8.86-17.74a.54.54,0,1,1,.86.65c-3.27,4.35-6.16,11.34-8.72,17.5C825.55,739.13,822.84,745.66,819.74,745.66Z"/><polygon class="cls-2" points="808.51 1024.1 813.74 1030.49 783.59 1030.49 808.51 1024.1"/><path class="cls-2" d="M813.74,1031H783.59a.54.54,0,0,1-.54-.48.53.53,0,0,1,.4-.59l24.93-6.39a.51.51,0,0,1,.55.18l5.23,6.39a.54.54,0,0,1-.42.89ZM787.89,1030h24.7l-4.28-5.24Z"/><polygon class="cls-2" points="846.88 1024.1 852.11 1030.49 821.96 1030.49 846.88 1024.1"/><path class="cls-2" d="M852.11,1031H822a.54.54,0,0,1-.54-.48.53.53,0,0,1,.4-.59l24.92-6.39a.52.52,0,0,1,.56.18l5.23,6.39a.54.54,0,0,1,.07.57A.55.55,0,0,1,852.11,1031ZM826.26,1030H851l-4.28-5.24Z"/><path class="cls-1" d="M834.39,709.54s-18,12.45-2,35.57l7.7,13.64-47-11.48-1.4-11.14-2.84,11.14-21.62,6s11.17,11.38,23.65,7.4l61.44,20.55c11.62,3.89,21.69-9,15.15-19.31Z"/><path class="cls-2" d="M856.51,782.43a13.64,13.64,0,0,1-4.38-.73l-61.28-20.49c-12.57,3.89-23.92-7.47-24-7.59a.52.52,0,0,1-.14-.52.56.56,0,0,1,.38-.38l21.32-5.89L791.15,736a.55.55,0,0,1,.56-.41.54.54,0,0,1,.5.48l1.35,10.77,45.4,11.1-7.08-12.55c-5.47-7.9-7.61-15.48-6.34-22.47a22.74,22.74,0,0,1,8.54-13.82.56.56,0,0,1,.42-.08.58.58,0,0,1,.35.24l33.06,52.34a13.6,13.6,0,0,1-11.4,20.84ZM790.86,760.1a.47.47,0,0,1,.17,0l61.44,20.55A12.49,12.49,0,0,0,867,762.16l-32.75-51.83c-2.72,2.13-15.7,13.88-1.44,34.47l7.73,13.69a.55.55,0,0,1,0,.59.56.56,0,0,1-.57.2l-47-11.48a.57.57,0,0,1-.41-.46l-1-8.31-2.14,8.37a.54.54,0,0,1-.38.39l-20.69,5.72c2.6,2.32,12.13,9.9,22.41,6.61Z"/><line class="cls-1" x1="848.58" y1="760.44" x2="840.05" y2="758.75"/><path class="cls-2" d="M848.58,761h-.11L840,759.29a.54.54,0,0,1-.43-.64.56.56,0,0,1,.64-.43l8.52,1.69a.54.54,0,0,1,.43.64A.55.55,0,0,1,848.58,761Z"/></svg>