<?xml version="1.0" encoding="utf-8"?>
<!-- Generator: Adobe Illustrator 18.1.0, SVG Export Plug-In . SVG Version: 6.00 Build 0)  -->
<svg version="1.1" xmlns="http://www.w3.org/2000/svg" xmlns:xlink="http://www.w3.org/1999/xlink" x="0px" y="0px"
	 viewBox="0 0 2475 1650" enable-background="new 0 0 2475 1650" xml:space="preserve">
<g id="Background">
</g>
<g id="Illustration">
	<g>
		
			<linearGradient id="SVGID_1_" gradientUnits="userSpaceOnUse" x1="-1618.1871" y1="852.7278" x2="583.7487" y2="852.7278" gradientTransform="matrix(-1 0 0 1 774 0)">
			<stop  offset="0" style="stop-color:#DAE3FE"/>
			<stop  offset="1" style="stop-color:#E9EFFD"/>
		</linearGradient>
		<path fill="url(#SVGID_1_)" d="M1312.6,1444.5c0,0,746.1,7.4,953.9-159.1C2474.3,1119,2396.1,953,2236.9,906
			c-159.1-47-186.3-95.9-100.6-161.9c85.6-66,194.4-201.3,13.8-337.4c-180.6-136-386.6,59.4-548,33.4
			c-161.4-25.9-97.5-113.3-309.7-53c-212.2,60.4-165.4-115.4-336-131.3C785.8,240,803.3,438.7,627.8,363.7
			c-175.5-75-319-64.7-394.5,54.5c-75.4,119.1-58.9,357.4,106.6,453c165.5,95.6,164,11.3,102.1,105.2
			c-61.9,94-117.3,402.9,164.3,447C887.9,1467.5,1312.6,1444.5,1312.6,1444.5z"/>
		<g>
			<path fill="#BDD0FB" d="M576.9,482.9l-47.4,101.7c-12.6,27-12.1,58.2,1.3,84.7l80.4,159.3c9.1,18.1,12.4,38.5,9.3,58.5
				l-13.4,87.2c-5,32.7,6.9,65.7,31.7,87.6l0,0c39.3,34.8,99.1,32,135.1-6.2l57-60.6c26.7-28.4,33.8-70.1,18.1-105.7l-52-117.7
				c-6.6-15-9.4-31.5-7.9-47.9l15.1-168.7c3.5-38.9-16.7-76.1-51.2-94.4l-42.4-22.5C661.4,412.1,600.4,432.5,576.9,482.9z"/>
			<g>
				<path fill="#91B3FA" d="M712.9,1108.2c-0.3,0-0.5,0-0.8,0c-2.7-0.3-4.7-2.7-4.4-5.4c25.1-253.2-46.8-521.9-53.2-535.5
					c-1.3-1.7-1.4-4-0.1-5.8c1.6-2.2,4.7-2.8,6.9-1.2c1.4,1,2.4,1.7,6.6,16.2c1.9,6.7,5.1,18.3,9.3,36c6.3,26.5,15.7,69.7,24.5,125
					c14.6,92.4,29.3,230.9,15.8,366.3C717.3,1106.2,715.3,1108.1,712.9,1108.2z M655.6,568.4C655.6,568.4,655.6,568.4,655.6,568.4
					C655.6,568.4,655.6,568.4,655.6,568.4z M655.6,568.4L655.6,568.4C655.6,568.4,655.6,568.4,655.6,568.4z"/>
			</g>
		</g>
		<g>
			<path fill="#91B3FA" d="M2001,1157.1c25.9-40.8,36-86,31.1-125.6c-4.4-35.4,4.8-71.2,26.3-99.6c2.3-3,4.4-6.1,6.5-9.3
				c31.2-49,26.4-107.9-10.6-131.5c-37.1-23.6-92.4-2.9-123.6,46.1c-6.4,10-11.2,20.5-14.6,30.9c-10.8,33.4-33.5,61.9-64.3,78.7
				c-27.5,15.1-53,38.6-72.5,69.2c-29,45.6-38.1,96.8-28.7,139.4c3.6,16.1,4.2,32.8,1.8,49.1c-4.1,27.1,4.9,52.9,25.8,66.1
				c22.4,14.3,52.3,9.9,76.1-8.5c13.5-10.4,28.8-18.1,45-23.2C1937.5,1226.8,1974.8,1198.4,2001,1157.1z"/>
			<path fill="#BDD0FB" d="M2034,851.6c-15.8,35.5-32.7,70.4-49.9,105.2c-4.3,8.7-8.8,17.3-13.2,26l-6.6,13l-6.7,12.9
				c-4.5,8.6-8.9,17.2-13.6,25.8L1930,1060c-9.5,16.9-18.8,34-28.6,50.7c-4.9,8.4-9.6,16.9-14.6,25.2l-15,24.9
				c-20.4,33.1-41.6,65.6-64.4,97l-1.4-1l16.2-24.2l4.1-6l3.9-6.1l7.8-12.3l7.8-12.3c2.6-4.1,5.1-8.3,7.6-12.4
				c5-8.3,10.1-16.5,15.1-24.8c19.7-33.4,38.9-67,57.5-101.1c9.1-17.1,18.4-34.1,27.5-51.3l6.8-12.8l6.7-12.9
				c4.5-8.6,8.9-17.2,13.3-25.8c8.9-17.2,17.7-34.5,26.4-51.9c8.7-17.3,17.3-34.7,25.8-52.1L2034,851.6z"/>
		</g>
		<g>
			<path fill="#BDD0FB" d="M752.8,1034c-30.3-44.4-72.1-74.5-114.7-86.8c-38-11-70.6-36.2-90.2-70.5c-2.1-3.6-4.3-7.2-6.7-10.7
				c-36.4-53.4-98.6-74.3-139-46.8c-40.3,27.5-43.5,93.1-7.1,146.4c7.4,10.9,16,20.5,25.2,28.5c29.3,25.7,48.5,61.3,52.2,100.2
				c3.3,34.7,16.2,71.1,38.9,104.4c33.9,49.6,82.2,81.4,129.8,90.4c18,3.4,35.3,10.1,50.9,19.7c25.9,16,56.2,18.1,78.9,2.7
				c24.4-16.7,33.1-49.1,24.7-81.5c-4.8-18.3-5.8-37.3-4-56.2C796.1,1129.4,783.4,1078.9,752.8,1034z"/>
			<path fill="#91B3FA" d="M455.1,866.3c29.3,31.7,57.6,64.3,85.6,97.1c7,8.2,13.9,16.5,20.7,24.9l10.3,12.5l10.2,12.5
				c6.8,8.4,13.7,16.7,20.4,25.2l20.1,25.4c13.2,17.1,26.5,34.1,39.3,51.4c6.4,8.7,13,17.2,19.3,26l18.9,26.3
				c24.8,35.3,48.8,71.3,70.9,108.4l-1.6,1l-17.6-27.1l-4.4-6.8l-4.5-6.7l-9.1-13.3l-9.1-13.4c-3-4.5-6.2-8.8-9.3-13.2
				c-6.3-8.8-12.4-17.6-18.8-26.3c-25.5-34.8-51.4-69.2-78.1-103.1c-13.5-16.8-26.8-33.8-40.3-50.5l-10.1-12.6l-10.2-12.5
				c-6.8-8.3-13.7-16.7-20.6-24.9c-13.7-16.7-27.5-33.2-41.4-49.7c-13.8-16.5-27.9-32.9-41.9-49.3L455.1,866.3z"/>
		</g>
		<g>
			<path fill="#BDD0FB" d="M1573.2,1223.3c-90.7-51.2-136.5-184.9-98.6-235c32.9-43.5,117.3-8.8,137.7-49.3
				c24.6-48.6-84.5-123.4-61.4-180.2c22.2-54.5,138.6-25,162-78.9c25-57.6-94.4-122.1-78.2-204c13.5-68.3,116.9-126.2,211-108.1
				c76.6,14.7,154,81,149.4,140.9c-6.2,81.6-160.6,94.8-164.6,174.5c-3.8,73.5,125.3,109.3,116.7,174.6
				c-9.3,70.3-165.8,81.6-166.6,138.1c-0.6,49.6,119.9,62.8,123.4,112.6C1908.6,1174.3,1708,1299.5,1573.2,1223.3z"/>
			<path fill="#91B3FA" d="M1811.1,468.2c-8.2,60-18.1,119.8-28.8,179.4c-5.2,29.8-11,59.5-16.6,89.3c-2.9,14.9-5.9,29.7-8.9,44.5
				c-3,14.8-5.9,29.7-9.1,44.5l-9.5,44.4c-3.3,14.8-6.5,29.6-9.9,44.3l-2.5,11.1l-2.6,11l-5.2,22.1l-5.3,22.1l-5.6,22
				c-14.9,58.6-30.8,117.2-51.6,174l-1.1-0.4c16.3-58.2,29.6-117.1,42.8-176.1l4.9-22.1l4.8-22.1l4.8-22.1l2.4-11.1l2.3-11.1
				c3.1-14.8,6.3-29.6,9.5-44.3l9.3-44.4l37-177.5c12.3-59.2,24.8-118.4,37.9-177.4L1811.1,468.2z"/>
		</g>
		<g>
			<g>
				<path fill="#FFFFFF" d="M1523.2,1013l-5.5-1.5c-0.6-0.2-1-0.8-0.8-1.5c0.2-0.6,0.8-1,1.5-0.8c0,0,0,0,0,0l0.1,0l5.3,1.6l0.1,0
					c0.6,0.2,0.9,0.8,0.8,1.4C1524.4,1012.8,1523.8,1013.2,1523.2,1013z"/>
				<path fill="#FFFFFF" d="M1507,1007.6l-10.3-4.9c-0.7-0.3-1-1.2-0.7-1.9c0.3-0.7,1.2-1,1.9-0.7c0,0,0,0,0,0l0.1,0.1l10,5l0.1,0.1
					c0.7,0.3,0.9,1.1,0.6,1.8C1508.4,1007.7,1507.7,1007.9,1507,1007.6z"/>
				<path fill="#FFFFFF" d="M1486.9,996.9l-9.2-6.7c-0.7-0.5-0.9-1.6-0.4-2.3c0.5-0.7,1.6-0.9,2.3-0.4c0,0,0,0,0,0l0.1,0.1l8.9,6.7
					l0.1,0.1c0.7,0.5,0.8,1.5,0.3,2.2C1488.5,997.3,1487.5,997.4,1486.9,996.9z"/>
				<path fill="#FFFFFF" d="M1469,982.7l-8-8.2c-0.7-0.7-0.7-1.9,0-2.6c0.7-0.7,1.9-0.7,2.6,0c0,0,0,0,0,0l0.1,0.1l7.7,8.1l0.1,0.1
					c0.7,0.7,0.6,1.8-0.1,2.5C1470.7,983.4,1469.6,983.4,1469,982.7z"/>
				<path fill="#FFFFFF" d="M1453.6,965.7l-6.6-9.3c-0.7-0.9-0.4-2.2,0.5-2.9c0.9-0.7,2.2-0.4,2.9,0.5c0,0,0,0,0,0l0.1,0.1l6.3,9.2
					l0.1,0.1c0.6,0.9,0.4,2.1-0.5,2.7C1455.5,966.8,1454.3,966.6,1453.6,965.7z"/>
				<path fill="#FFFFFF" d="M1441,946.6l-5.2-10.2c-0.6-1.1-0.1-2.5,1-3c1.1-0.6,2.5-0.1,3,1c0,0,0,0,0,0l0.1,0.2l4.9,10l0.1,0.1
					c0.5,1.1,0.1,2.4-1,2.9C1442.9,948.1,1441.6,947.7,1441,946.6z"/>
				<path fill="#FFFFFF" d="M1431.3,925.9l-3.8-10.8c-0.4-1.3,0.2-2.7,1.5-3.1c1.3-0.4,2.7,0.2,3.1,1.5c0,0,0,0,0,0l0.1,0.2
					l3.5,10.6l0.1,0.2c0.4,1.2-0.3,2.6-1.5,3C1433,927.8,1431.7,927.1,1431.3,925.9z"/>
				<path fill="#FFFFFF" d="M1424.5,904l-2.2-11.3c-0.3-1.4,0.6-2.8,2-3c1.4-0.3,2.8,0.6,3,2l0,0l0,0.2l2,10.9l0,0.2
					c0.3,1.4-0.7,2.7-2,2.9C1426.1,906.3,1424.8,905.4,1424.5,904z"/>
				<path fill="#FFFFFF" d="M1420.9,881.4l-0.6-11.5c-0.1-1.5,1.1-2.8,2.6-2.8c1.5-0.1,2.8,1.1,2.8,2.6l0,0l0,0.2l0.4,11.1l0,0.2
					c0.1,1.5-1.1,2.7-2.5,2.7C1422.2,883.9,1421,882.8,1420.9,881.4z"/>
				<path fill="#FFFFFF" d="M1420.6,858.4l1-11.4c0.1-1.6,1.5-2.7,3.1-2.6c1.6,0.1,2.7,1.5,2.6,3.1l0,0l0,0.2l-1.1,11.1l0,0.2
					c-0.2,1.5-1.5,2.6-3,2.5C1421.6,861.3,1420.5,859.9,1420.6,858.4z"/>
				<path fill="#FFFFFF" d="M1423.4,835.7l2.4-11.2c0.3-1.6,1.9-2.6,3.5-2.2c1.6,0.3,2.6,1.9,2.2,3.5l0,0l0,0.2l-2.5,10.8l0,0.2
					c-0.4,1.5-1.9,2.5-3.4,2.2C1424,838.7,1423.1,837.2,1423.4,835.7z"/>
				<path fill="#FFFFFF" d="M1428.9,813.4l3.7-10.8c0.5-1.6,2.3-2.5,3.9-1.9c1.6,0.5,2.5,2.3,1.9,3.9l0,0l-0.1,0.2l-3.7,10.5
					l-0.1,0.2c-0.6,1.6-2.3,2.4-3.8,1.8C1429.2,816.7,1428.4,815,1428.9,813.4z"/>
				<path fill="#FFFFFF" d="M1436.9,791.9l4.8-10.4c0.7-1.6,2.6-2.3,4.2-1.5c1.6,0.7,2.3,2.6,1.5,4.2l0,0l-0.1,0.1l-4.8,10.1
					l-0.1,0.1c-0.7,1.6-2.6,2.2-4.2,1.5C1436.8,795.3,1436.2,793.5,1436.9,791.9z"/>
				<path fill="#FFFFFF" d="M1447,771.4l5.8-9.9c0.9-1.6,2.9-2.1,4.5-1.2c1.6,0.9,2.1,2.9,1.2,4.5l0,0l-0.1,0.1l-5.7,9.6l-0.1,0.1
					c-0.9,1.5-2.9,2-4.4,1.1C1446.6,774.9,1446.1,772.9,1447,771.4z"/>
				<path fill="#FFFFFF" d="M1459.1,751.9l6.6-9.3c1.1-1.5,3.2-1.9,4.8-0.8c1.5,1.1,1.9,3.2,0.8,4.8l0,0l-0.1,0.1l-6.6,9l-0.1,0.1
					c-1.1,1.5-3.2,1.8-4.7,0.7C1458.3,755.5,1458,753.4,1459.1,751.9z"/>
				<path fill="#FFFFFF" d="M1472.8,733.6l7.4-8.7c1.2-1.4,3.4-1.6,4.9-0.4c1.4,1.2,1.6,3.4,0.4,4.9l0,0l-0.1,0.1l-7.3,8.5l-0.1,0.1
					c-1.2,1.4-3.4,1.6-4.8,0.4C1471.7,737.2,1471.5,735.1,1472.8,733.6z"/>
				<path fill="#FFFFFF" d="M1487.9,716.5l8.1-8.1c1.4-1.4,3.6-1.4,4.9,0c1.4,1.4,1.4,3.6,0,4.9l0,0l-0.1,0.1l-7.9,7.9l-0.1,0.1
					c-1.4,1.3-3.6,1.3-4.9,0C1486.6,720.1,1486.6,717.9,1487.9,716.5z"/>
				<path fill="#FFFFFF" d="M1504.4,700.7c2.8-2.5,5.8-5,8.7-7.4c1.5-1.3,3.7-1.1,5,0.4c1.3,1.5,1.1,3.7-0.4,5l0,0l-0.1,0
					c-2.9,2.4-5.7,4.8-8.5,7.2c-1.5,1.3-3.7,1.1-5-0.3C1502.8,704.2,1503,702,1504.4,700.7z"/>
				<path fill="#FFFFFF" d="M1522.1,686.1l9.2-6.8c1.6-1.2,3.8-0.8,5,0.8s0.8,3.8-0.8,5l0,0l-0.1,0.1l-9,6.6l-0.1,0.1
					c-1.6,1.2-3.8,0.8-5-0.8C1520.1,689.5,1520.5,687.3,1522.1,686.1z"/>
				<path fill="#FFFFFF" d="M1540.7,672.9l9.6-6.1c1.7-1.1,3.9-0.6,5,1.1c1.1,1.7,0.6,3.9-1.1,5l0,0l-0.1,0.1l-9.4,5.9l-0.1,0.1
					c-1.7,1.1-3.9,0.5-4.9-1.1C1538.5,676.2,1539,674,1540.7,672.9z"/>
				<path fill="#FFFFFF" d="M1560.2,661.1l10-5.4c1.8-1,4-0.3,4.9,1.5c1,1.8,0.3,4-1.5,4.9l0,0l-0.1,0.1l-9.8,5.3l-0.1,0.1
					c-1.8,0.9-4,0.3-4.9-1.5C1557.7,664.2,1558.4,662,1560.2,661.1z"/>
				<path fill="#FFFFFF" d="M1580.4,650.6l10.4-4.7c1.9-0.8,4,0,4.9,1.8c0.8,1.9,0,4-1.8,4.9l0,0l-0.1,0.1l-10.2,4.6l-0.1,0.1
					c-1.8,0.8-4,0-4.8-1.8C1577.8,653.6,1578.6,651.4,1580.4,650.6z"/>
				<path fill="#FFFFFF" d="M1601.4,641.5l10.7-4c1.9-0.7,4.1,0.3,4.8,2.2c0.7,1.9-0.3,4.1-2.2,4.8l0,0l-0.1,0l-10.5,3.9l-0.1,0
					c-1.9,0.7-4.1-0.3-4.8-2.2C1598.5,644.3,1599.4,642.2,1601.4,641.5z"/>
				<path fill="#FFFFFF" d="M1622.9,633.8l10.9-3.3c2-0.6,4.1,0.5,4.7,2.5c0.6,2-0.5,4.1-2.5,4.7l0,0l-0.1,0l-10.7,3.2l-0.1,0
					c-2,0.6-4.1-0.5-4.7-2.5C1619.8,636.5,1620.9,634.4,1622.9,633.8z"/>
				<path fill="#FFFFFF" d="M1644.8,627.6l11.1-2.6c2-0.5,4.1,0.8,4.6,2.8c0.5,2-0.8,4.1-2.8,4.6l0,0l-0.1,0l-10.9,2.5l-0.1,0
					c-2,0.5-4.1-0.8-4.5-2.8C1641.5,630.1,1642.8,628,1644.8,627.6z"/>
				<path fill="#FFFFFF" d="M1667.2,622.8l11.3-1.8c2.1-0.3,4,1.1,4.4,3.2c0.3,2.1-1.1,4-3.2,4.4l-0.1,0l-11,1.8l-0.1,0
					c-2.1,0.3-4-1.1-4.4-3.2C1663.7,625.1,1665.1,623.1,1667.2,622.8L1667.2,622.8z"/>
				<path fill="#FFFFFF" d="M1689.8,619.5l11.4-1.1c2.1-0.2,3.9,1.3,4.1,3.4c0.2,2.1-1.3,3.9-3.4,4.1l-0.1,0l-11.1,1.1l-0.1,0
					c-2.1,0.2-4-1.3-4.2-3.4C1686.1,621.6,1687.7,619.7,1689.8,619.5L1689.8,619.5z"/>
				<path fill="#FFFFFF" d="M1712.5,617.7l11.4-0.3c2.1-0.1,3.8,1.6,3.9,3.7c0.1,2.1-1.6,3.8-3.7,3.9l-0.1,0l-11.2,0.3l-0.1,0
					c-2.1,0.1-3.8-1.6-3.9-3.7C1708.8,619.5,1710.5,617.8,1712.5,617.7L1712.5,617.7z"/>
				<path fill="#FFFFFF" d="M1735.4,617.4l11.4,0.4c2.1,0.1,3.7,1.8,3.6,3.9c-0.1,2.1-1.8,3.7-3.9,3.6l-0.1,0l-11.2-0.4l-0.1,0
					c-2.1-0.1-3.7-1.8-3.6-3.9C1731.6,619,1733.3,617.4,1735.4,617.4L1735.4,617.4z"/>
				<path fill="#FFFFFF" d="M1758.2,618.7l11.4,1.2c2,0.2,3.5,2.1,3.3,4.1c-0.2,2-2.1,3.5-4.1,3.3l-0.1,0l-11.1-1.1l-0.1,0
					c-2.1-0.2-3.5-2.1-3.3-4.1C1754.3,620,1756.1,618.5,1758.2,618.7L1758.2,618.7z"/>
				<path fill="#FFFFFF" d="M1780.9,621.5l11.2,2c2,0.4,3.4,2.3,3,4.3c-0.4,2-2.3,3.4-4.3,3l-0.1,0l-11-1.9l-0.1,0
					c-2-0.4-3.4-2.3-3-4.3C1776.9,622.5,1778.8,621.1,1780.9,621.5L1780.9,621.5z"/>
				<path fill="#FFFFFF" d="M1803.3,625.8l11.1,2.8c2,0.5,3.2,2.5,2.7,4.5c-0.5,2-2.5,3.2-4.5,2.7l-0.1,0l-10.8-2.7l-0.1,0
					c-2-0.5-3.2-2.5-2.7-4.5C1799.3,626.5,1801.3,625.3,1803.3,625.8L1803.3,625.8z"/>
				<path fill="#FFFFFF" d="M1825.3,631.7l10.9,3.6c1.9,0.6,3,2.7,2.3,4.6c-0.6,1.9-2.7,3-4.6,2.3l-0.1,0l-10.6-3.5l-0.1,0
					c-1.9-0.6-3-2.7-2.4-4.6C1821.3,632.2,1823.4,631.1,1825.3,631.7L1825.3,631.7z"/>
				<path fill="#FFFFFF" d="M1846.9,639.2l10.6,4.3c1.9,0.8,2.8,2.9,2,4.7c-0.8,1.9-2.9,2.8-4.7,2l-0.1,0l-10.4-4.2l-0.1,0
					c-1.9-0.8-2.8-2.9-2-4.7C1842.9,639.4,1845,638.5,1846.9,639.2L1846.9,639.2z"/>
				<path fill="#FFFFFF" d="M1867.9,648l10.3,4.6c1.8,0.8,2.6,2.9,1.8,4.8c-0.8,1.8-2.9,2.6-4.8,1.8l0,0l-10.3-4.6l0,0
					c-1.8-0.8-2.7-3-1.8-4.8C1863.9,648,1866.1,647.2,1867.9,648L1867.9,648z"/>
				<path fill="#FFFFFF" d="M1888.5,657.3l10.3,4.7l0,0c1.8,0.8,2.6,2.9,1.8,4.8c-0.8,1.8-2.9,2.6-4.7,1.8l-10.3-4.6
					c-1.8-0.8-2.6-2.9-1.8-4.8C1884.6,657.3,1886.7,656.5,1888.5,657.3L1888.5,657.3L1888.5,657.3z"/>
				<path fill="#FFFFFF" d="M1909.1,666.5l10.3,4.4l0.1,0c1.8,0.8,2.7,2.9,1.9,4.7c-0.8,1.8-2.9,2.7-4.7,1.9l-10.5-4.4
					c-1.8-0.8-2.7-2.9-1.9-4.7C1905.1,666.5,1907.2,665.7,1909.1,666.5L1909.1,666.5L1909.1,666.5z"/>
				<path fill="#FFFFFF" d="M1929.8,675l10.5,3.8l0.1,0c1.8,0.7,2.8,2.7,2.1,4.5c-0.7,1.8-2.7,2.8-4.5,2.1l-10.8-3.9
					c-1.8-0.7-2.8-2.7-2.1-4.5c0.7-1.8,2.7-2.8,4.5-2.1l0,0L1929.8,675z"/>
				<path fill="#FFFFFF" d="M1951,682.2l10.7,2.8l0.2,0.1c1.9,0.5,3,2.4,2.5,4.3c-0.5,1.9-2.4,3-4.3,2.5l-11.1-2.9
					c-1.9-0.5-3-2.4-2.5-4.3c0.5-1.9,2.4-3,4.3-2.5l0,0L1951,682.2z"/>
				<path fill="#FFFFFF" d="M1972.6,687.1l10.9,1.4l0.3,0c1.9,0.2,3.3,2,3,3.9c-0.2,1.9-2,3.3-3.9,3l-11.5-1.4c-1.9-0.2-3.3-2-3-3.9
					c0.2-1.9,2-3.3,3.9-3l0,0L1972.6,687.1z"/>
				<path fill="#FFFFFF" d="M1994.5,689.1l11-0.4l0.3,0c1.9-0.1,3.5,1.4,3.6,3.3c0.1,1.9-1.4,3.5-3.3,3.6l-11.6,0.4
					c-1.9,0.1-3.5-1.4-3.6-3.3c-0.1-1.9,1.4-3.5,3.3-3.6l0,0L1994.5,689.1z"/>
				<path fill="#FFFFFF" d="M2016.3,687.3l10.7-2.5l0.3-0.1c1.9-0.4,3.7,0.7,4.1,2.6c0.4,1.9-0.7,3.7-2.6,4.1l-11.3,2.7
					c-1.9,0.4-3.7-0.7-4.2-2.6c-0.4-1.9,0.7-3.7,2.6-4.2l0,0L2016.3,687.3z"/>
				<path fill="#FFFFFF" d="M2037.4,681.3l10-4.5l0.3-0.1c1.7-0.8,3.7,0,4.5,1.7c0.8,1.7,0,3.7-1.7,4.5l-10.6,4.8
					c-1.7,0.8-3.8,0-4.5-1.7c-0.8-1.7,0-3.8,1.7-4.5l0,0L2037.4,681.3z"/>
				<path fill="#FFFFFF" d="M2056.9,671.4l9.1-6.2l0.2-0.2c1.5-1.1,3.7-0.7,4.7,0.9c1.1,1.5,0.7,3.6-0.9,4.7l-9.5,6.6
					c-1.5,1.1-3.7,0.7-4.7-0.9c-1.1-1.5-0.7-3.7,0.9-4.7l0,0L2056.9,671.4z"/>
				<path fill="#FFFFFF" d="M2074.5,658.2l7.9-7.7l0.2-0.2c1.3-1.3,3.4-1.2,4.7,0.1c1.3,1.3,1.2,3.4-0.1,4.7l-8.3,8.1
					c-1.3,1.3-3.4,1.3-4.7,0c-1.3-1.3-1.3-3.4,0-4.7l0,0L2074.5,658.2z"/>
				<path fill="#FFFFFF" d="M2089.7,642.2l6.6-8.8l0.2-0.2c1.1-1.4,3.1-1.7,4.5-0.7c1.4,1.1,1.7,3.1,0.7,4.5l-6.9,9.3
					c-1.1,1.5-3.1,1.8-4.6,0.7c-1.5-1.1-1.8-3.1-0.7-4.6l0,0L2089.7,642.2z"/>
				<path fill="#FFFFFF" d="M2102.2,624l5.1-9.8l0.1-0.2c0.8-1.6,2.7-2.2,4.3-1.4c1.6,0.8,2.2,2.7,1.4,4.3l-5.3,10.3
					c-0.8,1.6-2.7,2.2-4.3,1.4c-1.6-0.8-2.2-2.7-1.4-4.3l0,0L2102.2,624z"/>
				<path fill="#FFFFFF" d="M2111.6,604.1l3.4-10.5l0.1-0.3c0.5-1.6,2.3-2.5,3.9-2c1.6,0.5,2.5,2.3,2,3.9l-3.5,11
					c-0.5,1.7-2.3,2.6-3.9,2c-1.7-0.5-2.6-2.3-2-3.9l0,0L2111.6,604.1z"/>
				<path fill="#FFFFFF" d="M2117.4,582.9l0.8-5.5c0.2-1.8,0.6-3.6,0.7-5.5c0.1-1.7,1.6-2.9,3.3-2.8c1.7,0.1,2.9,1.6,2.8,3.2l0,0.1
					c-0.1,1.9-0.5,3.8-0.7,5.7l-0.8,5.7c-0.2,1.7-1.8,2.9-3.5,2.6c-1.7-0.2-2.9-1.8-2.6-3.5l0,0L2117.4,582.9z"/>
				<path fill="#FFFFFF" d="M2119.5,560.9l-0.4-11l0-0.2c-0.1-1.6,1.2-3,2.9-3.1c1.6-0.1,3,1.2,3.1,2.8l0.5,11.5
					c0.1,1.7-1.2,3.1-2.9,3.1c-1.7,0.1-3.1-1.2-3.1-2.9l0,0L2119.5,560.9z"/>
				<path fill="#FFFFFF" d="M2117.8,538.9l-2.1-10.9l0-0.2c-0.3-1.6,0.7-3.1,2.3-3.4c1.6-0.3,3.1,0.7,3.4,2.3l2.3,11.3
					c0.3,1.6-0.7,3.1-2.3,3.5s-3.1-0.7-3.5-2.3l0,0L2117.8,538.9z"/>
				<path fill="#FFFFFF" d="M2112.7,517.4l-3.8-10.4l-0.1-0.2c-0.5-1.5,0.2-3.1,1.7-3.6c1.5-0.5,3.1,0.2,3.6,1.7l4,10.8
					c0.6,1.5-0.2,3.1-1.7,3.7c-1.5,0.6-3.1-0.2-3.7-1.7l0,0L2112.7,517.4z"/>
				<path fill="#FFFFFF" d="M2104.3,496.9l-5.4-9.7l-0.1-0.2c-0.7-1.3-0.3-3,1.1-3.7c1.3-0.7,3-0.3,3.7,1.1l5.6,10
					c0.8,1.3,0.3,3-1.1,3.8c-1.3,0.8-3,0.3-3.8-1.1l0,0L2104.3,496.9z"/>
				<path fill="#FFFFFF" d="M2092.8,477.9l-6.8-8.7l-0.1-0.2c-0.9-1.2-0.7-2.9,0.5-3.8c1.2-0.9,2.8-0.7,3.8,0.5l7.1,9
					c0.9,1.2,0.7,2.9-0.4,3.8c-1.2,0.9-2.9,0.7-3.8-0.4l0,0L2092.8,477.9z"/>
				<path fill="#FFFFFF" d="M2078.5,461.1l-4.1-3.8c-1.4-1.2-2.7-2.5-4.1-3.7c-1.1-0.9-1.3-2.6-0.4-3.7c0.9-1.1,2.6-1.3,3.7-0.4
					l0.1,0c1.5,1.2,2.9,2.5,4.3,3.8l4.2,3.9c1.1,1,1.1,2.7,0.2,3.7c-1,1.1-2.7,1.1-3.7,0.2l0,0L2078.5,461.1z"/>
				<path fill="#FFFFFF" d="M2061.6,446.8l-9.3-6l-0.2-0.1c-1.2-0.8-1.5-2.3-0.8-3.5c0.8-1.2,2.3-1.5,3.5-0.8l9.7,6.2
					c1.2,0.8,1.6,2.4,0.8,3.6c-0.8,1.2-2.4,1.6-3.6,0.8l0,0L2061.6,446.8z"/>
				<path fill="#FFFFFF" d="M2042.5,435.5l-10.2-4.5l-0.2-0.1c-1.2-0.5-1.8-2-1.3-3.3c0.5-1.2,2-1.8,3.2-1.3l10.5,4.6
					c1.3,0.5,1.9,2,1.3,3.3c-0.6,1.3-2,1.9-3.3,1.3l0,0L2042.5,435.5z"/>
				<path fill="#FFFFFF" d="M2021.9,427.4l-10.7-2.9l-0.2,0c-1.3-0.3-2-1.6-1.7-2.9c0.3-1.2,1.6-2,2.8-1.7l11.1,2.8
					c1.3,0.3,2.1,1.6,1.7,2.9c-0.3,1.3-1.6,2.1-2.9,1.7c0,0,0,0,0,0L2021.9,427.4z"/>
				<path fill="#FFFFFF" d="M2000.2,422.5l-11.1-1.2l-0.2,0c-1.2-0.1-2.1-1.2-2-2.4c0.1-1.2,1.2-2.1,2.4-2l11.4,1.1
					c1.3,0.1,2.2,1.2,2.1,2.5c-0.1,1.3-1.2,2.2-2.5,2.1c0,0,0,0,0,0L2000.2,422.5z"/>
				<path fill="#FFFFFF" d="M1978.1,420.9l-11.1,0.6l-0.2,0c-1.2,0.1-2.1-0.8-2.2-2c-0.1-1.1,0.8-2.1,2-2.2l11.4-0.7
					c1.2-0.1,2.2,0.8,2.3,2c0.1,1.2-0.8,2.2-2,2.3c0,0,0,0,0,0L1978.1,420.9z"/>
				<path fill="#FFFFFF" d="M1955.9,423l-5.4,1.2l-2.7,0.6c-0.9,0.2-1.8,0.4-2.7,0.7l-0.1,0c-1.1,0.3-2.1-0.4-2.4-1.5
					c-0.3-1.1,0.4-2.1,1.4-2.4c0.9-0.2,1.8-0.5,2.8-0.7l2.8-0.6l5.6-1.2c1.1-0.2,2.2,0.4,2.4,1.5c0.2,1.1-0.4,2.2-1.5,2.4l0,0
					L1955.9,423z"/>
				<path fill="#FFFFFF" d="M1934.3,428.5l-10.7,3.6l0,0c-1,0.3-2-0.2-2.3-1.2c-0.3-1,0.2-2,1.1-2.3l10.7-3.7c1-0.3,2.1,0.2,2.4,1.2
					C1935.9,427.1,1935.4,428.2,1934.3,428.5C1934.4,428.5,1934.4,428.5,1934.3,428.5L1934.3,428.5z"/>
				<path fill="#FFFFFF" d="M1913,435.8l-10.9,3.4c-0.9,0.3-1.9-0.2-2.2-1.1c-0.3-0.9,0.2-1.9,1.1-2.1l0.1,0l10.7-3.4l0.1,0
					c0.9-0.3,1.9,0.2,2.2,1.2C1914.4,434.5,1913.9,435.5,1913,435.8C1913,435.8,1913,435.8,1913,435.8z"/>
				<path fill="#FFFFFF" d="M1891,441.8c-3.8,0.7-7.6,1.3-11.4,1.5c-0.9,0.1-1.6-0.6-1.7-1.5c-0.1-0.9,0.6-1.6,1.5-1.7
					c3.7-0.3,7.3-0.9,11-1.6c0.9-0.2,1.8,0.4,2,1.3C1892.5,440.8,1891.9,441.7,1891,441.8C1891,441.8,1891,441.8,1891,441.8z"/>
				<path fill="#FFFFFF" d="M1868,443.3c-3.9-0.4-7.7-1.3-11.3-2.6c-0.8-0.3-1.2-1.1-0.9-1.9c0.3-0.8,1.1-1.2,1.9-0.9
					c3.5,1.2,7,2,10.7,2.4c0.8,0.1,1.5,0.8,1.4,1.7C1869.6,442.8,1868.9,443.4,1868,443.3C1868.1,443.3,1868,443.3,1868,443.3z"/>
				<path fill="#FFFFFF" d="M1846.3,435.7c-3.3-2-6.4-4.4-9.2-7c-0.5-0.5-0.6-1.4,0-1.9c0.5-0.5,1.4-0.6,1.9-0.1
					c2.7,2.5,5.7,4.7,8.8,6.6c0.7,0.4,0.9,1.3,0.5,1.9C1847.8,435.9,1847,436.1,1846.3,435.7
					C1846.3,435.7,1846.3,435.7,1846.3,435.7z"/>
				<path fill="#FFFFFF" d="M1829.7,419.7c-2.1-3.3-3.7-6.9-4.5-10.8c-0.1-0.7,0.3-1.3,0.9-1.5c0.7-0.1,1.3,0.3,1.5,0.9
					c0.8,3.5,2.3,6.9,4.3,9.9c0.4,0.6,0.2,1.4-0.4,1.8C1830.9,420.5,1830.1,420.3,1829.7,419.7
					C1829.7,419.7,1829.7,419.7,1829.7,419.7z"/>
				<path fill="#FFFFFF" d="M1825,397.2c0.4-1.9,1-3.8,1.8-5.6c0.2-0.6,0.9-0.8,1.5-0.6c0.6,0.2,0.8,0.9,0.6,1.5
					c-0.7,1.7-1.2,3.4-1.6,5.1c-0.1,0.6-0.7,1-1.4,0.9C1825.3,398.4,1824.9,397.8,1825,397.2C1825,397.2,1825,397.2,1825,397.2z"/>
			</g>
			<g>
				<polygon fill="#7D97F4" points="1842.5,324.5 1820.7,364.9 1802.7,332.8 				"/>
				<path fill="#91B3FA" d="M1673.4,203.6l57.5,154.3c1.1,3,3.4,5.3,6.2,6.6c2.9,1.3,6.2,1.3,9.1,0.1l152.8-63.6
					c1.7-0.7,2.9-2.4,2.9-4.3c0-1.9-1.2-3.6-2.9-4.3L1673.4,203.6z"/>
				<polygon fill="#7D97F4" points="1842.5,324.5 1673.4,203.6 1817.8,334.8 1812.3,346.3 				"/>
				<polygon fill="#7D97F4" points="1803.2,340.9 1820.7,364.9 1817.8,334.8 				"/>
			</g>
		</g>
		<g>
			<g>
				<g>
					<g>
						<path fill="#91B3FA" d="M1259.2,438l-55.6,528.1l105.7,11.1l55.6-528.1C1363.7,460.5,1258,449.3,1259.2,438z"/>
						
							<linearGradient id="SVGID_2_" gradientUnits="userSpaceOnUse" x1="622.6413" y1="3599.5991" x2="339.1718" y2="3603.4424" gradientTransform="matrix(-0.1047 0.9945 -0.9945 -0.1047 4925.0781 510.9923)">
							<stop  offset="0" style="stop-color:#4042E2"/>
							<stop  offset="1" style="stop-color:#4F52FF"/>
						</linearGradient>
						<path fill="url(#SVGID_2_)" d="M1230.1,968.9l48.4,5.1c17.1,1.8,32-7.2,33.3-20.1l52.9-502.5c1.1-10.1,10.1-17.5,20.3-16.4
							c3.1,0.3,5.3,3.1,5,6.2l-57.8,549.2c-1.3,12.6-23.2,30.5-47.7,27.9l-67.6-7.1c-23-2.4-39.7-23.8-38.4-35.7l57.7-547.7
							c0.5-4.7,4.7-8.1,9.3-7.6c8.5,0.9,14.7,8.5,13.8,17.1l-53.6,508.8C1204.6,957.2,1215.5,967.4,1230.1,968.9z"/>
					</g>
					<path opacity="0.6" fill="#FFFFFF" d="M1289.2,962.6c-0.1,0-0.2,0-0.2,0c-1.2-0.1-2.1-1.2-2-2.5l52.1-495.2
						c0.1-1.2,1.2-2.1,2.5-2c1.2,0.1,2.1,1.2,2,2.5l-52.1,495.2C1291.3,961.7,1290.3,962.6,1289.2,962.6z"/>
					<path opacity="0.6" fill="#FFFFFF" d="M1273.5,960.9c-0.1,0-0.2,0-0.2,0c-1.2-0.1-2.1-1.2-2-2.5l52.1-495.2
						c0.1-1.2,1.2-2.1,2.5-2c1.2,0.1,2.1,1.2,2,2.5l-52.1,495.2C1275.6,960,1274.6,960.9,1273.5,960.9z"/>
					<path opacity="0.6" fill="#FFFFFF" d="M1257.8,959.2c-0.1,0-0.2,0-0.2,0c-1.2-0.1-2.1-1.2-2-2.5l52.1-495.2
						c0.1-1.2,1.2-2.1,2.5-2c1.2,0.1,2.1,1.2,2,2.5L1260,957.2C1259.9,958.4,1258.9,959.2,1257.8,959.2z"/>
					<path opacity="0.6" fill="#FFFFFF" d="M1242.1,957.6c-0.1,0-0.2,0-0.2,0c-1.2-0.1-2.1-1.2-2-2.5L1292,460
						c0.1-1.2,1.2-2.1,2.5-2c1.2,0.1,2.1,1.2,2,2.5l-52.1,495.2C1244.2,956.7,1243.3,957.6,1242.1,957.6z"/>
					<path opacity="0.6" fill="#FFFFFF" d="M1226.4,955.9c-0.1,0-0.2,0-0.2,0c-1.2-0.1-2.1-1.2-2-2.5l52.1-495.2
						c0.1-1.2,1.2-2.1,2.5-2c1.2,0.1,2.1,1.2,2,2.5l-52.1,495.2C1228.5,955.1,1227.6,955.9,1226.4,955.9z"/>
				</g>
				<g>
					
						<linearGradient id="SVGID_3_" gradientUnits="userSpaceOnUse" x1="7939.5186" y1="2082.2744" x2="7848.7495" y2="2772.7656" gradientTransform="matrix(-0.1047 0.9945 0.9945 0.1047 1546.5676 -7208.2783)">
						<stop  offset="0" style="stop-color:#4042E2"/>
						<stop  offset="1" style="stop-color:#4F52FF"/>
					</linearGradient>
					<path fill="url(#SVGID_3_)" d="M1534.7,1363.1l86.7-823.7c2.7-25.4-15.7-48.1-41.1-50.8L1451.2,475
						c-25.4-2.7-48.1,15.7-50.8,41.1l-86.7,823.7c-2.7,25.4,15.7,48.1,41.1,50.8l129.1,13.6
						C1509.2,1406.9,1532,1388.5,1534.7,1363.1z"/>
					<path fill="#7D97F4" d="M1579.3,694.9l9.9-93.7c0.4-3.8-2.4-7.2-6.2-7.6L1426.6,577c-3.8-0.4-7.2,2.4-7.6,6.2l-9.9,93.7
						c-0.4,3.8,2.4,7.2,6.2,7.6l156.4,16.5C1575.5,701.5,1578.9,698.7,1579.3,694.9z"/>
					<path fill="#7D97F4" d="M1573.3,752.4l3.1-29.1c0.3-3.1-1.9-5.9-5-6.2l-159-16.7c-3.1-0.3-5.9,1.9-6.2,5l-3.1,29.1
						c-0.3,3.1,1.9,5.9,5,6.2l159,16.7C1570.2,757.7,1573,755.5,1573.3,752.4z"/>
				</g>
			</g>
			<g>
				<linearGradient id="SVGID_4_" gradientUnits="userSpaceOnUse" x1="967.7521" y1="559.457" x2="827.6005" y2="989.051">
					<stop  offset="0" style="stop-color:#4042E2"/>
					<stop  offset="1" style="stop-color:#4F52FF"/>
				</linearGradient>
				<path fill="url(#SVGID_4_)" d="M1124.3,773.7c0,17-1.9,33.4-5.4,49.3v0.1c-4.6,20.5-11.9,40-21.6,58.1c-0.1,0-0.1,0.1-0.1,0.1
					c-20.9,38.7-52.8,70.6-91.4,91.6c-0.3,0.1-0.5,0.3-0.8,0.5c-11.2,6-23,11.1-35.3,15.2c-0.1,0-0.1,0.1-0.2,0.1
					c-22.5,7.5-46.7,11.6-71.7,11.6c-66.5,0-126.4-28.7-167.8-74.4c-36.4-40.2-58.6-93.4-58.6-152c0-10.1,0.7-20.1,1.9-29.9
					C683.8,664.4,735.5,598,806,566.8c0.7-0.3,1.4-0.7,2.1-1c27.4-11.9,57.9-18.5,89.7-18.5c2,0,3.9,0,5.8,0.1c0.7,0,1.5,0,2.1,0.1
					c51.8,3.2,93.4,23.8,108,31.9c2.5,1.4,4.1,2.4,5,2.9c0.2,0.1,0.4,0.3,0.6,0.4h0.1C1082.5,622.9,1124.3,693.4,1124.3,773.7z"/>
				<path fill="#91B3FA" d="M1019.4,582.7c-98.2,7.9-147.3,86.9-147.3,86.9s-2.3,6.4-6.8,11.6c-0.1,0-0.1,0.1-0.1,0.1
					c-2.2,2.6-5,4.8-8.4,5.9c0,0.1-0.1,0.1-0.1,0.1c-2.9,0.9-6,1-9.7-0.4c-10.4-6.5-18.2-19.1-24-33.7c-14.7-36.6-17-86.4-17-86.4
					c0.7-0.3,1.4-0.7,2.1-1c33-15.7,65.9-20,95.6-18.4c0.7,0,1.5,0,2.1,0.1c51.8,3.2,93.4,23.8,108,31.9c2.5,1.4,4.1,2.4,5,2.9
					C1019,582.4,1019.2,582.5,1019.4,582.7z"/>
				<path fill="#91B3FA" d="M815,677.6v36.4c-0.3,0.1-0.7,0.1-1,0.2c-67.3,12.9-82.2,188.6-84,211.5c-36.4-40.2-58.6-93.4-58.6-152
					c0-10.1,0.7-20.1,1.9-29.9c18.4-72.3,99.4-71,130-67.8C810.6,676.8,815,677.6,815,677.6z"/>
				<path fill="#91B3FA" d="M1118.9,823C1119,823.1,1118.9,823.1,1118.9,823c-4.6,20.6-11.9,40.1-21.6,58.1c-0.1,0-0.1,0.1-0.1,0.1
					c-23,31.1-57.5,69.9-91.4,91.6c-0.3,0.1-0.5,0.3-0.8,0.5c-12,7.6-23.9,13.1-35.3,15.2c-0.1,0-0.1,0.1-0.2,0.1
					c-0.1,0-0.3,0.1-0.5,0.1c-46.7-7.6-104.4-197.6-123.5-265.2c-4.2-14.8-6.6-23.7-6.6-23.7s0,0,17.7-12.5c2.5-1.7,5.2-3.7,8.4-6
					c0.1,0,0.1-0.1,0.1-0.1c3.6,0.5,7.3,1.1,10.9,1.6C1048.3,709.2,1102.8,793,1118.9,823z"/>
				<linearGradient id="SVGID_5_" gradientUnits="userSpaceOnUse" x1="801.7895" y1="686.7372" x2="876.3457" y2="686.7372">
					<stop  offset="0" style="stop-color:#4042E2"/>
					<stop  offset="1" style="stop-color:#4F52FF"/>
				</linearGradient>
				<circle fill="url(#SVGID_5_)" cx="839.1" cy="686.7" r="37.3"/>
			</g>
			<g>
				<g>
					<path fill="#7D97F4" d="M1319.8,608.7L1319.8,608.7c-71.7,55.6-171.3,58-245.6,6l-8.5-6c-4.2,5.1-85.7,89.8-131.7,194.3
						c-2.5,5.8-2,12.4,1.3,17.8c8,13,24.8,36.6,45.6,46.2c7.6,3.5,16.7,1.5,22.3-4.7c15.4-17.3,49.3-56.1,65.1-79.8
						c0,0-27.6,152.6-35.1,215c-2.2,18.7,10.8,35.8,29.4,38.8c90.8,14.4,178.4,16.5,261.4,1c18.2-3.4,30.6-20.2,28.4-38.6
						c-7.2-62.2-35.2-216.2-35.2-216.2c15.8,23.8,49.7,62.6,65.1,79.8c5.6,6.3,14.6,8.3,22.3,4.7c20.8-9.6,37.6-33.2,45.6-46.2
						c3.3-5.4,3.9-12,1.3-17.8C1405.4,698.5,1324,613.7,1319.8,608.7z"/>
					<g>
						<linearGradient id="SVGID_6_" gradientUnits="userSpaceOnUse" x1="1031.1616" y1="652.8784" x2="1360.1793" y2="652.8784">
							<stop  offset="0" style="stop-color:#DAE3FE"/>
							<stop  offset="1" style="stop-color:#E9EFFD"/>
						</linearGradient>
						<path fill="url(#SVGID_6_)" d="M1360.2,656c-22-27.7-38.6-45.1-40.4-47.3l0,0c-71.7,55.6-171.3,58-245.6,6l-8.5-6
							c-1.7,2-15.5,16.6-34.5,40C1070.1,677.3,1182.4,737.6,1360.2,656z"/>
						<path fill="#7D97F4" d="M1349.3,974.7c-3.6-25.1-8.6-56.6-13.7-86.8c-117.9,18.7-213.3,15.2-286.3,3.7
							c-5.1,30.2-10.1,61.4-13.5,85.9C1112.9,991.4,1217.3,996.8,1349.3,974.7z"/>
						<linearGradient id="SVGID_7_" gradientUnits="userSpaceOnUse" x1="938.0296" y1="773.793" x2="1441.7953" y2="773.793">
							<stop  offset="0" style="stop-color:#DAE3FE"/>
							<stop  offset="1" style="stop-color:#E9EFFD"/>
						</linearGradient>
						<path fill="url(#SVGID_7_)" d="M1323.2,815.8c-3.6-20.2-6-33.4-6-33.4c5.7,8.5,13.7,19,22.4,29.7
							c32.3-7.6,66.4-17.4,102.3-29.8c-12.4-25-26.4-48.6-40.5-69.9c-223.1,88-365.9,36.9-421.7,7.1c-14.7,22.7-29.2,47.9-41.5,74.5
							c21.3,9.6,54,21.7,97.9,30.2c12.3-14.7,24.5-30.2,32.4-42c0,0-3.4,18.9-8.2,46.1C1126.5,838.4,1214.4,839.5,1323.2,815.8z"/>
					</g>
				</g>
				<g>
					<linearGradient id="SVGID_8_" gradientUnits="userSpaceOnUse" x1="1203.5764" y1="-101.4067" x2="1199.5764" y2="198.593">
						<stop  offset="0" style="stop-color:#09005D"/>
						<stop  offset="1" style="stop-color:#1A0F91"/>
					</linearGradient>
					<path fill="url(#SVGID_8_)" d="M1063.6,626.4c-4.8,0-9.2-3.2-10.6-8c-1.6-5.8,1.8-11.9,7.6-13.6c4.5-1.3,111.1-30.6,265.5-8.5
						c6,0.9,10.2,6.4,9.3,12.4c-0.9,6-6.4,10.2-12.4,9.3c-149.8-21.4-255.4,7.6-256.4,7.9C1065.6,626.3,1064.6,626.4,1063.6,626.4z"
						/>
					<linearGradient id="SVGID_9_" gradientUnits="userSpaceOnUse" x1="1191.0865" y1="-101.5724" x2="1187.0865" y2="198.4281">
						<stop  offset="0" style="stop-color:#09005D"/>
						<stop  offset="1" style="stop-color:#1A0F91"/>
					</linearGradient>
					<path fill="url(#SVGID_9_)" d="M1178.4,610.2c-5.9,0-10.7-4.6-11-10.6c0-0.2-0.8-21.3-0.8-40.5c0-10.8,8.8-20.5,19.9-32.7
						c22.7-25,30-37.5,16.6-49.9c-7.7-7.1-15.1-10.2-22.6-9.4c-14.6,1.6-25.8,17.4-25.9,17.6c-3.4,5-10.3,6.2-15.3,2.8
						c-5-3.4-6.3-10.2-2.9-15.2c0.7-1,16.7-24.2,41.4-27c14.1-1.6,27.5,3.5,40.1,15.1c31.6,29.1,2.3,61.5-15.2,80.8
						c-5.3,5.9-13.4,14.8-14.2,18.2c0,18.7,0.8,39.2,0.8,39.4c0.2,6.1-4.5,11.2-10.6,11.4C1178.7,610.2,1178.5,610.2,1178.4,610.2z"
						/>
				</g>
			</g>
			<g>
				<g>
					<g>
						<linearGradient id="SVGID_10_" gradientUnits="userSpaceOnUse" x1="1459.7253" y1="1712.8153" x2="1684.7494" y2="802.493">
							<stop  offset="0" style="stop-color:#E1473D"/>
							<stop  offset="1" style="stop-color:#E9605A"/>
						</linearGradient>
						<path fill="url(#SVGID_10_)" d="M1503.3,828.6l-35.7,614.6l225.7-24.8c10.4-1.1,18.4-9.4,18.8-19.8l20.8-570H1503.3z"/>
						<linearGradient id="SVGID_11_" gradientUnits="userSpaceOnUse" x1="1075.9858" y1="855.4683" x2="1095.9863" y2="1463.4685">
							<stop  offset="0" style="stop-color:#FE7062"/>
							<stop  offset="1" style="stop-color:#FF928E"/>
						</linearGradient>
						<path fill="url(#SVGID_11_)" d="M648.7,868.4l25.7,530.6c0.9,18.6,16.2,33.3,34.8,33.5l758.3,10.1c9.4,0.1,18.3-3.5,25-10.2
							c6.7-6.6,10.3-15.7,10.3-25.1V827.6L648.7,868.4z"/>
						<linearGradient id="SVGID_12_" gradientUnits="userSpaceOnUse" x1="1565.8707" y1="681.2169" x2="1665.8705" y2="925.216">
							<stop  offset="0" style="stop-color:#FE7062"/>
							<stop  offset="1" style="stop-color:#FF928E"/>
						</linearGradient>
						<path fill="url(#SVGID_12_)" d="M1790.9,928.1l-44.6-99.5h-243.9l90.4,139.2c4.4,6.8,12.2,10.2,20.2,9.2l161.1-19.8
							c6.6-0.8,12.5-4.5,15.8-10.4C1793.3,941.1,1793.6,934.2,1790.9,928.1z"/>
						<linearGradient id="SVGID_13_" gradientUnits="userSpaceOnUse" x1="1302.2483" y1="589.8244" x2="1070.2485" y2="853.8242">
							<stop  offset="0" style="stop-color:#FE7062"/>
							<stop  offset="1" style="stop-color:#FF928E"/>
						</linearGradient>
						<path fill="url(#SVGID_13_)" d="M631.5,828.6l-66,118.9c-3.6,6.5-3.5,14.1,0.2,20.5c3.7,6.4,10.5,10.3,17.9,10.4l815,14.5
							c7.8,0.1,15.1-3.6,18.8-10.4l85-153.9H631.5z"/>
					</g>
					<path opacity="0.37" fill="#FFFFFF" d="M1147.1,1233.8c-3.6-16.1-17.9-27.1-34.4-27.1H1003c-19.5,0-35.7,14.8-35.7,34.3v196
						l225.3,2.4L1147.1,1233.8z"/>
					<path fill="#FFFFFF" d="M1065.9,1279.1c-0.4-5.6-5-9.5-10.6-9.5h-5.8c-2.9,0-5.7,0.7-7.7,2.8c-2,2.1-3.1,4.7-2.9,7.6l7.7,156.7
						l29.6,0.4L1065.9,1279.1z"/>
				</g>
			</g>
		</g>
		<g>
			
				<linearGradient id="SVGID_14_" gradientUnits="userSpaceOnUse" x1="96.8417" y1="1124.556" x2="157.6422" y2="1124.556" gradientTransform="matrix(1 0 0 1 395.7825 0)">
				<stop  offset="0" style="stop-color:#FF928E"/>
				<stop  offset="1" style="stop-color:#FEB3B1"/>
			</linearGradient>
			<path fill="url(#SVGID_14_)" d="M514.5,1093.2c-6.2,6.7-15.4,12.4-21.9,16c9.7,11.9,22.7,23.9,40,35.6l4.9,11.1l15.9-19
				C553.4,1136.9,525,1122.7,514.5,1093.2z"/>
			
				<linearGradient id="SVGID_15_" gradientUnits="userSpaceOnUse" x1="194.4945" y1="1133.8671" x2="186.9947" y2="1306.3584" gradientTransform="matrix(1 0 0 1 395.7825 0)">
				<stop  offset="0" style="stop-color:#09005D"/>
				<stop  offset="1" style="stop-color:#1A0F91"/>
			</linearGradient>
			<path fill="url(#SVGID_15_)" d="M599.3,1453.6c0-0.3,0-0.7-0.1-1c-5.1-20.4-30.6-33-30.6-33l-10.1,0.8
				c-5.8,17.9-5.1,28.9-4.1,33.8c0,0.1,0.1,0.3,0.1,0.4C562.8,1455.3,580,1455.8,599.3,1453.6z"/>
			
				<linearGradient id="SVGID_16_" gradientUnits="userSpaceOnUse" x1="181.1419" y1="1162.7217" x2="181.1419" y2="1420.7107" gradientTransform="matrix(1 0 0 1 395.7825 0)">
				<stop  offset="0" style="stop-color:#4042E2"/>
				<stop  offset="1" style="stop-color:#4F52FF"/>
			</linearGradient>
			<path fill="url(#SVGID_16_)" d="M554.5,1454.6c0.4,1.6,1.7,2.9,3.2,3.2c11.9,2.5,30.7,0.5,38.6-0.5c1.7-0.2,3-1.8,3-3.7
				C580,1455.8,562.8,1455.3,554.5,1454.6z"/>
			
				<linearGradient id="SVGID_17_" gradientUnits="userSpaceOnUse" x1="170.6542" y1="1385.4581" x2="161.9455" y2="1461.4618" gradientTransform="matrix(1 0 0 1 395.7825 0)">
				<stop  offset="0" style="stop-color:#FF928E"/>
				<stop  offset="1" style="stop-color:#FEB3B1"/>
			</linearGradient>
			<path fill="url(#SVGID_17_)" d="M554.5,1405.3l4.3,20.6c0.3,1.5,1.5,2.6,2.9,2.8c1.7,0.2,4.2,0.3,6.6-0.1c2.2-0.3,3.7-2.6,3.4-5
				l-3-18.3H554.5z"/>
			
				<linearGradient id="SVGID_18_" gradientUnits="userSpaceOnUse" x1="260.3528" y1="1162.7264" x2="260.3528" y2="1420.7112" gradientTransform="matrix(1 0 0 1 395.7825 0)">
				<stop  offset="0" style="stop-color:#4042E2"/>
				<stop  offset="1" style="stop-color:#4F52FF"/>
			</linearGradient>
			<path fill="url(#SVGID_18_)" d="M643.1,1454.4c-11.2-0.3-16.9-1.6-19.9-2.8c0,1.1,0,2.2,0,3.4c0,1.2,1,2.2,2.1,2.2l61.2-0.4
				c2,0,3.1-2.3,2.2-4.1C680.8,1453.4,660.3,1454.8,643.1,1454.4z"/>
			
				<linearGradient id="SVGID_19_" gradientUnits="userSpaceOnUse" x1="273.8675" y1="1137.3176" x2="266.3677" y2="1309.8092" gradientTransform="matrix(1 0 0 1 395.7825 0)">
				<stop  offset="0" style="stop-color:#09005D"/>
				<stop  offset="1" style="stop-color:#1A0F91"/>
			</linearGradient>
			<path fill="url(#SVGID_19_)" d="M688.8,1452.7c-0.1-0.2-0.1-0.3-0.2-0.5c-5.4-7.6-19.2-22.6-46.4-29.1l-13.1-0.4
				c0,0-5.8,10.1-5.9,28.8c3,1.2,8.8,2.5,19.9,2.8C660.3,1454.8,680.8,1453.4,688.8,1452.7z"/>
			
				<linearGradient id="SVGID_20_" gradientUnits="userSpaceOnUse" x1="241.5926" y1="1393.5868" x2="232.884" y2="1469.5894" gradientTransform="matrix(1 0 0 1 395.7825 0)">
				<stop  offset="0" style="stop-color:#FF928E"/>
				<stop  offset="1" style="stop-color:#FEB3B1"/>
			</linearGradient>
			<path fill="url(#SVGID_20_)" d="M626.7,1402.9c0.1,1,1.9,15.8,2.6,21.5c0.2,1.4,1.2,2.4,2.4,2.6c2.2,0.3,5.8,0.5,9-0.1
				c1.7-0.3,2.9-2,2.9-3.9v-23.2L626.7,1402.9z"/>
			
				<linearGradient id="SVGID_21_" gradientUnits="userSpaceOnUse" x1="118.8204" y1="1397.1106" x2="-159.714" y2="1829.3195" gradientTransform="matrix(1 0 0 1 395.7825 0)">
				<stop  offset="0" style="stop-color:#4042E2"/>
				<stop  offset="1" style="stop-color:#4F52FF"/>
			</linearGradient>
			<path fill="url(#SVGID_21_)" d="M616.2,1132.9c0,0,31.5,119.7,30.9,270.3c0,2.7-1.9,5.1-4.6,5.7c-4,0.8-9.8,1.8-14.6,1.7
				c-2.6-0.1-4.7-2-5.2-4.5c-4.4-25.9-29.8-171.8-44.2-195.5c0,0-9.5,129.9-6.5,197.4c0.1,1.7-1.2,3.1-2.8,3.3
				c-2.5,0.3-6.6,0.5-11.7,0c-2-0.2-3.5-1.7-3.8-3.6c-3.1-21.9-21.3-152.4-20.5-246.4c0-5.3,14-28.3,14-28.3H616.2z"/>
			
				<linearGradient id="SVGID_22_" gradientUnits="userSpaceOnUse" x1="-593.5987" y1="961.0875" x2="-638.3267" y2="1399.0459" gradientTransform="matrix(1 0 0 1 1163.5511 0)">
				<stop  offset="0" style="stop-color:#4042E2"/>
				<stop  offset="1" style="stop-color:#4F52FF"/>
			</linearGradient>
			<path fill="url(#SVGID_22_)" d="M660,988.1c-5.1-6.4-9.6-13.3-13.3-20.4c-5.2-9.9-0.4,6.4-1.9-4.8c-39.2-28.3-98.2-14-121-11.1
				c-7.5,0.9-14.3,4.6-19.3,10.3c-19.6,22.6-62.5,84.6-12,147c6.5-3.6,15.6-9.3,21.9-16c-5.6-15.8-6-35.9,5.7-60.6
				c0.4,2,0.9,3.9,1.5,5.8c16.1,51.1,17,93.7,17,103.5c0,1.3,0.8,2.5,2,3c21.2,8.5,62.1,3.4,75.9,1.4c2.5-0.4,4.2-2.7,3.9-5.2
				c-6.7-48.8,27.8-129.1,37-149.2C658,990.5,658.9,989.2,660,988.1z"/>
			<linearGradient id="SVGID_23_" gradientUnits="userSpaceOnUse" x1="576.7775" y1="877.3334" x2="576.7775" y2="991.3334">
				<stop  offset="0" style="stop-color:#FF928E"/>
				<stop  offset="1" style="stop-color:#FEB3B1"/>
			</linearGradient>
			<path fill="url(#SVGID_23_)" d="M560.6,910.8l-4.1,41.8c0,0,23.5,7.1,40.6-5l-12-38L560.6,910.8z"/>
			<g>
				<linearGradient id="SVGID_24_" gradientUnits="userSpaceOnUse" x1="627.9282" y1="821.9109" x2="591.2616" y2="883.9106">
					<stop  offset="0" style="stop-color:#FF928E"/>
					<stop  offset="1" style="stop-color:#FEB3B1"/>
				</linearGradient>
				<path fill="url(#SVGID_24_)" d="M587.9,863.1c0.6,0.5,23.9,46.4,23.9,46.4l-26.4,12.8l-28.6-40.1
					C556.7,882.1,578.4,854.2,587.9,863.1z"/>
				
					<linearGradient id="SVGID_25_" gradientUnits="userSpaceOnUse" x1="-1463.6259" y1="-1011.1259" x2="-1393.1589" y2="-1011.1259" gradientTransform="matrix(0.6854 -0.7281 0.7281 0.6854 2302.3018 544.7815)">
					<stop  offset="0" style="stop-color:#09005D"/>
					<stop  offset="1" style="stop-color:#1A0F91"/>
				</linearGradient>
				<path fill="url(#SVGID_25_)" d="M568.4,883.2c-0.5,1.2-0.4,2.6,0.3,3.7l13.2,22c0.2,0.3,0.4,0.6,0.7,0.9
					c1.6,1.5,6.9,5.7,11.1-0.1c3.5-4.9,6.9-9.4,10.4-11.3c2.1-1.1,4.6-0.2,5.7,1.9c2.2,4.3,6.4,13.1,9,21.4c0.7,2.1-0.4,4.3-2.4,5.1
					c-5.4,2.2-15.9,6.1-25.3,7.4c-1.5,0.2-3.1-0.4-4-1.7c-4-5.5-15.4-21-19.3-24.9c-3.6-3.6-10.3-2.2-13.3-1.4
					c-1.1,0.3-2.4,0.2-3.4-0.4c-3-1.8-8.4-6.4-3.5-14.1c1.2-1.9,0.6-4.5-1.3-5.7c-3.4-2.2-7.1-6.4-3.6-13.2c3.6-6.9,9.9-7.5,14.2-7
					c1.9,0.2,3.9-0.8,4.6-2.6c0.3-0.8,1-1.5,2.2-1.7c2.3-0.5,3.8-2.5,3.3-4.8c-0.8-3.9-0.2-9,6-12.4c11.4-6.3,21.4,3.9,23.9,12.6
					c2.5,8.6-10.2,14.7-18.2,15.7C573,873.4,569.7,879.8,568.4,883.2z"/>
				
					<linearGradient id="SVGID_26_" gradientUnits="userSpaceOnUse" x1="-1504.9729" y1="-968.0647" x2="-1457.6565" y2="-1016.61" gradientTransform="matrix(0.6854 -0.7281 0.7281 0.6854 2302.3018 544.7815)">
					<stop  offset="0" style="stop-color:#FF928E"/>
					<stop  offset="1" style="stop-color:#FEB3B1"/>
				</linearGradient>
				<path fill="url(#SVGID_26_)" d="M572.8,915.8c0,0-5.1-14.8-11.6-14.3c-6.5,0.5-11.6,7-3.6,14.3
					C567.7,924.8,572.8,915.8,572.8,915.8z"/>
			</g>
			<linearGradient id="SVGID_27_" gradientUnits="userSpaceOnUse" x1="554.5272" y1="932.7725" x2="531.1939" y2="975.4391">
				<stop  offset="0" style="stop-color:#09005D"/>
				<stop  offset="1" style="stop-color:#1A0F91"/>
			</linearGradient>
			<path fill="url(#SVGID_27_)" d="M518,1028.8c-8.6-23.4-5.5-51.7-5.4-52l2.4,0.3c0,0.3-3.1,28,5.3,50.9L518,1028.8z"/>
			<linearGradient id="SVGID_28_" gradientUnits="userSpaceOnUse" x1="622.9017" y1="977.4122" x2="588.4033" y2="1109.4059">
				<stop  offset="0" style="stop-color:#09005D"/>
				<stop  offset="1" style="stop-color:#1A0F91"/>
			</linearGradient>
			<path fill="url(#SVGID_28_)" d="M577.4,1207.6c-0.5,0-1-0.4-1.1-0.9c-2.6-10.1-22.2-21.1-22.4-21.3c-0.6-0.3-0.8-1-0.5-1.6
				c0.3-0.6,1-0.8,1.6-0.5c0.8,0.5,20.6,11.7,23.5,22.7c0.2,0.6-0.2,1.3-0.9,1.4C577.6,1207.6,577.5,1207.6,577.4,1207.6z"/>
			<g>
				
					<linearGradient id="SVGID_29_" gradientUnits="userSpaceOnUse" x1="-491.6877" y1="970.8107" x2="-539.5656" y2="1439.6123" gradientTransform="matrix(1 0 0 1 1163.5511 0)">
					<stop  offset="0" style="stop-color:#4042E2"/>
					<stop  offset="1" style="stop-color:#4F52FF"/>
				</linearGradient>
				<path fill="url(#SVGID_29_)" d="M739.5,1001.2c-44.3,6.6-73.2-21.3-94.7-38.3c-28.4-22.4-50.5-11.5-50.5-11.5l30.3,57.8
					c45.2,42.7,91.6,33.2,120.9,19.4C745.9,1017.5,743,1008.1,739.5,1001.2z"/>
				
					<linearGradient id="SVGID_30_" gradientUnits="userSpaceOnUse" x1="-307.7781" y1="397.0313" x2="-343.7781" y2="649.0314" gradientTransform="matrix(1 0 0 1 1163.5511 0)">
					<stop  offset="0" style="stop-color:#FF928E"/>
					<stop  offset="1" style="stop-color:#FEB3B1"/>
				</linearGradient>
				<path fill="url(#SVGID_30_)" d="M801.8,974.8l-14.7,7.9c-17.6,10.7-33.4,16.4-47.6,18.5c3.4,6.9,6.4,16.3,6,27.4
					c18.6-8.8,30.3-19.4,30.3-19.4C809.1,989.4,801.8,974.8,801.8,974.8z"/>
			</g>
			
				<linearGradient id="SVGID_31_" gradientUnits="userSpaceOnUse" x1="-264.1577" y1="403.2608" x2="-300.1577" y2="655.2609" gradientTransform="matrix(1 0 0 1 1163.5511 0)">
				<stop  offset="0" style="stop-color:#FF928E"/>
				<stop  offset="1" style="stop-color:#FEB3B1"/>
			</linearGradient>
			<path fill="url(#SVGID_31_)" d="M845.1,995.5c-0.9-3.2-3.3-5.7-6.3-6.9l-29.8-12c0,0-0.5-3.8,6.3-6.4c6.8-2.6,5.2-10.2,5.2-10.2
				s-9.2,4.2-22.7,10.9c-7.7,3.8-12.1,10.6-14.4,15.6l7.7,10.1c18.4,5.5,37,6.6,55.7,4.4L845.1,995.5z"/>
		</g>
		<g>
			
				<linearGradient id="SVGID_32_" gradientUnits="userSpaceOnUse" x1="-94.5519" y1="1062.8807" x2="-166.5375" y2="1062.8807" gradientTransform="matrix(-1 0 0 1 311.3 0)">
				<stop  offset="0" style="stop-color:#FF928E"/>
				<stop  offset="1" style="stop-color:#FEB3B1"/>
			</linearGradient>
			<path fill="url(#SVGID_32_)" d="M477.8,1048.1c0,0-26.7,61.7-43.2,53.5c-16.5-8.2-28.8-76.1-28.8-76.1S457.3,1013.2,477.8,1048.1
				z"/>
			
				<linearGradient id="SVGID_33_" gradientUnits="userSpaceOnUse" x1="1249.1724" y1="1320.9753" x2="1250.7115" y2="1490.2712" gradientTransform="matrix(1 0 0 1 -830.9982 0)">
				<stop  offset="0" style="stop-color:#09005D"/>
				<stop  offset="1" style="stop-color:#1A0F91"/>
			</linearGradient>
			<path fill="url(#SVGID_33_)" d="M384.7,1431c0,0-2.2,12.7-3.3,25.2c-0.4,4.9,3.3,9.1,8.3,9.4c16.7,0.7,52.4,2,65.2,1.5
				c1.9-0.1,3.2-2.1,2.5-3.8l0,0c-0.6-1.5-1.7-2.7-3.2-3.4l-58.9-27.1L384.7,1431z"/>
			
				<linearGradient id="SVGID_34_" gradientUnits="userSpaceOnUse" x1="1213.9111" y1="1430.9763" x2="1233.0826" y2="1430.9763" gradientTransform="matrix(1 0 0 1 -830.9982 0)">
				<stop  offset="0" style="stop-color:#FF928E"/>
				<stop  offset="1" style="stop-color:#FEB3B1"/>
			</linearGradient>
			<path fill="url(#SVGID_34_)" d="M382.9,1423.6l1.8,15.1c0,0,10.3,4.8,17.4-0.6l-4.3-16.9L382.9,1423.6z"/>
			
				<linearGradient id="SVGID_35_" gradientUnits="userSpaceOnUse" x1="1192.2496" y1="1503.9231" x2="1205.3344" y2="1152.8252" gradientTransform="matrix(1 0 0 1 -830.9982 0)">
				<stop  offset="0" style="stop-color:#09005D"/>
				<stop  offset="1" style="stop-color:#1A0F91"/>
			</linearGradient>
			<path fill="url(#SVGID_35_)" d="M384.3,1139c-0.8,4-4.2,197.2,16.5,283.9c0.3,1.4-0.4,2.9-1.7,3.4c-3.2,1.3-9.4,3.2-16.8,3.4
				c-2.3,0.1-4.4-1.4-5-3.6c-5.9-20.1-34.2-120.8-37.9-217c-4.1-107.5,0-3.7,0-3.7l2.4-66.4L384.3,1139z"/>
			
				<linearGradient id="SVGID_36_" gradientUnits="userSpaceOnUse" x1="1154.9304" y1="1321.8336" x2="1156.4696" y2="1491.1278" gradientTransform="matrix(1 0 0 1 -830.9982 0)">
				<stop  offset="0" style="stop-color:#09005D"/>
				<stop  offset="1" style="stop-color:#1A0F91"/>
			</linearGradient>
			<path fill="url(#SVGID_36_)" d="M316.9,1437.6c0,0-3.6,6.4-7,23.4c-0.6,3.1,1.5,6,4.6,6.3c5.5,0.5,14,1.2,20.8,1.2
				c3.1,0,5.6-2.7,5.2-5.9c-0.8-6.2-3.1-16.4-10.3-24.3L316.9,1437.6z"/>
			
				<linearGradient id="SVGID_37_" gradientUnits="userSpaceOnUse" x1="1144.8177" y1="1429.9933" x2="1161.3707" y2="1429.9933" gradientTransform="matrix(1 0 0 1 -830.9982 0)">
				<stop  offset="0" style="stop-color:#FF928E"/>
				<stop  offset="1" style="stop-color:#FEB3B1"/>
			</linearGradient>
			<path fill="url(#SVGID_37_)" d="M313.8,1418.2l4.2,22.9c0,0,4.1,3.1,12.4,0.8l-2-24.6L313.8,1418.2z"/>
			
				<linearGradient id="SVGID_38_" gradientUnits="userSpaceOnUse" x1="1159.8893" y1="1502.717" x2="1172.9739" y2="1151.6201" gradientTransform="matrix(1 0 0 1 -830.9982 0)">
				<stop  offset="0" style="stop-color:#09005D"/>
				<stop  offset="1" style="stop-color:#1A0F91"/>
			</linearGradient>
			<path fill="url(#SVGID_38_)" d="M302.5,1145c-16.9,102,3.7,252.1,10.6,281.4c0.4,1.8,1.9,3.2,3.7,3.5c3.1,0.5,8.2,0.9,13.2-0.5
				c1.7-0.5,2.9-2.1,3-3.9c0.9-23.7-0.7-169.5,15-227.2c0.8-2.9,2.6-5.5,5-7.2l30.6-21.7l2.3-35.1L302.5,1145z"/>
			<g>
				
					<linearGradient id="SVGID_39_" gradientUnits="userSpaceOnUse" x1="-60.2002" y1="984.4739" x2="39.3966" y2="1246.4907" gradientTransform="matrix(-1 0 0 1 311.3 0)">
					<stop  offset="0" style="stop-color:#FE7062"/>
					<stop  offset="1" style="stop-color:#FF928E"/>
				</linearGradient>
				<path fill="url(#SVGID_39_)" d="M412,955.6c-61.7-6.2-108.4,9.4-108.4,9.4c-15.1,88.1-2.6,189.7-2.6,189.7
					c39.2,10.3,83.4-6.3,83.4-6.3c6.5-36.8,36.9-140.4,36.9-140.4C446.1,1004.9,427.6,957.1,412,955.6z"/>
			</g>
			
				<linearGradient id="SVGID_40_" gradientUnits="userSpaceOnUse" x1="1.3635" y1="961.0724" x2="100.96" y2="1223.0886" gradientTransform="matrix(-1 0 0 1 311.3 0)">
				<stop  offset="0" style="stop-color:#FE7062"/>
				<stop  offset="1" style="stop-color:#FF928E"/>
			</linearGradient>
			<path fill="url(#SVGID_40_)" d="M323.1,1014.1l-19.4-49c0,0-47.3,32.1-55.1,72.9c8.9,0.7,25.2,3,41.1,11
				C293.2,1029.7,323.1,1014.1,323.1,1014.1z"/>
			<linearGradient id="SVGID_41_" gradientUnits="userSpaceOnUse" x1="334.1997" y1="1031.1268" x2="279.5329" y2="1089.1268">
				<stop  offset="0" style="stop-color:#FF928E"/>
				<stop  offset="1" style="stop-color:#FEB3B1"/>
			</linearGradient>
			<path fill="url(#SVGID_41_)" d="M368.5,1060.2c0,0-53.1,30-71,4.4c-3.7-5.3-8.3-12.4-7.4-17.4c-15.9-8-32-11.1-41-11.8
				c-2.3,12.3,2.5,27.9,9.7,41.1c31.4,57.4,116.8-3.2,116.8-3.2L368.5,1060.2z"/>
			<g>
				<linearGradient id="SVGID_42_" gradientUnits="userSpaceOnUse" x1="489.2172" y1="842.4205" x2="465.2173" y2="921.4205">
					<stop  offset="0" style="stop-color:#09005D"/>
					<stop  offset="1" style="stop-color:#1A0F91"/>
				</linearGradient>
				<path fill="url(#SVGID_42_)" d="M362.1,1098.2l29-101.2c0.3-1.1,1.3-2,2.5-2.1c5.3-0.6,20.5-2.3,38-3.8
					c21.2-1.8,45.7-3.2,60.4-2c2.1,0.2,3.3,2.4,2.4,4.3c-8.4,16.9-42.7,85.6-59.9,108.1c-0.6,0.7-1.5,1.2-2.4,1.2L365,1102
					C363,1101.9,361.6,1100.1,362.1,1098.2z"/>
				
					<linearGradient id="SVGID_43_" gradientUnits="userSpaceOnUse" x1="1286.7123" y1="936.6692" x2="1272.1974" y2="1000.4083" gradientTransform="matrix(1 0 0 1 -830.9982 0)">
					<stop  offset="0" style="stop-color:#4042E2"/>
					<stop  offset="1" style="stop-color:#4F52FF"/>
				</linearGradient>
				<path fill="url(#SVGID_43_)" d="M434.7,982.2l21-3.5c1.1-0.2,2,0.9,1.7,2l-2.1,6.3c-0.2,0.5-0.7,0.9-1.2,1l-20.2,2.7
					c-1,0.1-1.9-0.8-1.7-1.8l1.3-5.5C433.6,982.8,434.1,982.3,434.7,982.2z"/>
				<linearGradient id="SVGID_44_" gradientUnits="userSpaceOnUse" x1="459.3181" y1="962.6484" x2="415.3184" y2="1047.3147">
					<stop  offset="0" style="stop-color:#4042E2"/>
					<stop  offset="1" style="stop-color:#4F52FF"/>
				</linearGradient>
				<path fill="url(#SVGID_44_)" d="M418.9,1000l1.7-9c0.2-0.9,0.9-1.6,1.8-1.7l42.4-4.3c1.4-0.1,2.6,1.2,2.2,2.6l-2.7,11.2
					c-0.2,0.9-1,1.5-1.9,1.6l-41.5,2.1C419.7,1002.6,418.7,1001.4,418.9,1000z"/>
				<linearGradient id="SVGID_45_" gradientUnits="userSpaceOnUse" x1="454.249" y1="941.8976" x2="420.2491" y2="995.8976">
					<stop  offset="0" style="stop-color:#FF928E"/>
					<stop  offset="1" style="stop-color:#FEB3B1"/>
				</linearGradient>
				<path fill="url(#SVGID_45_)" d="M369.1,1073.7c0,0-4-16.6-2.4-22.5c1.6-5.9,4.8-13.5,15.3-11.8c10.5,1.7,22.9,6.1,22.9,6.1
					s-0.6,7.7-8.6,5.2l5,3.8c0,0-0.7,6.1-7.5,2.9l4.6,5.1c0,0-2.9,5-7.9,1.8C385.6,1061.1,383.2,1075.7,369.1,1073.7z"/>
				
					<linearGradient id="SVGID_46_" gradientUnits="userSpaceOnUse" x1="-330.8388" y1="587.5621" x2="-292.2223" y2="587.5621" gradientTransform="matrix(-0.8472 -0.5312 -0.5312 0.8472 520.2164 362.4392)">
					<stop  offset="0" style="stop-color:#FF928E"/>
					<stop  offset="1" style="stop-color:#FEB3B1"/>
				</linearGradient>
				<path fill="url(#SVGID_46_)" d="M476.9,1049c0,0,12.2-11.9,14-17.8c1.7-5.9,3.1-13.9-6.7-18.1c-9.8-4.2-22.7-7-22.7-7
					s-3.5,6.8,4.5,9l-6.2,0.6c0,0-2.7,5.6,4.8,6.4l-6.6,1.9c0,0-0.2,5.8,5.7,5.7C469.6,1029.6,463.9,1043.2,476.9,1049z"/>
			</g>
			<linearGradient id="SVGID_47_" gradientUnits="userSpaceOnUse" x1="393.326" y1="859.8961" x2="358.8276" y2="1009.8887">
				<stop  offset="0" style="stop-color:#FF928E"/>
				<stop  offset="1" style="stop-color:#FEB3B1"/>
			</linearGradient>
			<path fill="url(#SVGID_47_)" d="M365,914.4L348.9,961c-0.3,0.8,0.1,1.6,0.8,2c4.4,2.4,20.2,9.4,39.3-2.6c2-1.3,3.3-3.3,3.6-5.6
				l5.2-40.3H365z"/>
			<g>
				
					<linearGradient id="SVGID_48_" gradientUnits="userSpaceOnUse" x1="-2545.2605" y1="1811.8055" x2="-2588.5938" y2="1756.4722" gradientTransform="matrix(0.746 -0.6659 0.6659 0.746 4824.2422 -1476.3188)">
					<stop  offset="0" style="stop-color:#FF928E"/>
					<stop  offset="1" style="stop-color:#FEB3B1"/>
				</linearGradient>
				<path fill="url(#SVGID_48_)" d="M400.1,871.3c0,0,17.7,33.3,15.4,46.8c-2.3,13.5-24.2,12.5-43.3,1.6l-13.4-36L400.1,871.3z"/>
				
					<linearGradient id="SVGID_49_" gradientUnits="userSpaceOnUse" x1="-4899.0767" y1="-1265.1221" x2="-4883.7583" y2="-1177.7507" gradientTransform="matrix(0.746 -0.6659 0.6659 0.746 4824.2422 -1476.3188)">
					<stop  offset="0" style="stop-color:#09005D"/>
					<stop  offset="1" style="stop-color:#1A0F91"/>
				</linearGradient>
				<path fill="url(#SVGID_49_)" d="M373,902c0.8-0.3,1.1-1.3,0.6-2c-1.4-2.2-4.1-6.6-4.9-10.5c0,0-3.2-2,8.1-4.7
					c11.3-2.7,28.1-6.9,31.6-16.5c3.4-9.4-5.6-32.9-20.1-14.1c-0.5,0.7-1.6,0.7-2.2,0c-2.4-3.1-8.6-9.5-17.2-5.6
					c-8.1,3.6-9,9.6-8.9,12.5c0,0.9-0.8,1.6-1.6,1.4c-4.1-0.8-13.9-1.5-18.5,8.6c-3.8,8.3-1.3,13,0.9,15.3c0.7,0.7,0.4,2-0.6,2.3
					c-2.7,0.8-6.2,3.1-5.8,9.4c0.5,8.7,10.2,7.9,13,7.5c0.5-0.1,0.9,0.1,1.2,0.4c2.4,2.6,13.1,13.8,24.7,15.1c1,0.1,1.8-0.9,1.5-1.8
					l-5-14.6c-0.2-0.7,0.1-1.4,0.7-1.7L373,902z"/>
				
					<linearGradient id="SVGID_50_" gradientUnits="userSpaceOnUse" x1="-2553.9753" y1="1818.6283" x2="-2597.3086" y2="1763.295" gradientTransform="matrix(0.746 -0.6659 0.6659 0.746 4824.2422 -1476.3188)">
					<stop  offset="0" style="stop-color:#FF928E"/>
					<stop  offset="1" style="stop-color:#FEB3B1"/>
				</linearGradient>
				<path fill="url(#SVGID_50_)" d="M375,904c0,0-12.6-8.6-13.5-1.4c-0.9,7.3,11.3,10.5,17.4,7.8L375,904z"/>
			</g>
		</g>
		<g>
			<g>
				<g>
					<linearGradient id="SVGID_51_" gradientUnits="userSpaceOnUse" x1="1869.8755" y1="856.0698" x2="1944.2019" y2="769.7981">
						<stop  offset="0" style="stop-color:#FE7062"/>
						<stop  offset="1" style="stop-color:#FF928E"/>
					</linearGradient>
					<circle fill="url(#SVGID_51_)" cx="1945.7" cy="768.1" r="55.4"/>
					<linearGradient id="SVGID_52_" gradientUnits="userSpaceOnUse" x1="1986.2012" y1="706.8747" x2="1766.4159" y2="1038.9075">
						<stop  offset="0" style="stop-color:#FE7062"/>
						<stop  offset="1" style="stop-color:#FF928E"/>
					</linearGradient>
					<circle fill="url(#SVGID_52_)" cx="1945.7" cy="768.1" r="53.6"/>
					<path opacity="0.71" fill="#FFFFFF" d="M1901.5,748.1c-0.3,0-0.7-0.1-1-0.2c-1.1-0.6-1.6-1.9-1-3c8.9-17.5,26.5-28.4,46.2-28.4
						c3.1,0,6.3,0.3,9.3,0.8c1.2,0.2,2,1.4,1.8,2.6c-0.2,1.2-1.4,2-2.6,1.8c-2.8-0.5-5.7-0.8-8.5-0.8c-17.9,0-34.1,9.9-42.2,26
						C1903.1,747.6,1902.3,748.1,1901.5,748.1z"/>
					<circle opacity="0.71" fill="#FFFFFF" cx="1946.9" cy="769.2" r="45.3"/>
					<g>
						<linearGradient id="SVGID_53_" gradientUnits="userSpaceOnUse" x1="1979.6448" y1="716.3885" x2="1862.6138" y2="912.8641">
							<stop  offset="0" style="stop-color:#FE7062"/>
							<stop  offset="1" style="stop-color:#FF928E"/>
						</linearGradient>
						<path fill="url(#SVGID_53_)" d="M1942.4,802.9V798c-5.1-0.2-10.2-1.4-13.8-3c-1.3-0.6-1.9-2-1.6-3.4l1.3-4.6
							c0.5-1.7,2.3-2.6,3.9-1.9c3.6,1.5,8,2.7,12.8,2.7c5,0,8.6-1.7,8.6-5.1c0-3.1-2.9-5-9.7-6.8c-9.8-2.7-16.9-7-16.9-15.6
							c0-7.8,5.7-13.8,15.6-15.4V740c0-1.6,1.3-2.9,2.9-2.9h2.9c1.6,0,2.9,1.3,2.9,2.9v4.4c4.8,0.2,8.2,1,11,2
							c1.4,0.5,2.2,2,1.8,3.5l-1.2,4.2c-0.4,1.6-2.2,2.5-3.8,1.9c-2.5-1-6.1-2-10.8-2c-5.9,0-7.6,2.4-7.6,4.6
							c0,2.7,3.5,4.5,11.2,6.9c10.9,3.3,15.4,7.8,15.4,16c0,7.5-5.5,14.2-16.3,15.9v5.5c0,1.6-1.3,2.9-2.9,2.9h-2.9
							C1943.7,805.8,1942.4,804.5,1942.4,802.9z"/>
					</g>
				</g>
				<g>
					<linearGradient id="SVGID_54_" gradientUnits="userSpaceOnUse" x1="1698.8027" y1="979.3406" x2="1806.0017" y2="854.9133">
						<stop  offset="0" style="stop-color:#E1473D"/>
						<stop  offset="1" style="stop-color:#E9605A"/>
					</linearGradient>
					<circle fill="url(#SVGID_54_)" cx="1808.2" cy="852.4" r="79.9"/>
					<linearGradient id="SVGID_55_" gradientUnits="userSpaceOnUse" x1="1866.5762" y1="764.1605" x2="1549.5861" y2="1243.0422">
						<stop  offset="0" style="stop-color:#FE7062"/>
						<stop  offset="1" style="stop-color:#FF928E"/>
					</linearGradient>
					<circle fill="url(#SVGID_55_)" cx="1808.2" cy="852.4" r="77.3"/>
					<path opacity="0.71" fill="#FFFFFF" d="M1744.5,822.6c-0.3,0-0.7-0.1-1-0.2c-1.1-0.6-1.6-1.9-1-3c12.6-25,37.8-40.5,65.7-40.5
						c4.5,0,8.9,0.4,13.3,1.2c1.2,0.2,2,1.4,1.8,2.6s-1.4,2-2.6,1.8c-4.1-0.7-8.3-1.1-12.5-1.1c-26.2,0-49.9,14.6-61.7,38
						C1746.1,822.1,1745.3,822.6,1744.5,822.6z"/>
					<circle opacity="0.71" fill="#FFFFFF" cx="1809.9" cy="854.1" r="65.4"/>
					<g>
						<linearGradient id="SVGID_56_" gradientUnits="userSpaceOnUse" x1="1857.1201" y1="777.8818" x2="1688.3291" y2="1061.2539">
							<stop  offset="0" style="stop-color:#FE7062"/>
							<stop  offset="1" style="stop-color:#FF928E"/>
						</linearGradient>
						<path fill="url(#SVGID_56_)" d="M1803.4,902.7v-7.1c-7.4-0.3-14.8-2-20-4.3c-1.9-0.8-2.8-2.9-2.3-4.9l1.8-6.6
							c0.7-2.4,3.3-3.7,5.6-2.7c5.2,2.2,11.6,3.9,18.4,3.9c7.1,0,12.5-2.4,12.5-7.4c0-4.5-4.1-7.1-14-9.8
							c-14.2-3.9-24.3-10-24.3-22.5c0-11.3,8.2-19.9,22.5-22.2v-7.1c0-2.3,1.9-4.1,4.1-4.1h4.2c2.3,0,4.1,1.9,4.1,4.1v6.4
							c6.9,0.3,11.9,1.4,15.8,2.8c2,0.7,3.1,2.9,2.6,5l-1.7,6.1c-0.6,2.4-3.2,3.7-5.5,2.8c-3.7-1.4-8.8-2.8-15.5-2.8
							c-8.5,0-10.9,3.5-10.9,6.7c0,3.9,5.1,6.5,16.1,9.9c15.7,4.7,22.3,11.3,22.3,23c0,10.8-8,20.5-23.5,22.9v8
							c0,2.3-1.9,4.1-4.1,4.1h-4.2C1805.3,906.8,1803.4,905,1803.4,902.7z"/>
					</g>
				</g>
				<g>
					<linearGradient id="SVGID_57_" gradientUnits="userSpaceOnUse" x1="1857.0439" y1="1076.995" x2="1954.5947" y2="963.7665">
						<stop  offset="0" style="stop-color:#E1473D"/>
						<stop  offset="1" style="stop-color:#E9605A"/>
					</linearGradient>
					<circle fill="url(#SVGID_57_)" cx="1956.6" cy="961.5" r="72.7"/>
					<linearGradient id="SVGID_58_" gradientUnits="userSpaceOnUse" x1="2009.7172" y1="881.1818" x2="1721.2571" y2="1316.9629">
						<stop  offset="0" style="stop-color:#FE7062"/>
						<stop  offset="1" style="stop-color:#FF928E"/>
					</linearGradient>
					<circle fill="url(#SVGID_58_)" cx="1956.6" cy="961.5" r="70.3"/>
					<path opacity="0.71" fill="#FFFFFF" d="M1898.6,934.5c-0.3,0-0.7-0.1-1-0.2c-1.1-0.6-1.6-1.9-1-3c11.5-22.8,34.5-36.9,60-36.9
						c4.1,0,8.1,0.4,12.1,1.1c1.2,0.2,2,1.4,1.8,2.6c-0.2,1.2-1.4,2-2.6,1.8c-3.7-0.7-7.5-1-11.3-1c-23.8,0-45.2,13.2-56,34.5
						C1900.2,934.1,1899.4,934.5,1898.6,934.5z"/>
					<circle opacity="0.71" fill="#FFFFFF" cx="1958.1" cy="963" r="59.5"/>
					<g>
						<linearGradient id="SVGID_59_" gradientUnits="userSpaceOnUse" x1="2001.1122" y1="893.6683" x2="1847.5132" y2="1151.5358">
							<stop  offset="0" style="stop-color:#FE7062"/>
							<stop  offset="1" style="stop-color:#FF928E"/>
						</linearGradient>
						<path fill="url(#SVGID_59_)" d="M1952.3,1007.3v-6.5c-6.7-0.3-13.4-1.9-18.2-3.9c-1.7-0.7-2.6-2.6-2.1-4.4l1.6-6
							c0.6-2.2,3-3.4,5.1-2.5c4.7,2,10.5,3.5,16.8,3.5c6.5,0,11.3-2.2,11.3-6.7c0-4.1-3.7-6.5-12.8-8.9
							c-12.9-3.5-22.1-9.1-22.1-20.5c0-10.2,7.5-18.1,20.5-20.2v-6.5c0-2.1,1.7-3.8,3.8-3.8h3.8c2.1,0,3.8,1.7,3.8,3.8v5.8
							c6.2,0.3,10.8,1.3,14.4,2.6c1.8,0.6,2.9,2.6,2.3,4.5l-1.5,5.6c-0.6,2.2-2.9,3.3-5,2.5c-3.3-1.3-8-2.6-14.1-2.6
							c-7.7,0-9.9,3.2-9.9,6.1c0,3.5,4.6,5.9,14.7,9c14.3,4.3,20.3,10.2,20.3,20.9c0,9.8-7.3,18.6-21.4,20.8v7.2
							c0,2.1-1.7,3.8-3.8,3.8h-3.8C1953.9,1011,1952.3,1009.3,1952.3,1007.3z"/>
					</g>
				</g>
			</g>
			<g>
				<g>
					<g>
						<linearGradient id="SVGID_60_" gradientUnits="userSpaceOnUse" x1="1748.5367" y1="1276.5631" x2="2099.5681" y2="1276.5631">
							<stop  offset="0" style="stop-color:#4042E2"/>
							<stop  offset="1" style="stop-color:#4F52FF"/>
						</linearGradient>
						<path fill="url(#SVGID_60_)" d="M2061.3,1117.9h-274.5c-21.1,0-38.3,17.1-38.3,38.3v240.8c0,21.1,17.1,38.3,38.3,38.3h274.5
							c21.1,0,38.3-17.1,38.3-38.3v-240.8C2099.6,1135.1,2082.4,1117.9,2061.3,1117.9z"/>
						<linearGradient id="SVGID_61_" gradientUnits="userSpaceOnUse" x1="1905.969" y1="1190.0565" x2="1938.0823" y2="1060.144">
							<stop  offset="0" style="stop-color:#4042E2"/>
							<stop  offset="1" style="stop-color:#4F52FF"/>
						</linearGradient>
						<rect x="1780" y="1095.4" fill="url(#SVGID_61_)" width="292.5" height="24.8"/>
					</g>
					<linearGradient id="SVGID_62_" gradientUnits="userSpaceOnUse" x1="1918.4369" y1="934.9829" x2="1924.437" y2="1091.9833">
						<stop  offset="0" style="stop-color:#09005D"/>
						<stop  offset="1" style="stop-color:#1A0F91"/>
					</linearGradient>
					<path fill="url(#SVGID_62_)" d="M2068.8,1059.4h-289.4c-7.1,0-12.8,5.7-12.8,12.8v19.4c0,7.1,5.7,12.8,12.8,12.8h289.4
						c7.1,0,12.8-5.7,12.8-12.8v-19.4C2081.6,1065.1,2075.8,1059.4,2068.8,1059.4z"/>
					<path fill="#BDD0FB" d="M1781.8,1099.8c0,0.6-0.5,1.1-1.1,1.1l0,0c-0.6,0-1.1-0.5-1.1-1.1V1066c0-0.6,0.5-1.1,1.1-1.1l0,0
						c0.6,0,1.1,0.5,1.1,1.1V1099.8z"/>
					<path fill="#BDD0FB" d="M1790.8,1099.8c0,0.6-0.5,1.1-1.1,1.1l0,0c-0.6,0-1.1-0.5-1.1-1.1V1066c0-0.6,0.5-1.1,1.1-1.1l0,0
						c0.6,0,1.1,0.5,1.1,1.1V1099.8z"/>
					<path fill="#BDD0FB" d="M1799.8,1099.8c0,0.6-0.5,1.1-1.1,1.1l0,0c-0.6,0-1.1-0.5-1.1-1.1V1066c0-0.6,0.5-1.1,1.1-1.1l0,0
						c0.6,0,1.1,0.5,1.1,1.1V1099.8z"/>
					<path fill="#BDD0FB" d="M1808.8,1099.8c0,0.6-0.5,1.1-1.1,1.1l0,0c-0.6,0-1.1-0.5-1.1-1.1V1066c0-0.6,0.5-1.1,1.1-1.1l0,0
						c0.6,0,1.1,0.5,1.1,1.1V1099.8z"/>
				</g>
				<linearGradient id="SVGID_63_" gradientUnits="userSpaceOnUse" x1="1790.8167" y1="1271.9144" x2="2054.0903" y2="1271.9144">
					<stop  offset="0" style="stop-color:#DAE3FE"/>
					<stop  offset="1" style="stop-color:#E9EFFD"/>
				</linearGradient>
				<path fill="url(#SVGID_63_)" d="M2054.1,1219.5c0-7.1-5.7-12.8-12.8-12.8h-237.7c-7.1,0-12.8,5.7-12.8,12.8v104.9
					c0,7.1,5.7,12.8,12.8,12.8h237.7c7.1,0,12.8-5.7,12.8-12.8V1219.5z"/>
				<g>
					<path fill="#BDD0FB" d="M1809.3,1415.9h-22.9c-13.4,0-24.9-11.9-24.9-25.4v-74.6c0-0.6,0.5-1.1,1.1-1.1s1.1,0.5,1.1,1.1v74.6
						c0,12.2,10.4,23.1,22.6,23.1h22.9c0.6,0,1.1,0.5,1.1,1.1S1809.9,1415.9,1809.3,1415.9z"/>
				</g>
				<linearGradient id="SVGID_64_" gradientUnits="userSpaceOnUse" x1="1769.781" y1="1766.4238" x2="1891.2854" y2="1371.5338">
					<stop  offset="0" style="stop-color:#E1473D"/>
					<stop  offset="1" style="stop-color:#E9605A"/>
				</linearGradient>
				<path fill="url(#SVGID_64_)" d="M1924.4,1259.3c0,0,2.6-35.1,37.6-29.3c33.1,5.5,22.5,50.8-24.2,79.7
					c-5.1,3.1-11.3,3.6-16.8,1.3c-20.5-8.7-68.3-33.7-41.9-68.4C1896.1,1220.3,1924.4,1259.3,1924.4,1259.3z"/>
			</g>
			<g>
				<g>
					<linearGradient id="SVGID_65_" gradientUnits="userSpaceOnUse" x1="1973.6621" y1="898.0361" x2="2122.2217" y2="725.6013">
						<stop  offset="0" style="stop-color:#E1473D"/>
						<stop  offset="1" style="stop-color:#E9605A"/>
					</linearGradient>
					<circle fill="url(#SVGID_65_)" cx="2125.2" cy="722.1" r="110.8"/>
					<linearGradient id="SVGID_66_" gradientUnits="userSpaceOnUse" x1="2206.1672" y1="599.8335" x2="1766.8733" y2="1263.4816">
						<stop  offset="0" style="stop-color:#FE7062"/>
						<stop  offset="1" style="stop-color:#FF928E"/>
					</linearGradient>
					<circle fill="url(#SVGID_66_)" cx="2125.2" cy="722.1" r="107.1"/>
					<path opacity="0.71" fill="#FFFFFF" d="M2036.9,679.9c-0.3,0-0.7-0.1-1-0.2c-1.1-0.6-1.6-1.9-1-3
						c17.3-34.3,51.9-55.6,90.3-55.6c6.1,0,12.3,0.6,18.2,1.6c1.2,0.2,2,1.4,1.8,2.6c-0.2,1.2-1.4,2-2.6,1.8
						c-5.7-1-11.6-1.6-17.4-1.6c-36.7,0-69.7,20.4-86.3,53.1C2038.5,679.4,2037.8,679.9,2036.9,679.9z"/>
					<circle opacity="0.71" fill="#FFFFFF" cx="2127.6" cy="724.5" r="90.6"/>
					<g>
						<linearGradient id="SVGID_67_" gradientUnits="userSpaceOnUse" x1="2193.0627" y1="618.8489" x2="1959.1476" y2="1011.5539">
							<stop  offset="0" style="stop-color:#FE7062"/>
							<stop  offset="1" style="stop-color:#FF928E"/>
						</linearGradient>
						<path fill="url(#SVGID_67_)" d="M2118.7,791.8V782c-10.3-0.4-20.4-2.8-27.7-6c-2.6-1.1-3.9-4-3.2-6.7l2.5-9.2
							c0.9-3.4,4.6-5.1,7.8-3.8c7.2,3,16,5.4,25.5,5.4c9.9,0,17.3-3.4,17.3-10.2c0-6.2-5.7-9.9-19.5-13.6
							c-19.6-5.4-33.7-13.9-33.7-31.2c0-15.6,11.4-27.5,31.2-30.7v-9.9c0-3.2,2.6-5.7,5.7-5.7h5.8c3.2,0,5.7,2.6,5.7,5.7v8.9
							c9.5,0.4,16.4,2,21.9,3.9c2.8,1,4.4,4,3.6,6.9l-2.3,8.5c-0.9,3.3-4.4,5.1-7.6,3.9c-5.1-1.9-12.2-3.9-21.5-3.9
							c-11.7,0-15.1,4.9-15.1,9.2c0,5.4,7,9.1,22.3,13.8c21.8,6.5,30.9,15.6,30.9,31.9c0,14.9-11.1,28.4-32.6,31.7v11
							c0,3.2-2.6,5.7-5.7,5.7h-5.8C2121.2,797.6,2118.7,795,2118.7,791.8z"/>
					</g>
				</g>
				<g>
					<linearGradient id="SVGID_68_" gradientUnits="userSpaceOnUse" x1="2233.9587" y1="781.8646" x2="2181.4829" y2="942.7139">
						<stop  offset="0" style="stop-color:#FF928E"/>
						<stop  offset="1" style="stop-color:#FEB3B1"/>
					</linearGradient>
					<path fill="url(#SVGID_68_)" d="M2188.7,825l16-8.8c6.8-3.7,11.6-10.1,13.4-17.6l4-17.1c0.1-0.5-0.1-1-0.6-1.3
						c-0.5-0.3-1-0.2-1.4,0.1l-38.6,34.4c0,0-64.6,82.7,9.1,166.7l27.7-2.6C2218.3,978.9,2165,893.3,2188.7,825z"/>
					<linearGradient id="SVGID_69_" gradientUnits="userSpaceOnUse" x1="2216.8511" y1="1309.7223" x2="2314.6433" y2="1309.7223">
						<stop  offset="0" style="stop-color:#FF928E"/>
						<stop  offset="1" style="stop-color:#FEB3B1"/>
					</linearGradient>
					<path fill="url(#SVGID_69_)" d="M2216.9,1219.4c0,0,52.3,114,79.8,161.2c0,0,5.5,29.7,0,39.1l-4.6,2.1l21.7-0.6
						c0,0,1.9-40,0.4-42.2c-1.5-2.2-4.5-2.1-4.5-2.1s-9.3-73.7-36.2-89.4l-26.1-89.9L2216.9,1219.4z"/>
					<linearGradient id="SVGID_70_" gradientUnits="userSpaceOnUse" x1="2351.2693" y1="1091.0291" x2="2302.8394" y2="1405.821">
						<stop  offset="0" style="stop-color:#4042E2"/>
						<stop  offset="1" style="stop-color:#4F52FF"/>
					</linearGradient>
					<path fill="url(#SVGID_70_)" d="M2282.7,1427.4c0,0.5,16.9,0.3,26.1,0.1c3.4-0.1,6.3-2.5,7-5.8l7-36.6c0.7-3.5-1.5-6.8-5-7.6
						l-3.9-0.9c0,0-5.5,7.6-3.8,14.8c1.7,7.2,3.3,25.7-1.1,27.9c-4.4,2.2-17.1,2.5-17.1,2.5S2283,1422.7,2282.7,1427.4z"/>
					<linearGradient id="SVGID_71_" gradientUnits="userSpaceOnUse" x1="2248.7969" y1="1075.2627" x2="2200.3667" y2="1390.0574">
						<stop  offset="0" style="stop-color:#4042E2"/>
						<stop  offset="1" style="stop-color:#4F52FF"/>
					</linearGradient>
					<path fill="url(#SVGID_71_)" d="M2167.3,1428.1c-1.7,1-1,3.6,1,3.6c15.4-0.2,50-0.6,53-1.9c4-1.6-1.4-15.9-7.1-20.7l-31.4,10.3
						L2167.3,1428.1z"/>
					<linearGradient id="SVGID_72_" gradientUnits="userSpaceOnUse" x1="2157.5105" y1="1316.9939" x2="2214.1404" y2="1316.9939">
						<stop  offset="0" style="stop-color:#FF928E"/>
						<stop  offset="1" style="stop-color:#FEB3B1"/>
					</linearGradient>
					<path fill="url(#SVGID_72_)" d="M2157.5,1212.2c0,0,33.8,163.5,43.4,195.4l-22.6,14.2c0,0,11.3-1.9,19.7-2.5
						c8.4-0.6,16.1-10.3,16.1-10.3l-2.7-4.3c0,0-8.5-162.7-6.4-181.1L2157.5,1212.2z"/>
					<linearGradient id="SVGID_73_" gradientUnits="userSpaceOnUse" x1="2086.9651" y1="704.3188" x2="2088.9653" y2="792.3188">
						<stop  offset="0" style="stop-color:#FF928E"/>
						<stop  offset="1" style="stop-color:#FEB3B1"/>
					</linearGradient>
					<path fill="url(#SVGID_73_)" d="M2073.6,830.7c0,0-4.7,85.1,72.8,128.5l-18.6,42.5c0,0-70.1-42.4-67.5-158.1
						c0.1-3.3-1.1-6.5-3.3-9.1l-14.9-17.3c-5.7-6.6-7.8-15.5-5.7-24l2-7.8c0.7-2.6,3.6-3.9,6-2.5l1.6,0.9c5,2.9,8.9,7.3,11.2,12.5
						l7.3,16.4c2.7,6.1,9,9.8,15.7,9.2l4.5-0.4L2073.6,830.7z"/>
					<linearGradient id="SVGID_74_" gradientUnits="userSpaceOnUse" x1="2153.5342" y1="954.2548" x2="2361.3782" y2="1365.9072">
						<stop  offset="0" style="stop-color:#FE7062"/>
						<stop  offset="1" style="stop-color:#FF928E"/>
					</linearGradient>
					<path fill="url(#SVGID_74_)" d="M2221.6,973.4c-2.9-3.9-7.2-6.4-12-6.9c-25.6-2.9-55.3-10.8-65.6-13.6c-2.1-0.6-4.3,0.6-5,2.6
						l-13.4,40.9c-1,3.2,0.2,6.7,3,8.5l2.7,1.8c-2,5.9-4.6,12.1-1.1,17.2c12.2,17.9,27.6,53.7,27.6,53.7l54.9,0.2l-1.3-15.5
						l13.4-75.6C2225.6,982.1,2224.4,977.3,2221.6,973.4z"/>
					<linearGradient id="SVGID_75_" gradientUnits="userSpaceOnUse" x1="2107.5125" y1="1061.1649" x2="2289.1235" y2="1265.9818">
						<stop  offset="0" style="stop-color:#4042E2"/>
						<stop  offset="1" style="stop-color:#4F52FF"/>
					</linearGradient>
					<path fill="url(#SVGID_75_)" d="M2153.2,1069.6l1.1,9.4c0,0-15.5,46.4,7.8,154.9c0,0,50.4,14.3,91.8-19.9
						c0,0-11.7-102.4-14.9-107.1c-15.9-23.7-26.5-28.9-26.5-28.9l-0.5-10.3C2212,1067.7,2167.7,1075.7,2153.2,1069.6z"/>
					<linearGradient id="SVGID_76_" gradientUnits="userSpaceOnUse" x1="2174.6785" y1="946.5499" x2="2209.3325" y2="946.5499">
						<stop  offset="0" style="stop-color:#FF928E"/>
						<stop  offset="1" style="stop-color:#FEB3B1"/>
					</linearGradient>
					<path fill="url(#SVGID_76_)" d="M2174.7,960.5c-0.2-0.3,11.5-35.2,11.5-35.2l16.7,1.5l6.5,39.6
						C2209.3,966.5,2183.2,971.8,2174.7,960.5z"/>
					
						<linearGradient id="SVGID_77_" gradientUnits="userSpaceOnUse" x1="5998.6899" y1="-2521.6858" x2="6074.9917" y2="-2469.8582" gradientTransform="matrix(0.92 0.3919 -0.3919 0.92 -4330.5166 857.5435)">
						<stop  offset="0" style="stop-color:#FF928E"/>
						<stop  offset="1" style="stop-color:#FEB3B1"/>
					</linearGradient>
					<path fill="url(#SVGID_77_)" d="M2207,881.2c0,0-17.1-0.1-35.8,16.6c-18.7,16.7-15.5,29.5-6.8,34.7c8.7,5.3,22.5,10.9,42.9,3.6
						C2227.6,928.9,2228.9,881.9,2207,881.2z"/>
					<linearGradient id="SVGID_78_" gradientUnits="userSpaceOnUse" x1="2326.7764" y1="790.3813" x2="2168.95" y2="954.5844">
						<stop  offset="0" style="stop-color:#09005D"/>
						<stop  offset="1" style="stop-color:#1A0F91"/>
					</linearGradient>
					<path fill="url(#SVGID_78_)" d="M2215.3,868.2c-19.8,1.1-24.4,16.6-24.4,16.6l8.3-1.7c23,10.2,8.9,30.6,4.3,36.3
						c-0.7,0.9-0.7,2.2,0,3.1l0,0c0,0,8.6-3.8,8.9,2.5c0.3,6.4-10.2,13.5-10.2,13.5s-0.3,14,15.7,8.4c16-5.6,26.1-18.1,28.6-43
						C2249,878.9,2235.1,867,2215.3,868.2z"/>
					<g>
						
							<linearGradient id="SVGID_79_" gradientUnits="userSpaceOnUse" x1="100.6492" y1="211.9122" x2="331.106" y2="211.9122" gradientTransform="matrix(-0.8765 -0.4814 -0.4814 0.8765 2541.1682 924.7965)">
							<stop  offset="0" style="stop-color:#09005D"/>
							<stop  offset="1" style="stop-color:#1A0F91"/>
						</linearGradient>
						<path fill="url(#SVGID_79_)" d="M2248.6,934.2c-8.7,28.1,12.2,30.5,18.1,48.4c9.6,29,47.9,25.6,65.7,57.8
							c12.8,23.3,4.8,60.3-18.7,80.8c-32.6,28.4-85.4,18.5-102.6-5c-16.4-22.5,3.8-51.8-19.4-80.2c-9.8-12-17.9-12.2-21.3-23.9
							c-6-20.5,13.8-53.1,20.6-62.2c14.8-19.8,16.7-11.5,18.4-22.8c3.4-22-24.6-34.7-20-49.1c4.1-13.1,39-23,58.3-7.8
							C2277.5,893.8,2252.5,921.7,2248.6,934.2z"/>
						<path fill="#91B3FA" d="M2307.1,1109.8c0.4,0.2,0.9,0.1,1.2-0.2c13.8-15.2,19.8-30.6,17.7-45.7c-3.4-25.2-28.2-41.1-28.4-41.3
							c-0.4-0.3-1.1-0.2-1.4,0.3c-0.3,0.5-0.2,1.1,0.3,1.4c0.2,0.2,24.3,15.6,27.5,39.9c2,14.6-3.8,29.4-17.2,44.1
							c-0.4,0.4-0.3,1,0.1,1.4C2307,1109.7,2307.1,1109.8,2307.1,1109.8z"/>
						<path fill="#91B3FA" d="M2214,1079.5c0,0,0.1,0,0.1,0c0.3,0.1,0.5-0.1,0.6-0.4c4.5-18,3.3-32.9-3.5-44.3
							c-5-8.3-11.7-12.4-17.6-16.1c-5.7-3.5-10.6-6.6-12.6-12.5c-4.3-12.1,6.1-29.8,30.8-52.6c0.2-0.2,0.2-0.5,0-0.7
							c-0.2-0.2-0.5-0.2-0.7,0c-25,23.1-35.5,41.2-31,53.7c2.2,6.2,7.2,9.3,13,13c5.8,3.6,12.3,7.7,17.2,15.8
							c6.8,11.1,7.9,25.8,3.4,43.5C2213.7,1079.2,2213.8,1079.4,2214,1079.5z"/>
						<path fill="#91B3FA" d="M2230.2,926c0,0,0.1,0.1,0.1,0.1c0.2,0.1,0.5,0.1,0.7-0.2c5.9-10.1-2.3-17.1-11.1-24.5
							c-5.5-4.7-11.3-9.6-14-15.6c-2-4.5-2.2-8-0.6-10.5c2.8-4.2,10.1-4.2,10.1-4.2c0.3,0,0.5-0.2,0.5-0.5c0-0.3-0.2-0.5-0.5-0.5
							c-0.3,0-7.9-0.1-11,4.6c-1.8,2.8-1.7,6.6,0.5,11.4c2.8,6.2,8.6,11.1,14.3,15.9c8.8,7.5,16.4,13.9,10.9,23.3
							C2230.1,925.6,2230.1,925.8,2230.2,926z"/>
					</g>
					
						<linearGradient id="SVGID_80_" gradientUnits="userSpaceOnUse" x1="5996.3716" y1="-2533.1016" x2="6083.7754" y2="-2473.7329" gradientTransform="matrix(0.92 0.3919 -0.3919 0.92 -4330.5166 857.5435)">
						<stop  offset="0" style="stop-color:#FF928E"/>
						<stop  offset="1" style="stop-color:#FEB3B1"/>
					</linearGradient>
					<path fill="url(#SVGID_80_)" d="M2202.5,923.2c0,0,13.5-11.1,18.2-1.6c4.7,9.4-12.2,12-18.5,12.5L2202.5,923.2z"/>
				</g>
			</g>
		</g>
		<g>
			<path fill="#FFFFFF" d="M379,621.8c-52.4,18.8-103.2,65.8-96.2,125.7c6,51,64.5,66.1,100.1,71.4c9.9,1.5,18.9,6.6,25.3,14.3
				c15.4,18.4,48.3,49,84.5,28.6c2.6-1.5,1.5-5.5-1.6-5.4c-9.6,0.4-23.2-1-32.5-10c-12.6-12.3-8.1-33.6,8.3-40.3
				c30.9-12.6,89.3-46.8,81.7-124.4C538.4,576.7,379,621.8,379,621.8z"/>
			<linearGradient id="SVGID_81_" gradientUnits="userSpaceOnUse" x1="357.8717" y1="717.1023" x2="467.7532" y2="717.1023">
				<stop  offset="0" style="stop-color:#FE7062"/>
				<stop  offset="1" style="stop-color:#FF928E"/>
			</linearGradient>
			<path fill="url(#SVGID_81_)" d="M410.9,705.5c0,0,2.6-35.1,37.6-29.3c33.1,5.5,22.5,50.8-24.2,79.7c-5.1,3.1-11.3,3.6-16.8,1.3
				c-20.5-8.7-68.3-33.7-41.9-68.4C382.6,666.4,410.9,705.5,410.9,705.5z"/>
		</g>
	</g>
</g>
</svg>
