<svg id="Layer_1" data-name="Layer 1" xmlns="http://www.w3.org/2000/svg" viewBox="0 0 1200 1200"><defs><style>.cls-1{fill:#231f20;}.cls-2{fill:#fff;}.cls-3{fill:#fbb040;}</style></defs><title>Artboard 7</title><rect class="cls-1" x="562.57" y="713.69" width="77.74" height="180.26"/><path class="cls-2" d="M434.08,879H763.89A14.12,14.12,0,0,1,778,893.12v0a0,0,0,0,1,0,0H420a0,0,0,0,1,0,0v0A14.12,14.12,0,0,1,434.08,879Z"/><path class="cls-1" d="M778.51,893.65h-359v-.51a14.66,14.66,0,0,1,14.65-14.64H763.86a14.66,14.66,0,0,1,14.65,14.64Zm-358-1h357a13.66,13.66,0,0,0-13.64-13.14H434.11A13.66,13.66,0,0,0,420.47,892.64Z"/><path class="cls-1" d="M1016.06,463l30,193.48c-5.46-21.59-84.79-147-43-277.5l12.1,78.12-14,5.9Z"/><path class="cls-1" d="M1045.53,656.55c-.93-3.7-4.09-10.55-8.47-20-20.68-44.81-69.1-149.75-34.5-257.74l.65-2,12.48,80.6-12.06,5.09h12.86l.06.42,30,193.48Zm-42.66-275.42c-33.23,106.9,14.6,210.55,35.1,255,2.84,6.15,5.17,11.19,6.72,15l-29.06-187.67h-17l15.92-6.71Z"/><path class="cls-1" d="M1085.76,382.6l-35,6.07,33.23,6.18-5.41,37.79-27.82-3.4,26.38,13.5-30.84,215.59s-62.41-305.06,53-370.16Z"/><path class="cls-1" d="M1046.4,661.26l-.58-2.83c-.15-.76-15.62-77.28-16.79-160.76-.69-49.05,3.62-90.88,12.81-124.33,11.51-41.89,30.75-70.69,57.18-85.61l.89-.5L1086.2,383l-32.58,5.66,31,5.76L1079,433.2l-25.5-3.12,24.18,12.38,0,.35Zm52.23-372.15c-25.74,14.93-44.51,43.34-55.82,84.49-9.16,33.35-13.46,75.09-12.78,124,1,74.22,13.39,142.93,16.21,157.68L1076.61,443,1048,428.4l30.13,3.69,5.27-36.83L1048,388.65l37.36-6.48Z"/><path class="cls-1" d="M1120.34,539.64,1105.91,532l10.78,13.46-70.37,112.84s13.23-148.29,96.45-154.66Z"/><path class="cls-1" d="M1045.63,660.37l.19-2.09c0-.37,3.47-37.57,17-75.06,8-22.05,17.85-39.89,29.35-53,14.4-16.47,31.4-25.56,50.51-27l1-.07-23.2,37.2-12.71-6.71,9.5,11.87Zm96.19-156.11c-18.45,1.67-34.87,10.62-48.85,26.6-11.41,13-21.22,30.77-29.16,52.7-11.67,32.22-15.83,64.21-16.77,72.66l69-110.69L1104,530.46l16.16,8.52Z"/><path class="cls-2" d="M1101,605.32l-15.43,16.25L1101,843.72a50.2,50.2,0,0,1-1.08,10.4c-.34,1.61-.76,3.17-1.24,4.72a50.37,50.37,0,0,1-13,21,20.46,20.46,0,0,1,5.62,14.09H1010.1a20.46,20.46,0,0,1,5.71-14.19,50.1,50.1,0,0,1-12.93-20.92c-.49-1.54-.9-3.11-1.25-4.72a50.13,50.13,0,0,1-1.08-10.4L1016,621.57l-15.43-16.25Z"/><path class="cls-1" d="M1091.78,894.45H1009.6V894a20.93,20.93,0,0,1,5.51-14.17A50.77,50.77,0,0,1,1002.4,859c-.48-1.51-.9-3.11-1.26-4.76a51,51,0,0,1-1.09-10.51l15.42-222-16.08-16.93h102.79l-16.08,16.93,15.42,221.94a51.15,51.15,0,0,1-1.09,10.54c-.33,1.55-.75,3.15-1.26,4.76a50.83,50.83,0,0,1-12.81,20.88,21.15,21.15,0,0,1,3.88,6.17,20.91,20.91,0,0,1,1.54,7.91Zm-81.17-1h80.16a19.88,19.88,0,0,0-5.48-13.25l-.34-.36.36-.34a50,50,0,0,0,12.91-20.81c.5-1.58.91-3.15,1.23-4.67a49.73,49.73,0,0,0,1.07-10.3l-15.45-222.34.16-.16,14.62-15.4h-98.13l14.78,15.56,0,.22-15.43,222.16a51,51,0,0,0,1.07,10.26c.35,1.61.76,3.19,1.23,4.66a50,50,0,0,0,12.81,20.72l.36.35-.35.36A19.92,19.92,0,0,0,1010.61,893.45Z"/><path class="cls-2" d="M144.86,653.58S235,769.09,143.78,768.24,144.86,653.58,144.86,653.58Z"/><path class="cls-1" d="M144.77,768.75h-1c-20-.19-32.85-5.89-38.06-17-6.29-13.35-1.66-34,13.74-61.39a304.06,304.06,0,0,1,25-37.14.39.39,0,0,1,.39-.18.51.51,0,0,1,.4.19,303,303,0,0,1,24.3,37.6c14.89,27.67,19.12,48.41,12.59,61.63C176.83,763.28,164.25,768.75,144.77,768.75Zm.08-114.36c-4.87,6.15-52.22,67.26-38.22,97,5,10.68,17.53,16.19,37.16,16.38s32.23-5.09,37.46-15.68C195.8,722.61,149.6,660.63,144.85,654.39Z"/><path class="cls-2" d="M136,768.17s4.63-70.43,65.33-102.22C201.37,666,254.77,706,136,768.17Z"/><path class="cls-1" d="M136,768.67a.57.57,0,0,1-.28-.08.51.51,0,0,1-.22-.46,142,142,0,0,1,9.94-39.34c8-19.76,24.17-46.79,55.66-63.29a.49.49,0,0,1,.53,0c.14.1,13.5,10.33,12.07,28.11-2.39,29.66-43.45,57.13-77.47,75A.46.46,0,0,1,136,768.67Zm65.28-102.13c-31,16.37-47,43.08-54.91,62.63a144.17,144.17,0,0,0-9.79,38.13c33.63-17.72,73.79-44.75,76.12-73.72C214,677.67,203.1,668,201.32,666.54Z"/><path class="cls-2" d="M151,768.31s-.95-70.58-59.9-105.67C91.11,662.64,35.69,699.67,151,768.31Z"/><path class="cls-1" d="M151,768.81a.45.45,0,0,1-.25-.07c-33.08-19.69-72.67-49.4-73.45-79.17-.47-17.79,13.38-27.25,13.52-27.34a.51.51,0,0,1,.53,0c30.59,18.21,45.31,46.08,52.28,66.26a142,142,0,0,1,7.87,39.83.48.48,0,0,1-.25.44A.43.43,0,0,1,151,768.81ZM91.13,663.24c-1.86,1.37-13.24,10.41-12.82,26.32.43,16.1,13.33,42.66,72.17,77.85a144.58,144.58,0,0,0-7.8-38.65C135.79,708.82,121.25,681.29,91.13,663.24Z"/><path class="cls-2" d="M136,768.17s35.13-60.42,103.08-59.78C239.12,708.39,268.94,769.41,136,768.17Z"/><path class="cls-1" d="M140.09,768.69l-4.06,0a.5.5,0,0,1-.43-.25.5.5,0,0,1,0-.5,136.41,136.41,0,0,1,26.17-30.26c15.67-13.63,41.58-29.78,76.3-29.78h1.05a.51.51,0,0,1,.45.28c.07.16,7.63,16-2,31.34C225.32,758.88,192.54,768.69,140.09,768.69Zm-3.16-1h2.87c36.82,0,82-5.16,96.89-28.71,8.67-13.75,3-27.93,2.1-30.08h-.72c-34.42,0-60.1,16-75.64,29.54A137.93,137.93,0,0,0,136.93,767.67Z"/><path class="cls-2" d="M151,768.31s-34-61.07-101.94-61.7C49.07,706.61,18.11,767.06,151,768.31Z"/><path class="cls-1" d="M151,768.81h0c-54.82-.52-88.78-11-100.94-31.06-9.37-15.5-1.53-31.22-1.45-31.37a.48.48,0,0,1,.46-.28c35.25.34,61.21,17.16,76.78,31.22a136.94,136.94,0,0,1,25.59,30.74.5.5,0,0,1,0,.5A.48.48,0,0,1,151,768.81ZM49.39,707.11c-1,2.13-6.87,16.23,1.55,30.13,14.79,24.43,61.9,30.13,99.19,30.56a138.37,138.37,0,0,0-25-29.76C109.77,724.15,84.15,707.54,49.39,707.11Z"/><path class="cls-1" d="M234.33,754.33l-.91,96.84a41.92,41.92,0,0,1-42.31,41.52l-97.49-.91a41.64,41.64,0,0,1-18.47-4.48,40.3,40.3,0,0,1-6.05-3.73,41.8,41.8,0,0,1-17-34.1L53,752.63Z"/><path class="cls-1" d="M191.5,893.2h-.4l-97.49-.91a41.91,41.91,0,0,1-18.68-4.53A40,40,0,0,1,68.8,884a42.52,42.52,0,0,1-17.22-34.5l.91-96.85a.53.53,0,0,1,.15-.35.7.7,0,0,1,.36-.14l181.33,1.7a.5.5,0,0,1,.5.5l-.91,96.85A42.48,42.48,0,0,1,191.5,893.2Zm-138-140.06-.9,96.34A41.49,41.49,0,0,0,69.4,883.17a39.77,39.77,0,0,0,6,3.68,40.84,40.84,0,0,0,18.24,4.43l97.49.91h.39a41.46,41.46,0,0,0,41.42-41l.9-96.34Z"/><path class="cls-2" d="M76.43,835.58c-7.08,21-7.5,38.4-1.28,51.72a40.3,40.3,0,0,1-6.05-3.73c-4.35-13.45-3.25-30,3.27-49.36,10.79-32.06,5.11-60.88-3.06-81.42l4.63.05C82,774,87.35,803.16,76.43,835.58Z"/><path class="cls-1" d="M75.15,887.8a.59.59,0,0,1-.22,0A40,40,0,0,1,68.8,884a.58.58,0,0,1-.18-.25c-4.37-13.52-3.27-30.23,3.27-49.67,11.07-32.86,4.45-62.23-3-81.07a.47.47,0,0,1,.05-.47.6.6,0,0,1,.42-.22l4.62,0a.5.5,0,0,1,.46.33c7.41,19.3,13.85,49.39,2.51,83.08-7,20.89-7.47,38.17-1.3,51.35a.51.51,0,0,1-.11.57A.5.5,0,0,1,75.15,887.8Zm-5.62-4.54a38.38,38.38,0,0,0,4.58,2.93c-5.65-13.25-5-30.32,1.85-50.77h0c11.18-33.22,4.92-62.92-2.37-82.09l-3.54,0c7.44,19,13.82,48.32,2.79,81.07C66.39,853.53,65.28,870,69.53,883.26Z"/><path class="cls-2" d="M130.42,875.12c5.06,6.62,9,12.31,12,17.12l-5.14,0c-2.73-4.17-6.12-9-10.31-14.46-11.39-14.91-3.36-41.57,3.74-65.08,5.16-17.12,10-33.29,5.58-39.52-1.31-1.82-3.5-2.77-6.68-2.87-5.06-.19-8.34.63-10,2.51-2.74,3-1.85,9.48-.83,17,1.8,13.3,4.27,31.51-11.06,47-11.44,11.52-14.2,27.89-8.21,48.66.65,2.24,1.37,4.41,2.12,6.49l-4.56,0q-.89-2.51-1.65-5.16c-6.4-22.11-3.2-40.42,9.25-53,13.85-14,11.64-30.28,9.85-43.38-1.16-8.55-2.16-15.93,1.9-20.42,2.6-2.87,7-4.15,13.37-3.92,4.55.16,7.91,1.73,10,4.66,5.68,8,.75,24.32-5,43.26C128.06,836.42,120.36,862,130.42,875.12Z"/><path class="cls-1" d="M142.46,892.74h0l-5.14,0a.49.49,0,0,1-.41-.22c-3-4.53-6.43-9.38-10.29-14.44-11.55-15.12-3.47-41.9,3.66-65.53,5.13-17,10-33,5.65-39.08-1.21-1.69-3.27-2.56-6.29-2.66-4.9-.19-8,.59-9.64,2.35-2.58,2.83-1.71,9.19-.71,16.55,1.82,13.41,4.32,31.76-11.2,47.4-11.3,11.39-14,27.6-8.08,48.17.61,2.09,1.32,4.26,2.11,6.46a.51.51,0,0,1-.06.46.49.49,0,0,1-.41.21l-4.57,0a.52.52,0,0,1-.47-.34c-.57-1.65-1.13-3.39-1.65-5.18-6.46-22.29-3.21-40.78,9.38-53.46,13.67-13.79,11.48-30,9.71-43-1.18-8.67-2.2-16.16,2-20.82,2.7-3,7.22-4.33,13.76-4.09,4.71.16,8.21,1.81,10.4,4.87,5.83,8.15.86,24.62-4.89,43.69-6.76,22.43-14.41,47.83-4.51,60.79,4.63,6.06,8.69,11.83,12.06,17.15a.51.51,0,0,1,0,.52A.52.52,0,0,1,142.46,892.74Zm-4.87-1,3.95,0c-3.26-5.08-7.13-10.56-11.52-16.3h0c-10.21-13.37-2.48-39,4.35-61.66,5.68-18.84,10.58-35.1,5-42.84-2-2.81-5.24-4.3-9.62-4.46-6.26-.23-10.49,1-13,3.76-3.92,4.32-2.93,11.59-1.78,20,1.8,13.22,4,29.66-10,43.81-12.32,12.4-15.48,30.55-9.13,52.47.48,1.65,1,3.27,1.52,4.8l3.5,0c-.71-2-1.34-3.94-1.89-5.84-6-21-3.24-37.49,8.33-49.16,15.17-15.28,12.71-33.36,10.92-46.55-1-7.61-1.93-14.18.95-17.37,1.8-2,5.22-2.86,10.43-2.68,3.35.12,5.66,1.13,7.06,3.09,4.61,6.43-.3,22.7-5.5,39.93-7.06,23.42-15.06,49.94-3.83,64.65C131.22,882.41,134.65,887.21,137.59,891.7Z"/><path class="cls-2" d="M174.88,850.52a379.08,379.08,0,0,1-12.51,41.91l-4.58,0c12.58-34.7,31.66-101.81,7.56-138.7l5.1,0C183.29,775.4,184.78,807.89,174.88,850.52Z"/><path class="cls-1" d="M162.37,892.93h0l-4.59,0a.53.53,0,0,1-.4-.22.46.46,0,0,1-.06-.45c30.41-83.89,17.82-122.63,7.61-138.26a.49.49,0,0,1,0-.51.46.46,0,0,1,.45-.26l5.09,0a.5.5,0,0,1,.43.24c12.9,21.77,14.41,54.45,4.49,97.16a377.05,377.05,0,0,1-12.53,42A.5.5,0,0,1,162.37,892.93Zm-3.87-1,3.52,0a373.77,373.77,0,0,0,12.37-41.51h0c9.82-42.28,8.4-74.64-4.23-96.18l-3.89,0c10.23,16.23,13.44,39.68,9.55,69.72C172.5,849.54,164.62,874.91,158.5,891.89Z"/><path class="cls-2" d="M185.15,892.64l-4.88,0a155.57,155.57,0,0,0,16.32-41.46c4.7-19.53,6.38-41.12,5-64.17a287,287,0,0,0-4-33l4.35,0a292.77,292.77,0,0,1,3.91,32.67C207.67,816.64,204.93,856.84,185.15,892.64Z"/><path class="cls-1" d="M185.15,893.14h0l-4.87,0a.51.51,0,0,1-.43-.26.48.48,0,0,1,0-.49A155.65,155.65,0,0,0,196.1,851c4.7-19.49,6.37-41,5-64a283.39,283.39,0,0,0-4-32.92.54.54,0,0,1,.11-.41.48.48,0,0,1,.39-.18l4.36,0a.51.51,0,0,1,.49.41,293.37,293.37,0,0,1,3.91,32.73c1.72,28.21-.48,69.53-20.75,106.21A.51.51,0,0,1,185.15,893.14Zm-4-1,3.71,0c20-36.41,22.2-77.4,20.49-105.4a292.88,292.88,0,0,0-3.83-32.21l-3.34,0a285.87,285.87,0,0,1,3.9,32.43c1.4,23.1-.28,44.74-5,64.33A156.71,156.71,0,0,1,181.14,892.1Z"/><path class="cls-2" d="M233.76,814.51l-.1,11.52a272.33,272.33,0,0,1-34.92,58.82c-2.19,2.8-4.33,5.42-6.39,7.86l-5.72-.05A266.31,266.31,0,0,0,233.76,814.51Z"/><path class="cls-1" d="M192.35,893.21h0l-5.71-.05a.52.52,0,0,1-.46-.3.51.51,0,0,1,.08-.53,266.92,266.92,0,0,0,47.05-78,.5.5,0,0,1,1,.18l-.1,11.52a.46.46,0,0,1,0,.2,271.3,271.3,0,0,1-35,58.93c-2.08,2.66-4.24,5.31-6.41,7.87A.49.49,0,0,1,192.35,893.21Zm-4.63-1.05,4.4.05c2.11-2.5,4.21-5.08,6.23-7.67a274.44,274.44,0,0,0,34.81-58.62l.08-8.71A267.78,267.78,0,0,1,187.72,892.16Z"/><path class="cls-2" d="M1024.54,225.61V749.68a15.42,15.42,0,0,1-15.42,15.43H207.8a23,23,0,0,1-23-23V233.21a23,23,0,0,1,23-23h801.32A15.42,15.42,0,0,1,1024.54,225.61Z"/><path class="cls-1" d="M1009.12,765.61H207.8a23.55,23.55,0,0,1-23.52-23.52V233.21a23.55,23.55,0,0,1,23.52-23.52h801.32A15.94,15.94,0,0,1,1025,225.61V749.68A15.94,15.94,0,0,1,1009.12,765.61ZM207.8,210.69a22.55,22.55,0,0,0-22.52,22.52V742.09a22.55,22.55,0,0,0,22.52,22.52h801.32A14.94,14.94,0,0,0,1024,749.68V225.61a14.93,14.93,0,0,0-14.92-14.92Z"/><rect class="cls-2" x="201.47" y="221.46" width="809.83" height="532.38"/><path class="cls-1" d="M1011.81,754.34H201V221h810.84Zm-809.84-1H1010.8V222H202Z"/><rect class="cls-2" x="273.37" y="315.75" width="449.11" height="83.04"/><path class="cls-1" d="M723,399.29H272.87v-84H723Zm-449.11-1H722v-82H273.87Z"/><rect class="cls-2" x="274.42" y="423.66" width="448.05" height="14.48"/><path class="cls-1" d="M723,438.64H273.92V423.15H723Zm-448.06-1H722V424.16H274.92Z"/><rect class="cls-2" x="274.42" y="463.15" width="448.05" height="14.48"/><path class="cls-1" d="M723,478.14H273.92V462.65H723Zm-448.06-1H722V463.65H274.92Z"/><rect class="cls-2" x="274.42" y="502.65" width="448.05" height="14.48"/><path class="cls-1" d="M723,517.63H273.92V502.15H723Zm-448.06-1H722V503.15H274.92Z"/><rect class="cls-2" x="274.42" y="542.15" width="448.05" height="14.48"/><path class="cls-1" d="M723,557.13H273.92V541.65H723Zm-448.06-1H722V542.65H274.92Z"/><rect class="cls-2" x="274.42" y="581.64" width="448.05" height="14.48"/><path class="cls-1" d="M723,596.63H273.92V581.14H723Zm-448.06-1H722V582.14H274.92Z"/><rect class="cls-2" x="274.42" y="621.14" width="448.05" height="14.48"/><path class="cls-1" d="M723,636.12H273.92V620.64H723Zm-448.06-1H722V621.64H274.92Z"/><rect class="cls-2" x="274.42" y="660.64" width="448.05" height="14.48"/><path class="cls-1" d="M723,675.62H273.92V660.14H723Zm-448.06-1H722V661.14H274.92Z"/><rect class="cls-2" x="274.42" y="696.06" width="226.72" height="14.48"/><path class="cls-1" d="M501.65,711.05H273.92V695.56H501.65Zm-226.73-1H500.64V696.57H274.92Z"/><rect class="cls-2" x="745.52" y="312.49" width="232.1" height="394.8"/><path class="cls-1" d="M978.12,707.79H745V312h233.1Zm-232.1-1h231.1V313H746Z"/><line class="cls-2" x1="977.62" y1="312.49" x2="745.52" y2="707.29"/><rect class="cls-1" x="632.59" y="509.39" width="457.97" height="1" transform="translate(-14.42 994.59) rotate(-59.57)"/><rect class="cls-1" x="201.47" y="221.46" width="809.83" height="38.9"/><path class="cls-1" d="M1011.81,260.86H201V221h810.84Zm-809.84-1H1010.8V222H202Z"/><circle class="cls-2" cx="220.16" cy="240.05" r="7.39"/><path class="cls-1" d="M220.16,248a7.9,7.9,0,1,1,7.89-7.9A7.91,7.91,0,0,1,220.16,248Zm0-14.79a6.9,6.9,0,1,0,6.89,6.89A6.9,6.9,0,0,0,220.16,233.16Z"/><circle class="cls-2" cx="247.4" cy="240.05" r="7.39"/><path class="cls-1" d="M247.4,248a7.9,7.9,0,1,1,7.89-7.9A7.9,7.9,0,0,1,247.4,248Zm0-14.79a6.9,6.9,0,1,0,6.89,6.89A6.91,6.91,0,0,0,247.4,233.16Z"/><circle class="cls-2" cx="274.63" cy="240.05" r="7.39"/><path class="cls-1" d="M274.63,248a7.9,7.9,0,1,1,7.9-7.9A7.9,7.9,0,0,1,274.63,248Zm0-14.79a6.9,6.9,0,1,0,6.89,6.89A6.9,6.9,0,0,0,274.63,233.16Z"/><path class="cls-1" d="M756.8,855c-20.55-28.1-50.7-8.23-82.22.19s-34.26-5.28-34.26-5.28l68-68.09Z"/><path class="cls-1" d="M656.81,858.37c-6.15,0-10-1.35-12.45-2.85-3.86-2.4-4.51-5.43-4.53-5.55a.51.51,0,0,1,.13-.46l68-68.09a.49.49,0,0,1,.4-.14.47.47,0,0,1,.37.22l48.46,73.18a.5.5,0,0,1-.82.57c-16-21.87-38.33-14.12-62-5.92-6.42,2.22-13.06,4.52-19.72,6.3A70.34,70.34,0,0,1,656.81,858.37ZM640.88,850a9.12,9.12,0,0,0,4,4.68c4.06,2.5,12.47,4.52,29.52,0,6.63-1.77,13.25-4.06,19.65-6.28,21.64-7.51,42.19-14.64,58.08.5l-43.92-66.32Z"/><polygon class="cls-2" points="699.98 675.01 722.4 893.14 696.64 893.14 717.94 887.68 685.08 675.01 699.98 675.01"/><path class="cls-1" d="M722.4,893.65H696.64a.5.5,0,0,1-.13-1l20.86-5.35L684.59,675.09a.48.48,0,0,1,.11-.4.53.53,0,0,1,.38-.18H700a.51.51,0,0,1,.5.45L722.9,893.09a.51.51,0,0,1-.12.39A.5.5,0,0,1,722.4,893.65Zm-21.79-1h21.24L699.53,675.51H685.67l32.76,212.1a.5.5,0,0,1-.37.56Z"/><polygon class="cls-2" points="692.23 675.01 689.62 893.14 663.85 893.14 685.15 887.68 677.33 675.01 692.23 675.01"/><path class="cls-1" d="M689.62,893.65H663.85a.51.51,0,0,1-.5-.44.5.5,0,0,1,.38-.55l20.9-5.36L676.83,675a.52.52,0,0,1,.14-.36.52.52,0,0,1,.36-.16h14.9a.51.51,0,0,1,.36.15.48.48,0,0,1,.14.36l-2.61,218.13A.5.5,0,0,1,689.62,893.65Zm-21.8-1h21.3l2.61-217.13H677.85l7.8,212.16a.5.5,0,0,1-.38.5Z"/><path class="cls-1" d="M671.62,584.86s16.84-8.34,25.22,11.48,23,3.72,32.89,29.36c14.41,37.32-48.57,47.64-59.93,18.94-8.57-21.64,9.67-15.91-.88-33.7S671.62,584.86,671.62,584.86Z"/><path class="cls-1" d="M699.18,661.62c-12.78,0-25.35-5.43-29.85-16.8-4.39-11.1-1.86-15.19.38-18.79,2.08-3.35,3.88-6.25-1.22-14.84-10.67-18,2.73-26.67,2.86-26.75l0,0c.28-.14,7.09-3.43,14.32-.75,5,1.84,8.86,6.05,11.58,12.49,3.81,9,8.93,10.41,14.35,11.88,6.48,1.75,13.18,3.57,18.55,17.49,6.74,17.46-3.45,28.6-15.23,33.21A43.87,43.87,0,0,1,699.18,661.62ZM671.86,585.3c-.77.5-12.55,8.44-2.51,25.38,5.41,9.12,3.37,12.4,1.21,15.88s-4.51,7.26-.3,17.89c6.2,15.65,28.34,19.6,44.34,13.34,14.68-5.74,20.16-17.67,14.67-31.91-5.19-13.45-11.64-15.2-17.88-16.89-5.66-1.53-11-3-15-12.45-2.61-6.18-6.31-10.19-11-11.94C678.76,582.14,672.29,585.1,671.86,585.3Z"/><path class="cls-2" d="M673.62,622.12,655.36,670l-32.79-7.36-6-1.66-16.45,4.5s7.12,12.3,22.07,4.71l27.33,15.7a17.54,17.54,0,0,0,22-3.73l15-17.32Z"/><path class="cls-1" d="M658.27,688.7a17.94,17.94,0,0,1-9-2.39l-27.09-15.57c-15,7.47-22.42-4.9-22.5-5a.51.51,0,0,1,.3-.74l16.46-4.49a.57.57,0,0,1,.26,0l6,1.66,32.35,7.26,18.1-47.47a.48.48,0,0,1,.49-.32.5.5,0,0,1,.46.36L687,664.68a.5.5,0,0,1-.1.47l-15,17.32A18,18,0,0,1,658.27,688.7Zm-36-19a.52.52,0,0,1,.25.07l27.33,15.7a17,17,0,0,0,21.35-3.62L686,664.71l-12.38-41-17.74,46.5a.51.51,0,0,1-.58.31l-32.79-7.36-5.85-1.63L601,665.77c1.59,2.29,8.37,10.4,21.06,4A.46.46,0,0,1,622.23,669.67Z"/><path class="cls-3" d="M667.32,679.3v-36c0-1.19,0-2.36.15-3.52,1.35-15.77,11.71-28,24.28-28,6.75,0,12.86,3.53,17.29,9.23a32.1,32.1,0,0,1,3.62,5.95,34.4,34.4,0,0,1,2.15,22.36l-7,30L756.8,855s-24,3.42-52.76-18.61-63.72,13.52-63.72,13.52Z"/><path class="cls-1" d="M753.21,855.63c-7.85,0-27.37-2-49.47-18.88-11.77-9-26-9.51-42.13-1.46a87.46,87.46,0,0,0-20.93,14.93.5.5,0,0,1-.86-.43l27-170.53v-36c0-1.19,0-2.39.15-3.56,1.39-16.24,12-28.49,24.78-28.49,6.69,0,13,3.35,17.69,9.44a32.51,32.51,0,0,1,3.67,6,34.9,34.9,0,0,1,2.18,22.69l-6.92,29.91,48.92,175.53a.54.54,0,0,1-.07.41.49.49,0,0,1-.35.22A29.13,29.13,0,0,1,753.21,855.63Zm-70.13-27A34.32,34.32,0,0,1,704.35,836c25.85,19.8,48,18.9,51.81,18.57L707.37,679.44a.53.53,0,0,1,0-.25l7-30a34.07,34.07,0,0,0-2.11-22,31.19,31.19,0,0,0-3.57-5.85c-4.52-5.83-10.52-9-16.89-9-12.21,0-22.43,11.85-23.78,27.57-.1,1.14-.15,2.31-.15,3.47v36a.19.19,0,0,1,0,.08L641.05,848.47a89.57,89.57,0,0,1,20.11-14.07C668.83,830.58,676.19,828.68,683.08,828.68ZM667.32,679.3h0Z"/><path class="cls-2" d="M690.55,620.86l4.14-4.86-4.4-18.81L680.8,595l4.34,18.55-.79,4.34A3.55,3.55,0,0,0,690.55,620.86Z"/><path class="cls-1" d="M687.89,622.63a4.06,4.06,0,0,1-1.78-.41,4,4,0,0,1-2.25-4.39l.77-4.24-4.32-18.44a.49.49,0,0,1,.14-.47.5.5,0,0,1,.46-.14l9.49,2.16a.5.5,0,0,1,.38.37l4.4,18.81a.53.53,0,0,1-.11.44l-4.14,4.87A4,4,0,0,1,687.89,622.63Zm-6.42-26.93,4.16,17.76a.37.37,0,0,1,0,.21l-.79,4.34a3.05,3.05,0,0,0,5.32,2.53h0l4-4.68-4.27-18.26Z"/><circle class="cls-2" cx="679.56" cy="599.94" r="13.91"/><path class="cls-1" d="M679.57,614.36a14.43,14.43,0,0,1-13.43-9.16h0a14.41,14.41,0,1,1,18.67,8.16A14.21,14.21,0,0,1,679.57,614.36Zm-12.5-9.53a13.41,13.41,0,1,0,7.6-17.37,13.43,13.43,0,0,0-7.6,17.37Z"/><path class="cls-1" d="M678.39,597l-2.64,1-3.18-4.93,1.23,5.69-3.51,1.38-3.9-4.65,1.86,5.44-4.58,1.8S660.12,591,674.49,587s18,7.88,18,7.88,2.28,2.58-.94,12.07a41.62,41.62,0,0,0-.1-7.73,1.88,1.88,0,0,0-3.73.13l-.41,5.94S683.76,594.85,678.39,597Z"/><path class="cls-1" d="M691.57,607.44h-.1a.48.48,0,0,1-.39-.53,42,42,0,0,0-.11-7.62,1.37,1.37,0,0,0-2.72.09l-.42,5.94a.52.52,0,0,1-.44.47.51.51,0,0,1-.54-.34c0-.06-2.21-6.37-5.58-7.93a3.27,3.27,0,0,0-2.7-.09l-2.64,1a.52.52,0,0,1-.61-.2l-1.68-2.61.65,3a.5.5,0,0,1-.3.58l-3.52,1.37a.49.49,0,0,1-.56-.14l-2.18-2.59,1,2.9a.5.5,0,0,1-.29.63l-4.57,1.79a.53.53,0,0,1-.41,0,.57.57,0,0,1-.26-.31,13,13,0,0,1,1.09-9.32c1.82-3.32,5.21-5.68,10.07-7,14-3.89,18.22,7,18.61,8.13.4.56,2.07,3.66-.91,12.46A.5.5,0,0,1,691.57,607.44Zm-11.75-11.27a4.51,4.51,0,0,1,1.87.43c2.48,1.15,4.3,4.37,5.29,6.5l.27-3.8a2.37,2.37,0,0,1,4.72-.15,32.18,32.18,0,0,1,.24,3.76c1.34-5.87-.06-7.69-.08-7.71a.64.64,0,0,1-.1-.18c-.14-.46-3.7-11.36-17.41-7.55-4.59,1.28-7.77,3.48-9.47,6.55a12.15,12.15,0,0,0-1.12,8l3.59-1.41-1.71-5a.5.5,0,0,1,.23-.6.51.51,0,0,1,.63.12l3.67,4.37,2.78-1.09-1.14-5.27a.49.49,0,0,1,.29-.57.5.5,0,0,1,.62.19l3,4.58,2.26-.88A4.45,4.45,0,0,1,679.82,596.17Z"/><path class="cls-1" d="M689.3,680.65a32.09,32.09,0,0,1-7.19-.86c-6.5-1.5-11.77-6.79-15.26-15.29a.5.5,0,0,1,.93-.38c3.36,8.19,8.39,13.27,14.55,14.69,12.28,2.84,20.25-2,27-7.77a.5.5,0,0,1,.64.77C704.44,676.5,698.09,680.65,689.3,680.65Z"/><path class="cls-1" d="M690,671.59c-3.45,0-6.35-1.79-8.62-5.35-7.56-11.84-5.46-20.48-3.62-28.11,1.6-6.6,3-12.3-2-18.89a.51.51,0,0,1,.1-.71.5.5,0,0,1,.7.11c5.22,7,3.72,13.17,2.14,19.72-1.8,7.44-3.84,15.86,3.48,27.34,2.15,3.36,4.86,5,8.1,4.89,8.35-.3,18.25-11.77,24.34-23a.5.5,0,0,1,.68-.21.49.49,0,0,1,.2.68c-6.23,11.49-16.43,23.22-25.18,23.53Z"/><path class="cls-1" d="M691.55,739.7A63.23,63.23,0,0,1,659,730.87a.5.5,0,0,1-.17-.69.51.51,0,0,1,.69-.16c13.81,8.53,38.5,13.88,62.64.9a.51.51,0,0,1,.68.21.5.5,0,0,1-.21.68A65.14,65.14,0,0,1,691.55,739.7Z"/><path class="cls-1" d="M693.86,723.26c-4.41,0-10.56-2.72-17-5.56A102.07,102.07,0,0,0,662.09,712a.5.5,0,1,1,.25-1,103.57,103.57,0,0,1,14.95,5.73c8.22,3.64,16,7.07,19.68,4.71,1.56-1,2.34-3,2.4-6.13.18-11.36-15.2-14-28.76-16.23-2.2-.37-4.27-.72-6.27-1.1a.51.51,0,0,1-.4-.59.51.51,0,0,1,.59-.4c2,.38,4.06.73,6.24,1.1,14,2.35,29.8,5,29.6,17.24-.06,3.49-1,5.76-2.86,7A6.61,6.61,0,0,1,693.86,723.26Z"/><path class="cls-1" d="M713.85,702.26c-4.83,0-10.05-1.59-15.54-4.72-12.57-7.16-23.6-13.3-31.44-16a.5.5,0,1,1,.33-.95c7.91,2.75,19,8.92,31.61,16.1q8.15,4.65,15.3,4.58h0a.5.5,0,0,1,0,1Z"/><path class="cls-1" d="M687.76,818.46c-14.18,0-28.55-6.82-39.75-19.2a.49.49,0,0,1,0-.7.5.5,0,0,1,.71,0c13.25,14.64,31,21.37,47.45,18,9.63-2,15.09-4.36,16.68-7.32,1.21-2.26.18-4.78-.9-7.44-1.18-2.92-2.52-6.22-.88-9.55,2.11-4.26,8.62-7.76,20.51-11,1.43-.4,2.88-.73,4.43-1a.51.51,0,0,1,.58.41.5.5,0,0,1-.4.58c-1.52.28-2.94.6-4.34,1-11.44,3.13-17.94,6.55-19.88,10.48-1.45,2.93-.25,5.88.91,8.73s2.28,5.62.85,8.29c-1.76,3.29-7.28,5.78-17.36,7.84A43.28,43.28,0,0,1,687.76,818.46Z"/><path class="cls-1" d="M682.87,793.17a3.15,3.15,0,0,1-.52,0c-3.24-.68-5.85-7.75-9.15-16.71-4.08-11-9.16-24.81-16.83-29.07a.5.5,0,1,1,.49-.88c8,4.44,13.14,18.39,17.28,29.6,2.94,8,5.72,15.51,8.42,16.08a2.23,2.23,0,0,0,2-.91c3.69-3.85,1.5-11.89-.44-19-1.74-6.37-3.24-11.87-.54-14s9.66.08,22.17,7.32c9,5.19,18.07,5.51,26.24.91a.51.51,0,0,1,.5.88c-8.51,4.77-17.92,4.45-27.24-.93-11.79-6.81-18.68-9.23-21.06-7.39-2.17,1.67-.68,7.12.9,12.9,2,7.35,4.28,15.68.2,19.93A3.48,3.48,0,0,1,682.87,793.17Z"/><path class="cls-1" d="M699,833.59a.51.51,0,0,1-.41-.2.5.5,0,0,1,.11-.7c10.12-7.55,22.86-9.34,37.87-5.33a27.3,27.3,0,0,0,12.75.62.5.5,0,0,1,.59.39.49.49,0,0,1-.39.59,28.27,28.27,0,0,1-13.2-.63c-14.71-3.93-27.16-2.19-37,5.16A.49.49,0,0,1,699,833.59Z"/><path class="cls-1" d="M654.1,839.49a.48.48,0,0,1-.28-.08,56.91,56.91,0,0,1-10.73-9,.5.5,0,0,1,0-.71.49.49,0,0,1,.7,0,56,56,0,0,0,10.55,8.87.51.51,0,0,1,.14.7A.52.52,0,0,1,654.1,839.49Z"/><path class="cls-1" d="M694.75,649.78h0c-1.3,0-2.39-1.23-3.45-3.85-4.11-10.19,4.25-22.25,12-30.57a.5.5,0,0,1,.7,0,.5.5,0,0,1,0,.71c-7.54,8.11-15.7,19.81-11.79,29.51.85,2.11,1.72,3.22,2.52,3.23h0c2,0,4.54-6.13,7-12,2.21-5.32,4.71-11.35,7.58-15.16a.49.49,0,0,1,.7-.1.51.51,0,0,1,.1.7c-2.8,3.71-5.27,9.68-7.45,14.94C699.74,644.19,697.42,649.78,694.75,649.78Z"/><polygon class="cls-1" points="685.15 887.68 689.62 893.14 663.85 893.14 685.15 887.68"/><path class="cls-1" d="M689.62,893.65H663.85a.51.51,0,0,1-.5-.44.5.5,0,0,1,.38-.55L685,887.2a.52.52,0,0,1,.52.17l4.46,5.46a.49.49,0,0,1,.07.53A.51.51,0,0,1,689.62,893.65Zm-21.8-1h20.74l-3.6-4.39Z"/><polygon class="cls-1" points="717.94 887.68 722.4 893.14 696.64 893.14 717.94 887.68"/><path class="cls-1" d="M722.4,893.65H696.64a.5.5,0,0,1-.13-1l21.3-5.46a.49.49,0,0,1,.51.17l4.47,5.46a.51.51,0,0,1,.07.53A.52.52,0,0,1,722.4,893.65Zm-21.79-1h20.74l-3.6-4.39Z"/><line class="cls-2" x1="719.39" y1="662.37" x2="712.1" y2="660.93"/><path class="cls-1" d="M719.39,662.87h-.1L712,661.42a.5.5,0,1,1,.19-1l7.29,1.44a.51.51,0,0,1,.39.59A.5.5,0,0,1,719.39,662.87Z"/><rect class="cls-1" x="393.32" y="656.14" width="426.14" height="23.63" transform="translate(491.76 -226.88) rotate(34.93)"/><rect class="cls-1" x="677.79" y="781.8" width="254.41" height="49.77" rx="24.83" transform="translate(606.98 -315.61) rotate(34.93)"/><circle class="cls-1" cx="433.66" cy="547.31" r="170.99"/><path class="cls-2" d="M557,633.42A150.41,150.41,0,1,1,576.28,499.6,150.39,150.39,0,0,1,557,633.42Z"/><path class="cls-1" d="M433.34,698.23A150.92,150.92,0,0,1,310,460.91c47.64-68.2,141.88-84.93,210.09-37.29a151,151,0,0,1,63.13,144.1A151,151,0,0,1,460,695.87,152.68,152.68,0,0,1,433.34,698.23Zm.53-300.75A149.85,149.85,0,1,0,556.54,633.14l.41.28-.41-.28a148.25,148.25,0,0,0,25.65-65.56,149.75,149.75,0,0,0-62.7-143.14A149.11,149.11,0,0,0,433.87,397.48Z"/><path class="cls-2" d="M316.57,641.74a150.44,150.44,0,0,1-32.72-81.47c121.2-17.87,136.5-12.26,111.09-54.42-18.32-30.4,77.72-54.1,143.46-66.47a149.57,149.57,0,0,1,37.88,60.22c-48.58,3.69-110.2,17.22-75.76,64.06C534.68,610.12,412.59,631.93,316.57,641.74Z"/><path class="cls-1" d="M316.57,642.24a.51.51,0,0,1-.39-.19,150.3,150.3,0,0,1-32.83-81.74.48.48,0,0,1,.42-.53c17.5-2.58,32.67-4.66,46.06-6.49,47.82-6.54,69.65-9.52,74.13-18.87,2.83-5.92-1.14-14.52-9.45-28.31a14.08,14.08,0,0,1-1.06-13.65c5.88-13.11,35.78-33,144.85-53.57a.47.47,0,0,1,.44.13,150.85,150.85,0,0,1,38,60.43.47.47,0,0,1-.06.43.5.5,0,0,1-.38.22c-32.89,2.5-74.05,9.73-83.37,30-4.2,9.15-1.52,20.34,8,33.25,6.09,8.27,7.52,16.2,4.25,23.55C491.33,618.13,395,634.23,316.62,642.24ZM284.39,560.7a149.25,149.25,0,0,0,32.4,80.51c141.31-14.46,179.94-37.73,187.47-54.7,3.1-7,1.71-14.59-4.14-22.56-9.73-13.22-12.45-24.75-8.08-34.26,5.24-11.4,24-25.93,83.56-30.54a149.86,149.86,0,0,0-37.37-59.23c-49.13,9.26-132.86,28.4-143.86,52.95a13.09,13.09,0,0,0,1,12.72c8.49,14.09,12.52,22.93,9.49,29.26-4.71,9.84-26.7,12.85-74.89,19.43C316.7,556.1,301.68,558.15,284.39,560.7Z"/><polygon class="cls-2" points="294.49 885.85 306.76 834.34 293.1 842.71 290.24 885.85 294.49 885.85"/><path class="cls-1" d="M294.49,886.36h-4.25a.5.5,0,0,1-.5-.54l2.86-43.14a.5.5,0,0,1,.24-.4l13.66-8.37a.48.48,0,0,1,.55,0,.5.5,0,0,1,.2.52L295,886A.51.51,0,0,1,294.49,886.36Zm-3.72-1h3.32l11.9-50L293.58,843Z"/><polygon class="cls-2" points="243.29 885.85 241.9 809.46 258.33 810.23 247.99 885.85 243.29 885.85"/><path class="cls-1" d="M248,886.36h-4.7a.51.51,0,0,1-.5-.5l-1.39-76.39a.56.56,0,0,1,.15-.37.53.53,0,0,1,.38-.14l16.43.77a.5.5,0,0,1,.47.57l-10.34,75.62A.51.51,0,0,1,248,886.36Zm-4.2-1h3.77l10.2-74.64L242.42,810Z"/><polygon class="cls-2" points="277.31 623.59 267.72 623.59 278.36 601.74 287.95 601.74 277.31 623.59"/><path class="cls-1" d="M277.31,624.09h-9.59a.5.5,0,0,1-.42-.23.53.53,0,0,1,0-.49l10.64-21.85a.51.51,0,0,1,.45-.28H288a.5.5,0,0,1,.42.23.53.53,0,0,1,0,.49l-10.64,21.85A.51.51,0,0,1,277.31,624.09Zm-8.79-1H277l10.16-20.85h-8.47Z"/><circle class="cls-2" cx="281.36" cy="599.61" r="13.71"/><path class="cls-1" d="M281.36,613.82a14.21,14.21,0,1,1,14.21-14.21A14.23,14.23,0,0,1,281.36,613.82Zm0-27.41a13.21,13.21,0,1,0,13.21,13.2A13.21,13.21,0,0,0,281.36,586.41Z"/><polygon class="cls-1" points="317.96 791.33 305.74 863.19 287.03 863.19 296.37 793.3 273.48 702.85 263.66 792.01 257.1 863.19 240.49 863.19 242.29 794.91 242.29 683.09 304.45 683.09 317.96 791.33"/><path class="cls-3" d="M304.45,647.58v35.51H242.28V647.58a31.09,31.09,0,0,1,62-3.47A30.65,30.65,0,0,1,304.45,647.58Z"/><path class="cls-1" d="M304.45,683.6H242.28a.51.51,0,0,1-.5-.5V647.58a31.59,31.59,0,1,1,63.17,0V683.1A.5.5,0,0,1,304.45,683.6Zm-61.67-1H304v-35a31.88,31.88,0,0,0-.19-3.41,30.59,30.59,0,0,0-61,3.41Z"/><polygon class="cls-1" points="266.32 890.98 242.88 890.98 243.07 885.85 247.77 885.85 266.32 890.98"/><path class="cls-1" d="M266.32,891.48H242.88a.48.48,0,0,1-.36-.15.47.47,0,0,1-.14-.37l.19-5.12a.51.51,0,0,1,.5-.49h4.7l.13,0,18.55,5.13a.5.5,0,0,1-.13,1Zm-22.92-1h19.23l-14.93-4.12h-4.15Z"/><polygon class="cls-1" points="315.11 890.98 289.75 890.98 290.24 885.85 294.49 885.85 315.11 890.98"/><path class="cls-1" d="M315.11,891.48H289.75a.51.51,0,0,1-.37-.16.48.48,0,0,1-.13-.38l.49-5.13a.5.5,0,0,1,.5-.46h4.25l.12,0,20.62,5.13a.49.49,0,0,1,.37.54A.49.49,0,0,1,315.11,891.48Zm-24.81-1H311l-16.59-4.12h-3.74Z"/><path class="cls-1" d="M301.67,583.46c-2.47-5.46-8.54-.24-8.54-.24s10.06-13.42-1-14.36c-4.15-.36-7,1.67-9.28,4.55-1.59,2-3.24,3.9-5,5.72,2.17-3,3.34-5.93.22-6.24-5.35-.54-6.42,8.16-6.64,11.9-.52.37-1.05.74-1.59,1.08-14.19,9-4.67,26.21,4.62,27.73,11.33,1.85,12-4.23,12-4.23s-4.74,3.07-5.14-1.69c-.35-4.17,4.9-2.28,4.9-2.28v-.21a14.6,14.6,0,0,1,8.85-14.51C298.82,589.07,303,586.45,301.67,583.46Z"/><path class="cls-1" d="M278.49,614.45a25.3,25.3,0,0,1-4.06-.36c-5.38-.88-10.63-6.63-11.95-13.1-.74-3.65-.8-10.52,7.14-15.54q.7-.45,1.38-.93c.2-3.23,1-8.72,3.69-11a4.5,4.5,0,0,1,3.48-1.08,2.42,2.42,0,0,1,2.17,1.27,2.86,2.86,0,0,1,0,2c.68-.79,1.39-1.65,2.14-2.57,1.81-2.24,4.78-5.17,9.71-4.74,2.69.23,4.45,1.21,5.21,2.91,1.35,3-.87,7.52-2.47,10.15a6.41,6.41,0,0,1,4.22-.86,4.33,4.33,0,0,1,3,2.69h0a3.24,3.24,0,0,1,.07,2.57c-.9,2.32-4.25,4.17-6.9,5.32a14.12,14.12,0,0,0-8.55,14v.21a.5.5,0,0,1-.2.44.49.49,0,0,1-.47.07c-.7-.25-2.73-.74-3.68,0a1.89,1.89,0,0,0-.55,1.78c.09,1.08.42,1.77,1,2,1,.52,2.79-.35,3.37-.73a.52.52,0,0,1,.54,0,.51.51,0,0,1,.23.48,5.08,5.08,0,0,1-2.09,3.28A10.37,10.37,0,0,1,278.49,614.45Zm-.85-41.08a3.43,3.43,0,0,0-2.3.86c-2.61,2.23-3.22,8.15-3.36,10.59a.49.49,0,0,1-.21.38c-.53.37-1.06.75-1.61,1.09-7.44,4.71-7.39,11.1-6.7,14.5,1.22,6,6.21,11.51,11.13,12.31,4.37.72,7.73.31,9.7-1.2a4.69,4.69,0,0,0,1.33-1.52,4,4,0,0,1-3.21.2,3.17,3.17,0,0,1-1.55-2.86,2.85,2.85,0,0,1,.94-2.66c1.12-.86,2.92-.59,3.91-.34a15.14,15.14,0,0,1,9.19-14.5c3.5-1.51,5.76-3.2,6.36-4.76a2.21,2.21,0,0,0-.05-1.8,3.38,3.38,0,0,0-2.27-2.12c-2.42-.53-5.45,2-5.48,2.06a.5.5,0,0,1-.67,0,.52.52,0,0,1-.06-.67c.06-.07,5.49-7.4,3.76-11.25-.6-1.34-2.07-2.12-4.38-2.31-3.42-.3-6.16,1-8.84,4.37-1.84,2.27-3.43,4.1-5,5.75a.52.52,0,0,1-.69,0,.5.5,0,0,1-.08-.68c2.18-3.05,2.14-4.3,1.93-4.77s-.63-.61-1.36-.68A3.17,3.17,0,0,0,277.64,573.37Z"/><path class="cls-2" d="M300.72,863.69h-.09a.49.49,0,0,1-.4-.58L312.93,792,291.88,683.19a.5.5,0,1,1,1-.19l21.07,108.91a.41.41,0,0,1,0,.19l-12.73,71.18A.49.49,0,0,1,300.72,863.69Z"/><path class="cls-1" d="M276.59,715.63a.51.51,0,0,1-.49-.38l-3-12-12.93-5.61a.51.51,0,0,1-.26-.66.5.5,0,0,1,.66-.26l13.15,5.71a.52.52,0,0,1,.29.34l3.1,12.28a.49.49,0,0,1-.36.6A.25.25,0,0,1,276.59,715.63Z"/><path class="cls-2" d="M289.19,620.83l40.5,62.26,22.65,14.64,18.38-4.29-6,10.35,16,6.11s-37.93,17.49-72.25-22.73C277.09,650.4,289.19,620.83,289.19,620.83Z"/><path class="cls-1" d="M360.36,714.09c-14.23,0-33.85-5-52.28-26.6-16.29-19.09-20.69-36.23-21.52-47.24-.89-12,2-19.31,2.16-19.61a.49.49,0,0,1,.42-.31.54.54,0,0,1,.47.22l40.44,62.18,22.39,14.47L370.6,693a.5.5,0,0,1,.55.74l-5.69,9.84,15.43,5.9a.53.53,0,0,1,.32.46.52.52,0,0,1-.29.47A54.51,54.51,0,0,1,360.36,714.09Zm-71-92.13c-1.67,5.32-8.19,32.41,19.52,64.88,30.34,35.58,63.87,25.53,70.48,23.07l-14.77-5.65a.52.52,0,0,1-.3-.3.52.52,0,0,1,0-.42l5.4-9.35-17.24,4a.5.5,0,0,1-.39-.07l-22.65-14.64a.4.4,0,0,1-.15-.14Z"/><path class="cls-2" d="M715.1,632.49s-4.89,79.93-53.57,90.27c0,0-17.19,3.31-18.07-14.49l13.15.6,28.47-25.74,13.27-40.89C702.92,630.7,715.1,632.49,715.1,632.49Z"/><path class="cls-1" d="M658.38,723.52a16.37,16.37,0,0,1-10.06-3.11c-3.29-2.59-5.09-6.66-5.36-12.12l0-.55,13.5.62,28.22-25.51,13.23-40.77c4.67-11.8,17.17-10.1,17.3-10.09l.45.07,0,.46a177.85,177.85,0,0,1-8.55,41.39c-9.63,28-25.33,45.08-45.42,49.35A19.23,19.23,0,0,1,658.38,723.52ZM644,708.8c.34,4.87,2,8.51,4.94,10.82,5.11,4,12.42,2.67,12.49,2.65,45.81-9.73,52.62-82.71,53.14-89.34-2.24-.19-11.83-.42-15.75,9.49l-13.3,41-28.72,26Z"/><path class="cls-3" d="M311.31,642.65l-17.84,27.4s-16.74-21-4.28-49.22Z"/><path class="cls-1" d="M293.47,670.55a.48.48,0,0,1-.39-.18c-.17-.22-16.79-21.59-4.35-49.75a.5.5,0,0,1,.81-.15l22.13,21.82a.53.53,0,0,1,.06.64l-17.84,27.4a.5.5,0,0,1-.4.22Zm-4.11-48.85a49.37,49.37,0,0,0,4.08,47.47l17.23-26.45Z"/><polygon class="cls-2" points="1046.36 275.2 1046.36 542.39 981.78 586.91 815.95 586.91 815.95 275.2 1046.36 275.2"/><path class="cls-1" d="M981.79,587.41H816a.5.5,0,0,1-.5-.5V275.2a.5.5,0,0,1,.5-.5h230.41a.5.5,0,0,1,.5.5V542.39a.49.49,0,0,1-.22.41l-64.57,44.52A.47.47,0,0,1,981.79,587.41Zm-165.34-1H981.63l64.23-44.29V275.7H816.45Z"/><circle class="cls-2" cx="848.76" cy="361.05" r="21.37"/><path class="cls-1" d="M848.76,382.92a21.87,21.87,0,1,1,21.87-21.87A21.9,21.9,0,0,1,848.76,382.92Zm0-42.74a20.87,20.87,0,1,0,20.87,20.87A20.89,20.89,0,0,0,848.76,340.18Z"/><path class="cls-1" d="M843.81,370.82h0a2,2,0,0,1-1.42-.59l-7.76-7.76a2,2,0,1,1,2.84-2.83l6.34,6.34,24.9-24.9a2,2,0,0,1,2.83,2.83l-26.31,26.32A2,2,0,0,1,843.81,370.82Z"/><rect class="cls-2" x="893.22" y="355.65" width="130.09" height="13.16"/><path class="cls-1" d="M1023.31,369.31H893.22a.5.5,0,0,1-.5-.5V355.65a.5.5,0,0,1,.5-.5h130.09a.51.51,0,0,1,.5.5v13.16A.5.5,0,0,1,1023.31,369.31Zm-129.59-1h129.09V356.15H893.72Z"/><circle class="cls-2" cx="848.76" cy="416.86" r="21.37"/><path class="cls-1" d="M848.76,438.73a21.87,21.87,0,1,1,21.87-21.87A21.9,21.9,0,0,1,848.76,438.73Zm0-42.74a20.87,20.87,0,1,0,20.87,20.87A20.89,20.89,0,0,0,848.76,396Z"/><path class="cls-1" d="M843.81,426.62a2,2,0,0,1-1.42-.58l-7.76-7.76a2,2,0,1,1,2.84-2.83l6.34,6.34,24.9-24.9a2,2,0,0,1,2.83,2.83L845.23,426A2,2,0,0,1,843.81,426.62Z"/><rect class="cls-2" x="893.22" y="411.46" width="130.09" height="13.16"/><path class="cls-1" d="M1023.31,425.12H893.22a.5.5,0,0,1-.5-.5V411.46a.5.5,0,0,1,.5-.5h130.09a.5.5,0,0,1,.5.5v13.16A.5.5,0,0,1,1023.31,425.12Zm-129.59-1h129.09V412H893.72Z"/><circle class="cls-2" cx="848.76" cy="472.67" r="21.37"/><path class="cls-1" d="M848.76,494.54a21.87,21.87,0,1,1,21.87-21.87A21.9,21.9,0,0,1,848.76,494.54Zm0-42.74a20.87,20.87,0,1,0,20.87,20.87A20.89,20.89,0,0,0,848.76,451.8Z"/><path class="cls-1" d="M843.81,482.43a2,2,0,0,1-1.42-.58l-7.76-7.76a2,2,0,1,1,2.84-2.84l6.34,6.35,24.9-24.91a2,2,0,0,1,2.83,2.84l-26.31,26.32A2,2,0,0,1,843.81,482.43Z"/><rect class="cls-2" x="893.22" y="467.27" width="130.09" height="13.16"/><path class="cls-1" d="M1023.31,480.93H893.22a.5.5,0,0,1-.5-.5V467.27a.5.5,0,0,1,.5-.5h130.09a.5.5,0,0,1,.5.5v13.16A.5.5,0,0,1,1023.31,480.93Zm-129.59-1h129.09V467.77H893.72Z"/><circle class="cls-2" cx="848.76" cy="528.48" r="21.37"/><path class="cls-1" d="M848.76,550.35a21.87,21.87,0,1,1,21.87-21.87A21.9,21.9,0,0,1,848.76,550.35Zm0-42.74a20.87,20.87,0,1,0,20.87,20.87A20.89,20.89,0,0,0,848.76,507.61Z"/><path class="cls-1" d="M843.81,538.24a2,2,0,0,1-1.42-.58l-7.76-7.76a2,2,0,0,1,2.84-2.84l6.34,6.35,24.9-24.91a2,2,0,1,1,2.83,2.84l-26.31,26.32A2,2,0,0,1,843.81,538.24Z"/><rect class="cls-2" x="893.22" y="523.08" width="130.09" height="13.16"/><path class="cls-1" d="M1023.31,536.74H893.22a.5.5,0,0,1-.5-.5V523.08a.5.5,0,0,1,.5-.5h130.09a.5.5,0,0,1,.5.5v13.16A.5.5,0,0,1,1023.31,536.74Zm-129.59-1h129.09V523.58H893.72Z"/><path class="cls-2" d="M1046.36,542.39l-64.57,44.52a79.59,79.59,0,0,0,34.31-61.43l.58-11.15Z"/><path class="cls-1" d="M981.79,587.41a.5.5,0,0,1-.29-.91l0,0a79.6,79.6,0,0,0,34.07-61l.58-11.16a.5.5,0,0,1,.31-.44.51.51,0,0,1,.53.1L1046.7,542a.51.51,0,0,1,.16.4.49.49,0,0,1-.22.38l-64.57,44.52h0A.51.51,0,0,1,981.79,587.41Zm35.33-72-.52,10.07a80.71,80.71,0,0,1-24.78,53.88l53.75-37.06Z"/><rect class="cls-1" x="815.95" y="275.2" width="230.41" height="48.18"/><path class="cls-1" d="M1046.36,323.88H816a.5.5,0,0,1-.5-.5V275.2a.5.5,0,0,1,.5-.5h230.41a.5.5,0,0,1,.5.5v48.18A.5.5,0,0,1,1046.36,323.88Zm-229.91-1h229.41V275.7H816.45Z"/><rect class="cls-2" x="827.38" y="285.6" width="42.74" height="25.4" rx="9.06"/><path class="cls-1" d="M861.05,311.5H836.46a9.59,9.59,0,0,1-9.58-9.58v-7.24a9.59,9.59,0,0,1,9.58-9.58h24.59a9.59,9.59,0,0,1,9.58,9.58v7.24A9.59,9.59,0,0,1,861.05,311.5Zm-24.59-25.4a8.58,8.58,0,0,0-8.57,8.58v7.24a8.57,8.57,0,0,0,8.57,8.57h24.59a8.58,8.58,0,0,0,8.58-8.57v-7.24a8.59,8.59,0,0,0-8.58-8.58Z"/><rect class="cls-2" x="893.22" y="294.42" width="130.09" height="7.74"/><path class="cls-1" d="M1023.31,302.67H893.22a.5.5,0,0,1-.5-.5v-7.75a.5.5,0,0,1,.5-.5h130.09a.51.51,0,0,1,.5.5v7.75A.5.5,0,0,1,1023.31,302.67Zm-129.59-1h129.09v-6.74H893.72Z"/></svg>