<svg xmlns:xlink="http://www.w3.org/1999/xlink" xmlns="http://www.w3.org/2000/svg" version="1.1" viewBox="0 0 1240 735" height="735px" width="1240px">
    <title>植物</title>
    <defs>
        <polygon points="0.67528938 0.0623 21.2039612 0.0623 21.2039612 57.33763 0.67528938 57.33763" id="path-1"></polygon>
        <polygon points="0 734.3 1239.56964 734.3 1239.56964 0.0623 0 0.0623" id="path-3"></polygon>
    </defs>
    <g fill-rule="evenodd" fill="none" stroke-width="1" stroke="none" id="Page-1">
        <g transform="translate(-3275.000000, -2503.000000)" id="背景">
            <g transform="translate(3275.000000, 2503.637000)" id="植物">
                <g transform="translate(620.699774, 0.000000)" id="Group-3">
                    <mask fill="white" id="mask-2">
                        <use xlink:href="#path-1"></use>
                    </mask>
                    <g id="Clip-2"></g>
                    <path mask="url(#mask-2)" fill="#C3E4FF" id="Fill-1" d="M20.7739187,28.03143 C23.1097652,43.84793 15.1687269,57.33763 15.1687269,57.33763 C15.1687269,57.33763 3.44051016,45.18423 1.10536343,29.36843 C-1.23048307,13.55193 6.70985553,0.06223 6.70985553,0.06223 C6.70985553,0.06223 18.4380722,12.21563 20.7739187,28.03143"></path>
                </g>
                <path fill="#C3E4FF" id="Fill-4" d="M638.056135,38.36322 C648.503065,52.59142 648.124488,67.11502 648.124488,67.11502 C648.124488,67.11502 630.809273,58.56942 620.362343,44.34192 C609.915413,30.11302 610.293991,15.59012 610.293991,15.59012 C610.293991,15.59012 627.609205,24.13502 638.056135,38.36322"></path>
                <path fill="#C3E4FF" id="Fill-6" d="M651.170745,29.75168 C648.39614,45.53528 636.332731,57.53608 636.332731,57.53608 C636.332731,57.53608 628.767472,43.94698 631.542777,28.16338 C634.317381,12.38048 646.38079,0.37968 646.38079,0.37968 C646.38079,0.37968 653.94605,13.96808 651.170745,29.75168"></path>
                <path fill="#C3E4FF" id="Fill-8" d="M659.870758,41.18548 C651.128479,55.93308 634.871323,65.38728 634.871323,65.38728 C634.871323,65.38728 632.788795,50.93018 641.530375,36.18258 C650.272655,21.43498 666.52981,11.98148 666.52981,11.98148 C666.52981,11.98148 668.613038,26.43788 659.870758,41.18548"></path>
                <path fill="#D6EEFF" id="Fill-10" d="M638.519456,222.23558 L638.519456,222.23558 C616.315619,222.23558 598.148079,204.06288 598.148079,181.85118 L598.148079,73.51288 C598.148079,51.30118 616.315619,33.12778 638.519456,33.12778 C660.723993,33.12778 678.890833,51.30118 678.890833,73.51288 L678.890833,181.85118 C678.890833,204.06288 660.723993,222.23558 638.519456,222.23558"></path>
                <path fill="#D6EEFF" id="Fill-12" d="M638.519456,547.46664 L638.519456,547.46664 C616.315619,547.46664 598.148079,529.29324 598.148079,507.08224 L598.148079,244.95884 C598.148079,222.74714 616.315619,204.57444 638.519456,204.57444 C660.723993,204.57444 678.890833,222.74714 678.890833,244.95884 L678.890833,507.08224 C678.890833,529.29324 660.723993,547.46664 638.519456,547.46664"></path>
                <path fill="#D6EEFF" id="Fill-14" d="M648.746167,317.72475 L648.746167,329.21175 C648.746167,341.74175 638.591743,351.89875 626.066483,351.89875 L549.557363,351.89875 C508.847995,351.89875 475.845941,318.88605 475.845941,278.16285 L475.845941,226.22425 C475.845941,209.33185 489.535625,195.63775 506.422578,195.63775 C523.30953,195.63775 536.999214,209.33185 536.999214,226.22425 L536.999214,270.69875 C536.999214,284.14085 547.8926,295.03775 561.330366,295.03775 L626.066483,295.03775 C638.591743,295.03775 648.746167,305.19545 648.746167,317.72475"></path>
                <path fill="#D6EEFF" id="Fill-16" d="M632.413506,444.56559 L632.413506,454.98719 C632.413506,466.35379 641.625334,475.56929 652.988968,475.56929 L722.400278,475.56929 C759.332964,475.56929 789.273506,445.61909 789.273506,408.67449 L789.273506,361.55399 C789.273506,346.22889 776.853912,333.80459 761.533754,333.80459 C746.212896,333.80459 733.793302,346.22889 733.793302,361.55399 L733.793302,401.90199 C733.793302,414.09739 723.910391,423.98349 711.719623,423.98349 L652.988968,423.98349 C641.625334,423.98349 632.413506,433.19829 632.413506,444.56559"></path>
                <path fill="#E8F6FF" id="Fill-18" d="M691.595025,619.40529 L599.009291,619.40529 C575.087508,619.40529 555.515521,599.82629 555.515521,575.89749 L555.515521,491.03579 L735.088095,491.03579 L735.088095,575.89749 C735.088095,599.82629 715.516808,619.40529 691.595025,619.40529"></path>
                <line stroke-width="6.3" stroke="#D6EEFF" id="Stroke-20" y2="536.26664" x2="590.396749" y1="536.26664" x1="735.088375"></line>
                <line stroke-width="6.3" stroke="#D6EEFF" id="Stroke-22" y2="570.96172" x2="587.956637" y1="570.96172" x1="735.088375"></line>
                <line stroke-width="6.3" stroke="#BBE0FF" id="Stroke-24" y2="230.32737" x2="464.652702" y1="243.68127" x1="481.877646"></line>
                <line stroke-width="6.3" stroke="#BBE0FF" id="Stroke-26" y2="204.57395" x2="542.596989" y1="214.05125" x1="528.385973"></line>
                <line stroke-width="6.3" stroke="#BBE0FF" id="Stroke-28" y2="263.3743" x2="547.333271" y1="271.7743" x1="528.816544"></line>
                <line stroke-width="6.3" stroke="#BBE0FF" id="Stroke-30" y2="289.00522" x2="491.885677" y1="301.92792" x1="510.473081"></line>
                <line stroke-width="6.3" stroke="#BBE0FF" id="Stroke-32" y2="289.00466" x2="574.720196" y1="303.22026" x1="565.850558"></line>
                <line stroke-width="6.3" stroke="#BBE0FF" id="Stroke-34" y2="234.08196" x2="670.493612" y1="244.42026" x1="651.782348"></line>
                <line stroke-width="6.3" stroke="#BBE0FF" id="Stroke-36" y2="301.92778" x2="616.449765" y1="315.49728" x1="630.014889"></line>
                <line stroke-width="6.3" stroke="#BBE0FF" id="Stroke-38" y2="360.72771" x2="692.456307" y1="370.95891" x1="674.369941"></line>
                <line stroke-width="6.3" stroke="#BBE0FF" id="Stroke-40" y2="394.82681" x2="610.292871" y1="409.15441" x1="623.232397"></line>
                <line stroke-width="6.3" stroke="#BBE0FF" id="Stroke-42" y2="417.8118" x2="693.102129" y1="431.3743" x1="704.082986"></line>
                <line stroke-width="6.3" stroke="#BBE0FF" id="Stroke-44" y2="354.93311" x2="727.983287" y1="370.95891" x1="744.777869"></line>
                <line stroke-width="6.3" stroke="#BBE0FF" id="Stroke-46" y2="390.59398" x2="798.175824" y1="401.99068" x1="782.673025"></line>
                <line stroke-width="6.3" stroke="#BBE0FF" id="Stroke-48" y2="325.83572" x2="778.151503" y1="341.98962" x1="771.691887"></line>
                <line stroke-width="6.3" stroke="#BBE0FF" id="Stroke-50" y2="148.14324" x2="687.288054" y1="161.06664" x1="666.74688"></line>
                <line stroke-width="6.3" stroke="#BBE0FF" id="Stroke-52" y2="57.53594" x2="598.148149" y1="70.60494" x1="610.292731"></line>
                <line stroke-width="6.3" stroke="#BBE0FF" id="Stroke-54" y2="49.92764" x2="687.933946" y1="64.07044" x1="672.431847"></line>
                <line stroke-width="6.3" stroke="#BBE0FF" id="Stroke-56" y2="124.23586" x2="610.292871" y1="135.22026" x1="629.209169"></line>
                <line stroke-width="6.3" stroke="#BBE0FF" id="Stroke-58" y2="188.85146" x2="587.956217" y1="195.63796" x1="607.191612"></line>
                <line stroke-width="6.3" stroke="#FFFFFF" id="Stroke-60" y2="92.57458" x2="666.74709" y1="105.49728" x1="648.746797"></line>
                <line stroke-width="6.3" stroke="#FFFFFF" id="Stroke-62" y2="265.85132" x2="619.464533" y1="276.72792" x1="636.043585"></line>
                <line stroke-width="6.3" stroke="#FFFFFF" id="Stroke-64" y2="417.81194" x2="654.991792" y1="440.20494" x1="649.875043"></line>
                <line stroke-width="6.3" stroke="#FFFFFF" id="Stroke-66" y2="431.37444" x2="760.280458" y1="440.20494" x1="746.069442"></line>
                <line stroke-width="6.3" stroke="#FFFFFF" id="Stroke-68" y2="323.2516" x2="535.491271" y1="329.7126" x1="556.459307"></line>
                <path fill="#D6EEFF" id="Fill-70" d="M156.862239,619.71294 L176.671449,619.71294 C182.438289,619.71294 187.113481,615.03554 187.113481,609.26684 L187.113481,569.31294 L146.419508,569.31294 L146.419508,609.26684 C146.419508,615.03554 151.0947,619.71294 156.862239,619.71294"></path>
                <path stroke-width="7" stroke="#D6EEFF" id="Stroke-72" d="M186.046045,605.5147 C192.828957,605.5147 198.327783,600.0148 198.327783,593.229 C198.327783,586.4439 192.828957,580.9433 186.046045,580.9433"></path>
                <path fill="#D6EEFF" id="Fill-74" d="M115.932652,580.98936 C120.561659,585.61986 127.639876,586.04826 131.741953,581.94416 C135.844029,577.84076 135.416467,570.76096 130.78746,566.12976"></path>
                <polygon points="124.386625 580.91691 152.120779 608.66001 158.448837 602.32991 130.714684 574.58681" fill="#D6EEFF" id="Fill-76"></polygon>
                <path fill="#E4F6FF" id="Fill-78" d="M536.806497,420.27993 C539.693765,439.83023 529.878731,456.50493 529.878731,456.50493 C529.878731,456.50493 515.380808,441.48293 512.49354,421.93193 C509.606271,402.38163 519.422005,385.70623 519.422005,385.70623 C519.422005,385.70623 533.919228,400.72893 536.806497,420.27993"></path>
                <path fill="#E4F6FF" id="Fill-80" d="M532.582239,433.0508 C545.495174,450.6383 545.027725,468.5905 545.027725,468.5905 C545.027725,468.5905 523.623729,458.0282 510.710795,440.4407 C497.79716,422.8532 498.265309,404.9003 498.265309,404.9003 C498.265309,404.9003 519.669305,415.4633 532.582239,433.0508"></path>
                <path fill="#E4F6FF" id="Fill-82" d="M548.79356,422.4059 C545.363966,441.9163 530.451777,456.7507 530.451777,456.7507 C530.451777,456.7507 521.100693,439.9535 524.530986,420.4431 C527.96058,400.9327 542.87277,386.0983 542.87277,386.0983 C542.87277,386.0983 552.223153,402.8955 548.79356,422.4059"></path>
                <path fill="#E4F6FF" id="Fill-84" d="M559.547481,436.53953 C548.740867,454.76893 528.645449,466.45543 528.645449,466.45543 C528.645449,466.45543 526.07098,448.58513 536.877594,430.35573 C547.683508,412.12633 567.778926,400.43983 567.778926,400.43983 C567.778926,400.43983 570.353395,418.31013 559.547481,436.53953"></path>
                <path fill="#C3E4FF" id="Fill-86" d="M634.654323,494.71233 C634.654323,533.34393 589.211682,564.66193 533.154865,564.66193 C477.098747,564.66193 431.655406,533.34393 431.655406,494.71233 C431.655406,456.08003 477.098747,424.76273 533.154865,424.76273 C589.211682,424.76273 634.654323,456.08003 634.654323,494.71233"></path>
                <path fill="#D6EEFF" id="Fill-88" d="M596.024544,619.40529 L480.576485,619.40529 C462.857501,619.40529 448.493935,605.03709 448.493935,587.31239 L448.493935,581.78169 C448.493935,564.05769 462.857501,549.68879 480.576485,549.68879 L596.024544,549.68879 C613.742129,549.68879 628.106395,564.05769 628.106395,581.78169 L628.106395,587.31239 C628.106395,605.03709 613.742129,619.40529 596.024544,619.40529"></path>
                <line stroke-width="6.3" stroke="#AAD5FF" id="Stroke-90" y2="430.84496" x2="456.446169" y1="445.34966" x1="475.155334"></line>
                <line stroke-width="6.3" stroke="#AAD5FF" id="Stroke-92" y2="531.93504" x2="431.655546" y1="520.39974" x1="448.494214"></line>
                <line stroke-width="6.3" stroke="#AAD5FF" id="Stroke-94" y2="518.82383" x2="526.491054" y1="514.10723" x1="497.432928"></line>
                <line stroke-width="6.3" stroke="#AAD5FF" id="Stroke-96" y2="421.42464" x2="589.283619" y1="442.99024" x1="571.738878"></line>
                <line stroke-width="6.3" stroke="#AAD5FF" id="Stroke-98" y2="454.23959" x2="622.960885" y1="466.45529" x1="603.783571"></line>
                <line stroke-width="6.3" stroke="#AAD5FF" id="Stroke-100" y2="541.26716" x2="625.76747" y1="529.57016" x1="607.525754"></line>
                <line stroke-width="6.3" stroke="#FFFFFF" id="Stroke-102" y2="451.21307" x2="497.187097" y1="471.28697" x1="505.867797"></line>
                <line stroke-width="6.3" stroke="#FFFFFF" id="Stroke-104" y2="503.05815" x2="568.046659" y1="493.17905" x1="588.90693"></line>
                <line stroke-width="6.3" stroke="#FFFFFF" id="Stroke-106" y2="468.55557" x2="468.144856" y1="481.69807" x1="488.003749"></line>
                <polyline points="448.494214 577.5427 484.414327 591.5518 520.33584 577.5427 556.255953 591.5518 592.180964 577.5427 628.105975 591.5518" stroke-width="6.3" stroke="#AAD5FF" id="Stroke-108"></polyline>
                <path fill="#AAD5FF" id="Fill-110" d="M295.46163,559.20872 L387.102668,381.74262 C394.518876,409.12522 427.882014,423.25892 421.828266,443.30972 C415.77102,463.35912 401.94628,443.57642 393.550388,460.96372 C385.154497,478.35172 412.431698,517.66162 392.293594,537.59762 C377.67251,552.07222 361.39716,531.86392 340.834293,537.70542 C320.271427,543.54692 331.666551,573.74212 309.872781,567.23562 C304.362758,565.58992 299.568605,562.77802 295.46163,559.20872"></path>
                <path fill="#D6EEFF" id="Fill-112" d="M346.48672,249.27924 L330.14979,558.22774 C303.753605,558.65614 283.656788,550.11614 282.506359,539.29484 C279.690467,512.85374 303.441506,512.97484 303.563266,499.27234 C303.761302,477.53944 266.652273,480.03634 263.641844,455.29904 C260.636314,430.56104 286.541257,431.15254 287.329203,407.97694 C288.117149,384.80134 239.934192,357.74914 252.191438,325.41824 C261.090467,301.94444 288.293492,314.61584 307.721325,297.11024 C327.148458,279.60394 300.461167,253.58774 327.098774,248.59954 C333.833402,247.33814 340.351099,247.71614 346.48672,249.27924"></path>
                <path fill="#C3E4FF" id="Fill-114" d="M221.426352,384.91215 C193.010619,364.93345 154.125562,394.38035 136.979693,414.53545 L322.367391,577.71175 C332.064862,558.94475 329.87107,534.90185 323.14344,525.39515 C314.162537,512.70765 293.009061,528.13425 285.108609,511.15645 C277.211657,494.17935 311.986939,473.11705 298.894163,452.42015 C290.198767,438.67075 231.249084,439.26155 226.210709,435.68315 C206.973914,422.03315 245.034637,401.51055 221.426352,384.91215"></path>
                <path fill="#E8F6FF" id="Fill-116" d="M342.647199,619.40529 L286.891284,619.40529 C286.47212,619.40529 286.055054,619.39689 285.640088,619.38149 C260.216589,618.43089 246.072052,586.26309 260.471307,563.05599 L273.243587,542.46969 L356.294896,542.46969 L369.067176,563.05599 C383.466431,586.26309 369.321894,618.43089 343.898395,619.38149 C343.482729,619.39689 343.066363,619.40529 342.647199,619.40529"></path>
                <line stroke-width="6.3" stroke="#AAD5FF" id="Stroke-118" y2="589.81664" x2="374.829817" y1="589.81664" x1="254.708666"></line>
                <line stroke-width="6.3" stroke="#AAD5FF" id="Stroke-120" y2="569.92061" x2="372.428122" y1="569.92061" x1="257.496497"></line>
                <path fill="#AAD5FF" id="Fill-122" d="M898.679713,530.65502 L991.4117,262.84552 C999.176395,299.29592 1033.42895,311.43322 1027.35491,340.71842 C1021.27737,370.00362 1006.99777,345.58482 998.50881,371.69202 C990.019849,397.79992 1018.19766,446.36732 997.701271,478.67652 C982.818472,502.13492 966.026688,477.67692 945.006869,490.45892 C923.98705,503.24022 935.844025,542.70692 913.486937,538.57342 C907.83486,537.52832 902.907749,534.69612 898.679713,530.65502"></path>
                <path fill="#C3E4FF" id="Fill-124" d="M890.60019,519.59789 L794.472199,263.37409 C773.865246,270.89139 760.571634,284.10669 762.60098,293.59519 C767.557481,316.78269 785.961544,309.59089 789.75712,321.13459 C795.780777,339.44239 766.299287,348.40869 770.644185,370.21299 C774.992582,392.01729 794.942447,383.78459 801.81353,403.13609 C808.684614,422.48759 778.588722,459.73109 796.835336,483.39599 C810.084163,500.57819 827.778655,481.74959 847.587865,490.74529 C867.397774,499.74169 853.707391,529.69399 875.733485,525.95949 C881.301589,525.01449 886.25949,522.74999 890.60019,519.59789"></path>
                <path fill="#D6EEFF" id="Fill-126" d="M847.16772,472.93848 C851.054966,521.02288 903.40298,530.64788 932.424718,527.79958 L934.255327,181.61248 C911.74009,190.51088 893.405305,216.48228 890.370384,232.59138 C886.32009,254.09258 914.306862,259.91588 905.927765,284.58528 C897.545869,309.24978 855.096862,295.42618 847.371354,328.94848 C842.236411,351.21618 885.115779,409.38478 885.774966,417.94648 C888.303251,450.62178 843.937562,432.98948 847.16772,472.93848"></path>
                <path fill="#E8F6FF" id="Fill-128" d="M962.192415,619.40529 L844.630339,619.40529 C830.063138,619.40529 818.254447,607.59209 818.254447,593.02089 L834.349255,494.91239 L972.473499,494.91239 L988.568307,593.02089 C988.568307,607.59209 976.758916,619.40529 962.192415,619.40529"></path>
                <mask fill="white" id="mask-4">
                    <use xlink:href="#path-3"></use>
                </mask>
                <g id="Clip-131"></g>
                <polygon points="842.081761 578.3498 881.544831 578.3498 881.544831 538.8747 842.081761 538.8747" mask="url(#mask-4)" fill="#D6EEFF" id="Fill-130"></polygon>
                <polygon points="927.712158 586.5258 899.807959 558.6126 927.712158 530.6994 955.616357 558.6126" mask="url(#mask-4)" fill="#D6EEFF" id="Fill-132"></polygon>
                <path mask="url(#mask-4)" fill="#C3E4FF" id="Fill-133" d="M1098.15912,516.10678 C1098.15912,548.48668 1068.26126,574.73528 1031.38106,574.73528 C994.500853,574.73528 964.603698,548.48668 964.603698,516.10678 C964.603698,483.72618 994.500853,457.47758 1031.38106,457.47758 C1068.26126,457.47758 1098.15912,483.72618 1098.15912,516.10678"></path>
                <path mask="url(#mask-4)" fill="#C3E4FF" id="Fill-134" d="M1053.91344,440.52183 C1053.91344,461.23133 1036.39669,478.01943 1014.78906,478.01943 C993.181429,478.01943 975.664679,461.23133 975.664679,440.52183 C975.664679,419.81233 993.181429,403.02423 1014.78906,403.02423 C1036.39669,403.02423 1053.91344,419.81233 1053.91344,440.52183"></path>
                <path mask="url(#mask-4)" fill="#C3E4FF" id="Fill-135" d="M1129.70431,480.0684 C1129.70431,494.1013 1118.33228,505.477 1104.3039,505.477 C1090.27623,505.477 1078.9035,494.1013 1078.9035,480.0684 C1078.9035,466.0362 1090.27623,454.6605 1104.3039,454.6605 C1118.33228,454.6605 1129.70431,466.0362 1129.70431,480.0684"></path>
                <path mask="url(#mask-4)" fill="#D6EEFF" id="Fill-136" d="M1090.78895,619.40529 L982.010442,619.40529 C976.243603,619.40529 971.567711,614.72789 971.567711,608.95849 L971.567711,558.34289 L1101.23168,558.34289 L1101.23168,608.95849 C1101.23168,614.72789 1096.55579,619.40529 1090.78895,619.40529"></path>
                <line mask="url(#mask-4)" stroke-width="6.3" stroke="#AAD5FF" id="Stroke-137" y2="391.95919" x2="1024.00726" y1="411.49199" x1="1021.13888"></line>
                <line mask="url(#mask-4)" stroke-width="6.3" stroke="#AAD5FF" id="Stroke-138" y2="432.12043" x2="1065.79421" y1="440.52183" x1="1045.71978"></line>
                <line mask="url(#mask-4)" stroke-width="6.3" stroke="#AAD5FF" id="Stroke-139" y2="529.24578" x2="953.541946" y1="524.73848" x1="974.025738"></line>
                <line mask="url(#mask-4)" stroke-width="6.3" stroke="#AAD5FF" id="Stroke-140" y2="492.77277" x2="992.871289" y1="503.01797" x1="1014.78892"></line>
                <line mask="url(#mask-4)" stroke-width="6.3" stroke="#AAD5FF" id="Stroke-141" y2="453.30054" x2="1131.75276" y1="469.82334" x1="1119.46262"></line>
                <line mask="url(#mask-4)" stroke-width="6.3" stroke="#AAD5FF" id="Stroke-142" y2="526.99206" x2="1110.44939" y1="521.86946" x1="1088.73609"></line>
                <line mask="url(#mask-4)" stroke-width="6.3" stroke="#FFFFFF" id="Stroke-143" y2="425.56353" x2="968.700316" y1="436.32113" x1="992.051783"></line>
                <line mask="url(#mask-4)" stroke-width="6.3" stroke="#FFFFFF" id="Stroke-144" y2="545.84404" x2="1065.38463" y1="536.96594" x1="1048.17788"></line>
                <line mask="url(#mask-4)" stroke-width="6.3" stroke="#FFFFFF" id="Stroke-145" y2="469.82369" x2="1033.11643" y1="453.30089" x1="1018.68078"></line>
                <line mask="url(#mask-4)" stroke-width="6.3" stroke="#FFFFFF" id="Stroke-146" y2="542.79295" x2="995.53414" y1="535.12025" x1="1006.93696"></line>
                <polyline points="980.888144 598.10933 1004.25431 574.73493 1027.61977 598.10933" mask="url(#mask-4)" fill="#AAD5FF" id="Fill-147"></polyline>
                <polyline points="1045.17921 598.10933 1068.54537 574.73493 1091.91153 598.10933" mask="url(#mask-4)" fill="#AAD5FF" id="Fill-148"></polyline>
                <g mask="url(#mask-4)" id="Group-151">
                    <g transform="translate(6.997743, 625.800000)">
                        <line fill-rule="evenodd" fill="#E8F6FF" stroke="none" id="Fill-149" y2="0.36876" x2="-6.99774266e-05" y1="0.36876" x1="1225.57408"></line>
                        <line stroke-linecap="round" fill="none" stroke-width="14" stroke="#D6EEFF" id="Stroke-150" y2="0.36876" x2="-6.99774266e-05" y1="0.36876" x1="1225.57408"></line>
                    </g>
                </g>
            </g>
        </g>
    </g>
</svg>