<svg id="Layer_1" data-name="Layer 1" xmlns="http://www.w3.org/2000/svg" viewBox="0 0 1200 1200"><defs><style>.cls-1{fill:#fff;}.cls-2{fill:#231f20;}.cls-3{fill:#fbb040;}</style></defs><title>Artboard 4</title><rect class="cls-1" x="913.88" y="941.45" width="145.22" height="9.85"/><path class="cls-2" d="M1059.6,951.8H913.38V941H1059.6Zm-145.22-1H1058.6V942H914.38Z"/><path class="cls-1" d="M1151.54,820.38a72.38,72.38,0,0,1-72.31,72.32h-19V860.27h19a39.87,39.87,0,0,0,9.9-78.5h0a39.47,39.47,0,0,0-9.86-1.25h-19V748.08h19A72.39,72.39,0,0,1,1151.54,820.38Z"/><path class="cls-2" d="M1079.23,893.2h-19.47V859.77h19.47a39.37,39.37,0,0,0,9.83-77.5l-.09,0a39,39,0,0,0-9.74-1.23h-19.47V747.58h19.47a72.81,72.81,0,0,1,0,145.62Zm-18.47-1h18.47a71.81,71.81,0,1,0,0-143.62h-18.47V780h18.47a40,40,0,0,1,9.93,1.25h.09a40.38,40.38,0,0,1-10,79.49h-18.47Z"/><path class="cls-1" d="M1092.7,736.57V906.05a39,39,0,0,1-39,39H913.88a39,39,0,0,1-39-39V736.57a15.07,15.07,0,0,1,15.08-15.09h187.68A15.08,15.08,0,0,1,1092.7,736.57Z"/><path class="cls-2" d="M1053.66,945.59H913.88a39.59,39.59,0,0,1-39.54-39.54V736.57A15.61,15.61,0,0,1,889.93,721h187.68a15.61,15.61,0,0,1,15.59,15.59V906.05A39.59,39.59,0,0,1,1053.66,945.59ZM889.93,722a14.61,14.61,0,0,0-14.59,14.59V906.05a38.58,38.58,0,0,0,38.54,38.54h139.78a38.58,38.58,0,0,0,38.54-38.54V736.57A14.61,14.61,0,0,0,1077.61,722Z"/><path class="cls-2" d="M161.3,676.29s105.15,132,.09,132.11S161.3,676.29,161.3,676.29Z"/><path class="cls-2" d="M152.47,808.4s4.52-81.18,74.08-118.51C226.55,689.89,288.53,735.37,152.47,808.4Z"/><path class="cls-2" d="M169.72,808.39s-1.92-81.29-70.24-121C99.48,687.36,36.07,730.66,169.72,808.39Z"/><path class="cls-2" d="M152.47,808.4s39.77-70,118-70.06C270.52,738.34,305.59,808.29,152.47,808.4Z"/><path class="cls-2" d="M169.72,808.39s-39.88-69.95-118.15-69.9C51.57,738.49,16.6,808.5,169.72,808.39Z"/><path class="cls-1" d="M265.54,791.32l.08,111.57a48.3,48.3,0,0,1-48.27,48.33L105,951.3A48.32,48.32,0,0,1,56.7,903l-.08-111.57Z"/><path class="cls-2" d="M105,951.8a48.72,48.72,0,0,1-28.6-9.27A48.88,48.88,0,0,1,56.2,903l-.08-111.57a.51.51,0,0,1,.15-.36.5.5,0,0,1,.35-.14l208.92-.15h0a.5.5,0,0,1,.5.5l.08,111.57a48.86,48.86,0,0,1-48.77,48.83L105,951.8ZM57.12,792,57.2,903A47.9,47.9,0,0,0,77,941.72a46,46,0,0,0,6.94,4.18A47.17,47.17,0,0,0,105,950.8h0l112.32-.08a47.86,47.86,0,0,0,47.77-47.83L265,791.82Z"/><path class="cls-1" d="M84.59,886.76c-7.91,24.32-8.21,44.32-.88,59.59a47.75,47.75,0,0,1-7-4.22c-5.17-15.44-4.1-34.51,3.19-56.91C92,848.17,85.07,815,75.42,791.47h5.33C90.34,815.73,96.78,849.28,84.59,886.76Z"/><path class="cls-2" d="M83.71,946.85a.44.44,0,0,1-.22-.05,48,48,0,0,1-7.09-4.27.58.58,0,0,1-.18-.25c-5.19-15.51-4.12-34.76,3.19-57.21,12.37-38,4.41-71.78-4.45-93.41a.49.49,0,0,1,.05-.47.48.48,0,0,1,.41-.22h5.33a.5.5,0,0,1,.46.32C90,813.42,97.73,848,85.06,886.91h0c-7.86,24.17-8.16,44.09-.9,59.23a.49.49,0,0,1-.45.71Zm-6.59-5a47,47,0,0,0,5.53,3.43c-6.74-15.2-6.26-34.92,1.46-58.65h0C96.62,848.14,89,814,80.41,792H76.16c8.81,21.81,16.54,55.51,4.2,93.41C73.15,907.55,72.06,926.54,77.12,941.82Z"/><path class="cls-1" d="M147.24,931.68c5.9,7.57,10.49,14.07,14.07,19.58h-5.92c-3.2-4.78-7.16-10.28-12-16.55-13.29-17-4.35-47.85,3.55-75,5.75-19.78,11.18-38.47,6-45.59-1.53-2.09-4.06-3.15-7.72-3.24-5.84-.15-9.6.83-11.54,3-3.11,3.5-2,10.94-.75,19.55,2.23,15.29,5.29,36.25-12.2,54.24-13,13.41-16,32.3-8.89,56.15.78,2.57,1.63,5.06,2.52,7.46H109c-.69-1.92-1.35-3.89-2-5.92-7.63-25.4-4.15-46.53,10-61.13,15.79-16.25,13-35,10.84-50.09-1.44-9.83-2.68-18.32,2-23.54,3-3.35,8-4.87,15.36-4.68,5.24.13,9.13,1.9,11.59,5.26,6.64,9.09,1.14,28-5.21,49.89C144.07,887.12,135.5,916.63,147.24,931.68Z"/><path class="cls-2" d="M109,951.8a.5.5,0,0,1-.47-.33c-.69-1.9-1.35-3.9-2-6-7.68-25.57-4.17-46.88,10.17-61.62,15.62-16.08,12.9-34.7,10.71-49.67-1.46-10-2.72-18.55,2.07-24,3.06-3.45,8.23-5,15.74-4.84,5.4.14,9.43,2,12,5.47,6.79,9.29,1.26,28.3-5.13,50.32-7.54,25.93-16.07,55.3-4.49,70.14,5.41,6.93,10.15,13.53,14.1,19.62a.52.52,0,0,1,0,.51.51.51,0,0,1-.44.26h-5.92a.5.5,0,0,1-.42-.23c-3.47-5.18-7.52-10.74-12-16.51-13.45-17.26-4.46-48.18,3.47-75.46,5.72-19.68,11.11-38.24,6-45.16-1.43-1.95-3.82-2.95-7.33-3-5.67-.15-9.31.78-11.14,2.85-3,3.32-1.88,10.64-.64,19.12,2.25,15.42,5.33,36.52-12.33,54.69-12.91,13.27-15.85,32-8.77,55.66.72,2.4,1.57,4.9,2.51,7.42a.53.53,0,0,1-.06.46.52.52,0,0,1-.41.22Zm35-145.38c-6.57,0-11.08,1.49-13.77,4.53-4.48,5-3.25,13.43-1.83,23.14,2.22,15.18,5,34.08-11,50.51C103.4,899.06,100,920,107.54,945.24c.58,1.9,1.19,3.77,1.83,5.56h4.19c-.85-2.32-1.61-4.61-2.27-6.81-7.2-24-4.17-43.1,9-56.65,17.32-17.82,14.28-38.63,12.06-53.82-1.28-8.75-2.38-16.28.88-20,2-2.29,5.94-3.33,11.92-3.18,3.83.09,6.48,1.22,8.11,3.44,5.36,7.32-.1,26.11-5.88,46-7.87,27.08-16.79,57.74-3.65,74.59,4.46,5.71,8.47,11.21,11.92,16.36h4.73c-3.82-5.84-8.37-12.16-13.54-18.77h0c-11.89-15.25-3.29-44.88,4.31-71,6.33-21.79,11.79-40.58,5.29-49.47-2.35-3.23-6.12-4.93-11.19-5.06Z"/><path class="cls-1" d="M198.17,902.82a437,437,0,0,1-13.92,48.43H179c14.09-40.12,35.29-117.65,7.1-159.87h5.87C207,816.19,209.09,853.59,198.17,902.82Z"/><path class="cls-2" d="M179,951.75a.52.52,0,0,1-.41-.21.5.5,0,0,1-.06-.46c6.87-19.58,15.82-49.19,19.38-79,4.16-34.95.05-62-12.23-80.38a.49.49,0,0,1,0-.51.5.5,0,0,1,.44-.27h5.87a.5.5,0,0,1,.43.24c15.1,24.9,17.22,62.52,6.29,111.81a433.46,433.46,0,0,1-13.94,48.48.51.51,0,0,1-.47.34Zm8-159.87c12,18.57,16,45.57,11.87,80.28-3.53,29.6-12.33,59-19.2,78.59h4.22a429.41,429.41,0,0,0,13.79-48h0c10.84-48.87,8.81-86.16-6-110.84Z"/><path class="cls-1" d="M210.49,951.23h-5.61a179.19,179.19,0,0,0,18.31-48c5.19-22.55,6.87-47.44,5-74a327.28,327.28,0,0,0-5-37.94h5A338.45,338.45,0,0,1,233.1,829C235.55,863.41,232.87,909.76,210.49,951.23Z"/><path class="cls-2" d="M204.88,951.73a.5.5,0,0,1-.44-.75,179.22,179.22,0,0,0,18.26-47.81c5.18-22.52,6.86-47.36,5-73.84a328.1,328.1,0,0,0-5-37.88.5.5,0,0,1,.11-.41.47.47,0,0,1,.38-.19h5a.5.5,0,0,1,.49.41,337.62,337.62,0,0,1,4.88,37.65c2.32,32.46.26,80.07-22.66,122.55a.5.5,0,0,1-.44.27ZM223.8,791.85a330.85,330.85,0,0,1,4.87,37.41c1.89,26.58.21,51.52-5,74.13a180.55,180.55,0,0,1-17.94,47.34h4.46C232.87,908.52,234.9,861.24,232.6,829a337.69,337.69,0,0,0-4.8-37.13Z"/><path class="cls-1" d="M265.59,860.65v13.27a313.73,313.73,0,0,1-39.54,68.17c-2.49,3.26-4.93,6.3-7.28,9.13H212.2A307,307,0,0,0,265.59,860.65Z"/><path class="cls-2" d="M212.2,951.73a.5.5,0,0,1-.45-.29.49.49,0,0,1,.07-.54,307.34,307.34,0,0,0,53.3-90.43.49.49,0,0,1,.56-.31.5.5,0,0,1,.41.49v13.27a.65.65,0,0,1,0,.2,317,317,0,0,1-39.6,68.28c-2.36,3.07-4.81,6.15-7.29,9.14a.53.53,0,0,1-.39.18Zm52.89-88.38a308.27,308.27,0,0,1-51.81,87.37h5.27c2.42-2.92,4.81-5.93,7.11-8.93a315.92,315.92,0,0,0,39.44-68Z"/><path class="cls-1" d="M176.05,779.79l-.72-.7c21.41-22.11,56.93-35.33,57.29-35.46l.34.94C232.61,744.7,197.3,757.84,176.05,779.79Z"/><path class="cls-1" d="M160,774.33l-.92-.37c10.41-26,30-54.68,30.22-55l.82.57C189.91,719.84,170.36,748.44,160,774.33Z"/><path class="cls-1" d="M158.15,758.58c-.86-15.24-23.93-41.19-24.16-41.45l.75-.66c1,1.07,23.53,26.46,24.4,42Z"/><path class="cls-1" d="M148.11,781.79c-10-19.58-54.59-35.65-55-35.81l.33-.94a214.67,214.67,0,0,1,23.9,10.56c16.75,8.69,27.42,17.35,31.7,25.73Z"/><path class="cls-1" d="M855.06,496.91V915.68a12.62,12.62,0,0,1-12.45,12.77H196.07a18.82,18.82,0,0,1-18.57-19.06V503.19a18.82,18.82,0,0,1,18.57-19.05H842.61A12.62,12.62,0,0,1,855.06,496.91Z"/><path class="cls-2" d="M842.61,929H196.07A19.35,19.35,0,0,1,177,909.39V503.19a19.34,19.34,0,0,1,19.07-19.55H842.61a13.13,13.13,0,0,1,12.95,13.27V915.68A13.13,13.13,0,0,1,842.61,929ZM196.07,484.64A18.34,18.34,0,0,0,178,503.19v406.2A18.35,18.35,0,0,0,196.07,928H842.61a12.13,12.13,0,0,0,11.95-12.27V496.91a12.12,12.12,0,0,0-11.95-12.27Z"/><path class="cls-2" d="M845.68,507.8v397a12.1,12.1,0,0,1-12.1,12.1H204.93a18.06,18.06,0,0,1-18.06-18.06V513.75a18.07,18.07,0,0,1,18.06-18.06H833.58A12.11,12.11,0,0,1,845.68,507.8Z"/><path class="cls-2" d="M833.58,917.39H204.93a18.58,18.58,0,0,1-18.56-18.56V513.75a18.59,18.59,0,0,1,18.56-18.56H833.58a12.62,12.62,0,0,1,12.6,12.61v397A12.61,12.61,0,0,1,833.58,917.39ZM204.93,496.19a17.58,17.58,0,0,0-17.56,17.56V898.83a17.58,17.58,0,0,0,17.56,17.56H833.58a11.61,11.61,0,0,0,11.6-11.6v-397a11.62,11.62,0,0,0-11.6-11.61Z"/><rect class="cls-1" x="199.97" y="504.53" width="635.33" height="403.51"/><path class="cls-2" d="M835.8,908.55H199.47V504H835.8Zm-635.33-1H834.8V505H200.47Z"/><rect class="cls-2" x="199.97" y="504.53" width="635.33" height="30.52"/><path class="cls-2" d="M835.8,535.56H199.47V504H835.8Zm-635.33-1H834.8V505H200.47Z"/><circle class="cls-1" cx="214.62" cy="519.13" r="5.8"/><path class="cls-2" d="M214.62,525.42a6.3,6.3,0,1,1,6.3-6.3A6.3,6.3,0,0,1,214.62,525.42Zm0-11.59a5.3,5.3,0,1,0,5.3,5.29A5.29,5.29,0,0,0,214.62,513.83Z"/><circle class="cls-1" cx="235.99" cy="519.13" r="5.8"/><path class="cls-2" d="M236,525.42a6.3,6.3,0,1,1,6.3-6.3A6.31,6.31,0,0,1,236,525.42Zm0-11.59a5.3,5.3,0,1,0,5.3,5.29A5.3,5.3,0,0,0,236,513.83Z"/><circle class="cls-1" cx="257.36" cy="519.13" r="5.8"/><path class="cls-2" d="M257.36,525.42a6.3,6.3,0,1,1,6.3-6.3A6.31,6.31,0,0,1,257.36,525.42Zm0-11.59a5.3,5.3,0,1,0,5.3,5.29A5.3,5.3,0,0,0,257.36,513.83Z"/><path class="cls-1" d="M133.7,928.45H898.86a0,0,0,0,1,0,0v0A22.85,22.85,0,0,1,876,951.3H156.55a22.85,22.85,0,0,1-22.85-22.85v0a0,0,0,0,1,0,0Z"/><path class="cls-2" d="M876,951.8H156.55a23.38,23.38,0,0,1-23.35-23.35V928H899.36v.5A23.39,23.39,0,0,1,876,951.8ZM134.2,929a22.38,22.38,0,0,0,22.35,21.85H876A22.38,22.38,0,0,0,898.35,929Z"/><path class="cls-1" d="M449.86,928.45H582.69a0,0,0,0,1,0,0v0a11.43,11.43,0,0,1-11.43,11.43h-110a11.43,11.43,0,0,1-11.43-11.43v0A0,0,0,0,1,449.86,928.45Z"/><path class="cls-2" d="M571.26,940.37h-110a11.94,11.94,0,0,1-11.93-11.92V928H583.19v.5A11.94,11.94,0,0,1,571.26,940.37ZM450.38,929a10.93,10.93,0,0,0,10.91,10.42h110A10.94,10.94,0,0,0,582.18,929Z"/><rect class="cls-2" x="247.74" y="916.89" width="537.08" height="11.55"/><path class="cls-2" d="M785.32,929H247.24V916.39H785.32Zm-537.08-1H784.32V917.39H248.24Z"/><rect class="cls-1" x="199.97" y="535.06" width="124.43" height="372.99"/><path class="cls-2" d="M324.9,908.55H199.47v-374H324.9Zm-124.43-1H323.9v-372H200.47Z"/><rect class="cls-1" x="385.74" y="659.56" width="393.47" height="8.58"/><path class="cls-2" d="M779.71,668.64H385.24v-9.58H779.71Zm-393.47-1H778.71v-7.58H386.24Z"/><rect class="cls-1" x="385.74" y="695.35" width="393.47" height="8.58"/><path class="cls-2" d="M779.71,704.43H385.24v-9.58H779.71Zm-393.47-1H778.71v-7.58H386.24Z"/><rect class="cls-1" x="385.74" y="731.13" width="393.47" height="8.58"/><path class="cls-2" d="M779.71,740.22H385.24v-9.59H779.71Zm-393.47-1H778.71v-7.59H386.24Z"/><rect class="cls-1" x="385.74" y="766.92" width="393.47" height="8.58"/><path class="cls-2" d="M779.71,776H385.24v-9.58H779.71Zm-393.47-1H778.71v-7.58H386.24Z"/><rect class="cls-1" x="385.74" y="802.71" width="393.47" height="8.58"/><path class="cls-2" d="M779.71,811.79H385.24v-9.58H779.71Zm-393.47-1H778.71v-7.58H386.24Z"/><rect class="cls-1" x="385.74" y="838.49" width="393.47" height="8.58"/><path class="cls-2" d="M779.71,847.58H385.24V838H779.71Zm-393.47-1H778.71V839H386.24Z"/><rect class="cls-1" x="385.74" y="874.28" width="393.47" height="8.58"/><path class="cls-2" d="M779.71,883.36H385.24v-9.58H779.71Zm-393.47-1H778.71v-7.58H386.24Z"/><rect class="cls-2" x="221.39" y="659.56" width="81.59" height="8.58"/><path class="cls-2" d="M303.48,668.64H220.89v-9.58h82.59Zm-81.59-1h80.59v-7.58H221.89Z"/><rect class="cls-2" x="221.39" y="679.6" width="81.59" height="8.58"/><path class="cls-2" d="M303.48,688.68H220.89V679.1h82.59Zm-81.59-1h80.59V680.1H221.89Z"/><rect class="cls-2" x="221.39" y="699.64" width="81.59" height="8.58"/><path class="cls-2" d="M303.48,708.72H220.89v-9.58h82.59Zm-81.59-1h80.59v-7.58H221.89Z"/><rect class="cls-2" x="221.39" y="719.68" width="81.59" height="8.58"/><path class="cls-2" d="M303.48,728.76H220.89v-9.58h82.59Zm-81.59-1h80.59v-7.58H221.89Z"/><rect class="cls-2" x="221.39" y="739.72" width="81.59" height="8.58"/><path class="cls-2" d="M303.48,748.8H220.89v-9.58h82.59Zm-81.59-1h80.59v-7.58H221.89Z"/><rect class="cls-2" x="221.39" y="759.76" width="81.59" height="8.58"/><path class="cls-2" d="M303.48,768.84H220.89v-9.58h82.59Zm-81.59-1h80.59v-7.58H221.89Z"/><rect class="cls-2" x="221.39" y="779.8" width="39.14" height="8.58"/><path class="cls-2" d="M261,788.88H220.89V779.3H261Zm-39.13-1H260V780.3H221.89Z"/><circle class="cls-1" cx="355.07" cy="663.85" r="11.13"/><path class="cls-2" d="M355.07,675.49a11.64,11.64,0,1,1,11.63-11.64A11.65,11.65,0,0,1,355.07,675.49Zm0-22.27a10.64,10.64,0,1,0,10.63,10.63A10.65,10.65,0,0,0,355.07,653.22Z"/><circle class="cls-1" cx="355.07" cy="699.64" r="11.13"/><path class="cls-2" d="M355.07,711.27a11.64,11.64,0,1,1,11.63-11.63A11.65,11.65,0,0,1,355.07,711.27Zm0-22.27a10.64,10.64,0,1,0,10.63,10.64A10.65,10.65,0,0,0,355.07,689Z"/><circle class="cls-1" cx="355.07" cy="735.43" r="11.13"/><path class="cls-2" d="M355.07,747.06a11.64,11.64,0,1,1,11.63-11.63A11.65,11.65,0,0,1,355.07,747.06Zm0-22.27a10.64,10.64,0,1,0,10.63,10.64A10.65,10.65,0,0,0,355.07,724.79Z"/><circle class="cls-1" cx="355.07" cy="771.21" r="11.13"/><path class="cls-2" d="M355.07,782.85a11.64,11.64,0,1,1,11.63-11.64A11.65,11.65,0,0,1,355.07,782.85Zm0-22.27a10.64,10.64,0,1,0,10.63,10.63A10.65,10.65,0,0,0,355.07,760.58Z"/><circle class="cls-1" cx="355.07" cy="807" r="11.13"/><path class="cls-2" d="M355.07,818.63A11.64,11.64,0,1,1,366.7,807,11.65,11.65,0,0,1,355.07,818.63Zm0-22.27A10.64,10.64,0,1,0,365.7,807,10.65,10.65,0,0,0,355.07,796.36Z"/><circle class="cls-1" cx="355.07" cy="842.79" r="11.13"/><path class="cls-2" d="M355.07,854.42a11.64,11.64,0,1,1,11.63-11.63A11.65,11.65,0,0,1,355.07,854.42Zm0-22.27a10.64,10.64,0,1,0,10.63,10.64A10.65,10.65,0,0,0,355.07,832.15Z"/><circle class="cls-1" cx="355.07" cy="878.57" r="11.13"/><path class="cls-2" d="M355.07,890.21a11.64,11.64,0,1,1,11.63-11.64A11.65,11.65,0,0,1,355.07,890.21Zm0-22.27a10.64,10.64,0,1,0,10.63,10.63A10.65,10.65,0,0,0,355.07,867.94Z"/><rect class="cls-1" x="221.39" y="604.44" width="38.08" height="38.08" rx="19.04"/><path class="cls-2" d="M240.43,643A19.54,19.54,0,1,1,260,623.48,19.55,19.55,0,0,1,240.43,643Zm0-38.08A18.54,18.54,0,1,0,259,623.48,18.56,18.56,0,0,0,240.43,604.94Z"/><rect class="cls-1" x="324.4" y="596.66" width="127.72" height="41.61"/><path class="cls-2" d="M452.62,638.77H323.9V596.16H452.62Zm-127.72-1H451.62V597.16H324.9Z"/><rect class="cls-1" x="452.12" y="596.66" width="127.72" height="41.61"/><path class="cls-2" d="M580.35,638.77H451.62V596.16H580.35Zm-127.73-1H579.35V597.16H452.62Z"/><rect class="cls-1" x="579.85" y="596.66" width="127.72" height="41.61"/><path class="cls-2" d="M708.07,638.77H579.35V596.16H708.07Zm-127.72-1H707.07V597.16H580.35Z"/><rect class="cls-1" x="707.57" y="596.66" width="127.72" height="41.61"/><path class="cls-2" d="M835.8,638.77H707.07V596.16H835.8Zm-127.73-1H834.8V597.16H708.07Z"/><rect class="cls-1" x="343.93" y="547.62" width="363.64" height="19.89" rx="9.95"/><path class="cls-2" d="M697.62,568H353.88a10.45,10.45,0,1,1,0-20.89H697.62a10.45,10.45,0,1,1,0,20.89ZM353.88,548.12a9.45,9.45,0,1,0,0,18.89H697.62a9.45,9.45,0,1,0,0-18.89Z"/><rect class="cls-1" x="723.96" y="547.62" width="67.94" height="19.89" rx="9.95"/><path class="cls-2" d="M782,568H733.9a10.45,10.45,0,0,1,0-20.89H782A10.45,10.45,0,0,1,782,568ZM733.9,548.12a9.45,9.45,0,0,0,0,18.89H782a9.45,9.45,0,0,0,0-18.89Z"/><rect class="cls-2" x="220.42" y="547.62" width="82.55" height="39.79"/><path class="cls-2" d="M303.48,587.91H219.92V547.12h83.56Zm-82.56-1h81.56V548.12H220.92Z"/><path class="cls-2" d="M199.47,909.13V802.21H325.76Zm1-105.92V907L323,803.21Z"/><path class="cls-2" d="M352.5,535.69s-13.06,43.79-69.72,24.77S329.16,513.85,352.5,535.69Z"/><path class="cls-2" d="M309.14,565.76a83.82,83.82,0,0,1-26.52-4.83c-11.08-3.72-16.84-8-17.11-12.75-.24-4.18,3.85-8.36,11.82-12.09,20-9.37,61.45-13.92,75.51-.77a.51.51,0,0,1,.14.51c-.05.16-5,16.31-21.32,24.77A48.27,48.27,0,0,1,309.14,565.76Zm13.21-37.61c-1.57,0-3.19,0-4.84.11-14.34.62-29.57,4-39.75,8.73-7.47,3.5-11.46,7.45-11.25,11.13.24,4.23,5.92,8.34,16.43,11.86,19.23,6.46,35.46,6.37,48.26-.27,14.72-7.64,20-21.67,20.72-23.87C346.37,530.83,336,528.15,322.35,528.15Z"/><path class="cls-1" d="M290.29,495.61c1.49,0,62.21,76.84,62.21,76.84L380,591.19l-26.76-28.48-50.62-76.9Z"/><path class="cls-2" d="M380,591.69a.51.51,0,0,1-.28-.09l-27.54-18.73a.63.63,0,0,1-.12-.11c-16.43-20.79-59.47-74.92-62-76.68a.48.48,0,0,1-.31-.31.5.5,0,0,1,.16-.55l12.37-9.8a.5.5,0,0,1,.39-.11.57.57,0,0,1,.34.22l50.62,76.9,26.71,28.42a.49.49,0,0,1,0,.66A.46.46,0,0,1,380,591.69Zm-27.2-19.61,23.73,16.14-23.65-25.17-50.38-76.51L291,495.67C296.57,501.15,331.54,545.14,352.84,572.08Z"/><polygon class="cls-1" points="270.02 519.83 264.04 599.09 275.82 623.48 259.76 605.3 255.31 519.83 270.02 519.83"/><path class="cls-2" d="M275.82,624a.52.52,0,0,1-.38-.17l-16.06-18.18a.48.48,0,0,1-.12-.31l-4.45-85.47a.5.5,0,0,1,.13-.37.51.51,0,0,1,.36-.15H270a.45.45,0,0,1,.36.16.47.47,0,0,1,.14.37l-6,79.13,11.72,24.28a.5.5,0,0,1-.18.63A.45.45,0,0,1,275.82,624ZM260.25,605.1l13.54,15.33-10.2-21.12a.58.58,0,0,1,0-.26l5.94-78.72H255.83Z"/><path class="cls-2" d="M235.66,367.88s-15.87-1.37-16.36,16.86-17,10-16.89,33.34c.16,33.91,53.06,22.59,53.16-3.57.07-19.73-12.55-9.57-9.72-26.87S235.66,367.88,235.66,367.88Z"/><path class="cls-2" d="M224.25,439.66c-10.75,0-22.27-5.67-22.34-21.58-.07-12.68,4.68-16.2,9.26-19.6,3.81-2.82,7.41-5.49,7.63-13.75.16-6,1.95-10.49,5.31-13.49a16.59,16.59,0,0,1,11.59-3.85h.05c.14,0,13.47,2.75,10.59,20.33-1.36,8.31.83,9.94,3.6,12s6.17,4.62,6.13,14.78c-.06,14.81-16.81,25.14-31.8,25.15Zm10.7-71.3A15.72,15.72,0,0,0,224.77,372c-3.15,2.81-4.82,7.11-5,12.76-.23,8.75-4.2,11.69-8,14.53-4.39,3.26-8.92,6.62-8.86,18.79.06,12.9,8,20.59,21.34,20.59h0c14.52,0,30.74-9.93,30.8-24.16,0-9.65-3-11.95-5.73-14s-5.44-4.07-4-13c1.13-6.91-.21-12.41-3.88-15.93a13.12,13.12,0,0,0-5.88-3.25C235.52,368.38,235.29,368.36,235,368.36Z"/><path class="cls-1" d="M235.34,402.7l40.48.86L303,380h21.1s-6.55,8.75-17.6,7.65c0,0-10.51,38-30.66,38H238.35Z"/><path class="cls-2" d="M275.82,426.17H238.35a.51.51,0,0,1-.5-.44l-3-23a.46.46,0,0,1,.12-.39.52.52,0,0,1,.38-.17l40.29.86,27-23.41a.5.5,0,0,1,.33-.12h21.1a.5.5,0,0,1,.4.8c-.07.09-6.69,8.75-17.63,7.88a104.83,104.83,0,0,1-7.7,18.7C292.32,419.51,284.25,426.17,275.82,426.17Zm-37-1h37c19.54,0,30.08-37.25,30.18-37.63a.49.49,0,0,1,.53-.36c8.65.86,14.54-4.56,16.46-6.65H303.16l-27,23.41a.54.54,0,0,1-.34.12l-39.9-.85Z"/><path class="cls-3" d="M215.42,454.73l-5.9-25.46a29.16,29.16,0,0,1,1.82-19,27.2,27.2,0,0,1,3.07-5c3.75-4.84,8.93-7.83,14.65-7.83,10.66,0,19.44,10.39,20.59,23.76.09,1,.13,2,.13,3v30.55l19.63-5.82a16.74,16.74,0,0,1,17.8,5.56l65.29,81.22s-27.85-1-45.15,17.55c-33.58,35.88-61.5,21.94-61.5,21.94l3.93-91.44s-21.53,11.48-35.91,0S215.42,454.73,215.42,454.73Z"/><path class="cls-2" d="M259.92,578.26c-8.79,0-14.17-2.58-14.3-2.64a.5.5,0,0,1-.27-.47l3.9-90.59a53,53,0,0,1-11.93,4c-9.55,1.9-17.76.38-23.76-4.41a15.24,15.24,0,0,1-6.15-10.89c-.71-8.83,6.23-17.23,7.47-18.65L209,429.38a29.69,29.69,0,0,1,1.85-19.28A27.86,27.86,0,0,1,214,405c4-5.17,9.35-8,15-8,10.84,0,19.9,10.41,21.09,24.21.09,1,.13,2,.13,3v29.88l19-5.63a17.18,17.18,0,0,1,18.33,5.73l65.29,81.21a.51.51,0,0,1-.41.82c-.28,0-27.83-.72-44.77,17.39C288.75,573.84,271.42,578.26,259.92,578.26Zm-13.56-3.4c1.43.62,8,3.18,17.67,2.3,18.29-1.66,33.45-14.11,43-24.26,15.35-16.41,39.18-17.65,44.47-17.72l-64.63-80.4a16.19,16.19,0,0,0-17.27-5.39l-19.63,5.82a.47.47,0,0,1-.44-.08.48.48,0,0,1-.2-.4V424.18c0-1,0-2-.13-2.94-1.14-13.28-9.77-23.3-20.09-23.3-5.37,0-10.43,2.71-14.25,7.64a25.75,25.75,0,0,0-3,4.94A28.73,28.73,0,0,0,210,429.15l5.9,25.47a.52.52,0,0,1-.12.45c-.08.09-8.11,9.05-7.39,18.1a14.3,14.3,0,0,0,5.78,10.18c7.28,5.81,16.49,5.49,22.94,4.21a50.82,50.82,0,0,0,12.43-4.26.5.5,0,0,1,.5,0,.48.48,0,0,1,.23.44Z"/><path class="cls-1" d="M230.09,405.19l-3.51-4.12,3.73-15.95,8-1.82L234.67,399l.67,3.68A3,3,0,0,1,230.09,405.19Z"/><path class="cls-2" d="M232.34,406.77a3.48,3.48,0,0,1-2.63-1.25l-3.51-4.13a.47.47,0,0,1-.11-.44L229.82,385a.51.51,0,0,1,.38-.38l8-1.82a.5.5,0,0,1,.6.6L235.18,399l.65,3.58a3.42,3.42,0,0,1-2,3.8A3.54,3.54,0,0,1,232.34,406.77Zm-5.22-5.83,3.35,3.93h0a2.51,2.51,0,0,0,4.38-2.08l-.67-3.68a.74.74,0,0,1,0-.21l3.5-14.94-7,1.58Z"/><circle class="cls-1" cx="234.06" cy="382.24" r="11.79"/><path class="cls-2" d="M234.05,394.53a12.29,12.29,0,1,1,12.3-12.29A12.31,12.31,0,0,1,234.05,394.53Zm0-23.58a11.29,11.29,0,1,0,11.3,11.29A11.31,11.31,0,0,0,234.05,371Z"/><path class="cls-2" d="M234.06,379.52h2.4l1-4.87.78,4.87h3.2l1.64-4.87.21,4.87h4.17s-.82-10.36-13.39-9.07-11.8,11.79-11.8,11.79-1,2.74,4.47,9.24a35.25,35.25,0,0,1-2.3-6.13,1.59,1.59,0,0,1,3-1.06l2.17,4.57S229.16,379.52,234.06,379.52Z"/><path class="cls-2" d="M226.73,392a.49.49,0,0,1-.38-.18c-5.1-6.05-4.76-9-4.59-9.62,0-1.1,0-11,12.24-12.23,4.27-.43,7.7.39,10.19,2.46a11.1,11.1,0,0,1,3.76,7.07.5.5,0,0,1-.5.54h-4.17a.5.5,0,0,1-.5-.48l-.09-2.19-.79,2.33a.49.49,0,0,1-.47.34h-3.2a.51.51,0,0,1-.5-.42l-.34-2.15-.44,2.17a.5.5,0,0,1-.49.4h-2.41a2.69,2.69,0,0,0-2,.89c-2.16,2.24-1.94,7.87-1.94,7.92a.51.51,0,0,1-.38.51.49.49,0,0,1-.57-.27L227,384.51a1.09,1.09,0,0,0-2,.72,35.07,35.07,0,0,0,2.27,6,.5.5,0,0,1-.17.64A.48.48,0,0,1,226.73,392Zm9.42-21.14c-.65,0-1.34,0-2,.11-12,1.23-11.38,10.85-11.35,11.26a.39.39,0,0,1,0,.21s-.48,1.7,2,5.49c-.28-.79-.55-1.63-.75-2.44a2.09,2.09,0,0,1,3.92-1.39l1.26,2.66c.14-2,.62-4.92,2.16-6.53a3.71,3.71,0,0,1,2.77-1.19h2l.91-4.47a.5.5,0,0,1,.5-.4.49.49,0,0,1,.48.42l.71,4.45h2.42l1.53-4.53a.5.5,0,0,1,1,.14l.19,4.39h3.11a10.19,10.19,0,0,0-3.33-5.85A11.24,11.24,0,0,0,236.15,370.84Z"/><path class="cls-2" d="M247.77,531.07a.51.51,0,0,1-.49-.39.5.5,0,0,1,.37-.6,58,58,0,0,0,14.48-6.3c26.09-14.91,37.94-12.66,46.59-11,4.67.89,8.35,1.59,12.83-.92a22.42,22.42,0,0,0,6.72-6.12.5.5,0,0,1,.79.61,23.21,23.21,0,0,1-7,6.38c-4.8,2.69-8.64,2-13.51,1-8.5-1.61-20.14-3.83-45.9,10.9a58.76,58.76,0,0,1-14.75,6.4Z"/><path class="cls-2" d="M272,501.18c-7,0-11.53-2.84-15-5-2.84-1.78-5.08-3.19-7.51-2.43a.51.51,0,0,1-.63-.33.5.5,0,0,1,.33-.62c2.87-.9,5.41.69,8.34,2.53,6,3.76,14.17,8.91,32.51-.16,9.68-4.78,11.7-14.58,11.69-22a.5.5,0,0,1,.5-.5h0a.5.5,0,0,1,.5.5c0,11-4.22,18.89-12.25,22.85C282.85,499.85,276.84,501.18,272,501.18Z"/><path class="cls-2" d="M253.77,577.88a.47.47,0,0,1-.25-.07.49.49,0,0,1-.17-.69c1.94-3.24,2.52-8,1.72-14.17-1.47-11.37-.18-18.07,3.82-19.94,3.39-1.58,7.62,1.07,9.49,3.11a28.28,28.28,0,0,1,3.25,5.22c2.35,4.33,5.27,9.72,9.28,10.83a6.65,6.65,0,0,0,5.34-1c3.13-1.84,2.63-6.76,2.09-12-.6-5.79-1.28-12.35,2.91-16.25,3.85-3.58,11.23-4.34,22.56-2.34,12.66,2.24,21.14-1.59,25.19-11.39a.5.5,0,0,1,.93.39c-4.26,10.29-13.11,14.32-26.29,12-11-1.95-18.11-1.27-21.71,2.08-3.82,3.56-3.2,9.58-2.6,15.41.57,5.53,1.11,10.75-2.57,12.92a7.7,7.7,0,0,1-6.12,1.08c-4.42-1.23-7.45-6.83-9.89-11.32a28.55,28.55,0,0,0-3.11-5c-1.68-1.83-5.43-4.22-8.33-2.87-2.44,1.14-5,5.34-3.25,18.9.83,6.39.2,11.37-1.86,14.82A.51.51,0,0,1,253.77,577.88Z"/><path class="cls-2" d="M227,467.94c-4.9,0-10.59-1.27-17.07-4.63a.5.5,0,1,1,.46-.88c26.17,13.53,38.87-7.73,39-7.95a.5.5,0,0,1,.86.5C250.11,455.15,242.47,467.94,227,467.94Z"/><path class="cls-2" d="M269.21,490a13.22,13.22,0,0,1-2.79-.29c-3.59-.75-6.2-2.88-7.14-5.85-1-3.14.17-7.24,1.19-10.86.94-3.31,1.83-6.43.57-7.42-2.26-1.76-11.46,2.07-29,12.07a56.08,56.08,0,0,1-17.68,6.89.51.51,0,0,1-.58-.41.5.5,0,0,1,.41-.58,54.75,54.75,0,0,0,17.36-6.77c23.06-13.17,28.08-13.55,30.08-12,1.79,1.4.86,4.68-.22,8.47-1,3.48-2.12,7.43-1.21,10.29.83,2.61,3.16,4.5,6.4,5.18a12.51,12.51,0,0,0,11.67-3.68c2.2-2.5,4.23-7.19,1.41-15.29-3-8.52-7.37-11.26-10.89-13.47-2.57-1.61-4.61-2.88-5-5.84a.51.51,0,0,1,.43-.56.49.49,0,0,1,.56.43c.34,2.49,2.11,3.59,4.55,5.12,3.47,2.17,8.21,5.14,11.3,14,3,8.56.78,13.58-1.6,16.28A13.15,13.15,0,0,1,269.21,490Z"/><path class="cls-2" d="M307.42,507.38a29.18,29.18,0,0,1-8.78-1.28c-3.19-1-5-2.47-5.08-4-.07-1.27,1-2.4,3.09-3.35,7.35-3.31,11.44-10.11,13.57-15.22a.5.5,0,0,1,.66-.27.51.51,0,0,1,.27.65c-2.21,5.29-6.44,12.31-14.09,15.75-1.66.75-2.55,1.59-2.5,2.39.06,1.07,1.74,2.28,4.39,3.14,6.76,2.2,18.9,2.06,24.74-5.13a.52.52,0,0,1,.71-.07.5.5,0,0,1,.07.7C320.44,505.6,313.62,507.38,307.42,507.38Z"/><path class="cls-2" d="M231.14,456c-7.47,0-12.86-3.53-17.59-7.51a.5.5,0,0,1,.64-.77c5.73,4.83,12.47,9,22.85,6.57,5.19-1.2,9.44-5.49,12.28-12.4a.5.5,0,1,1,.92.38c-3,7.22-7.45,11.72-13,13A27.44,27.44,0,0,1,231.14,456Z"/><path class="cls-2" d="M230.55,448.27h-.3c-7.45-.27-16.12-10.23-21.42-20a.5.5,0,1,1,.88-.48c5.16,9.5,13.52,19.21,20.57,19.46,2.68.1,5-1.29,6.8-4.11,6.19-9.7,4.47-16.83,2.95-23.11-1.35-5.58-2.63-10.85,1.82-16.79a.51.51,0,0,1,.7-.1.5.5,0,0,1,.1.7c-4.17,5.56-3,10.38-1.65,15.95,1.57,6.48,3.34,13.83-3.08,23.89C236,446.74,233.51,448.27,230.55,448.27Z"/><path class="cls-2" d="M226.53,429.78c-2.32,0-4.29-4.76-6.79-10.78-1.84-4.46-3.94-9.52-6.3-12.65a.5.5,0,0,1,.8-.61c2.44,3.24,4.56,8.36,6.43,12.87,2.07,5,4.21,10.17,5.86,10.17h0c.45,0,1.18-.47,2.07-2.69,3.3-8.18-3.61-18.08-10-24.93a.5.5,0,0,1,0-.71.48.48,0,0,1,.7,0c6.57,7.07,13.67,17.31,10.18,26-.91,2.25-1.86,3.3-3,3.31Z"/><path class="cls-1" d="M215.92,403.51s13.07,9,1.47,25.77L210.12,442,240,455.84l7.77-3.77-4.69,3.77,15.66,4.33s-8.1,8.25-17.13,5.36l-38.84-6.86C193,457,187.23,448.92,192,441.42Z"/><path class="cls-2" d="M245.6,466.65a13.66,13.66,0,0,1-4.15-.64l-38.77-6.85c-5.66-.94-10.16-4-12-8.16a10.18,10.18,0,0,1,.89-9.85l23.95-37.91a.5.5,0,0,1,.32-.22.47.47,0,0,1,.38.08,16.49,16.49,0,0,1,6.23,10.07c.93,5.1-.63,10.61-4.63,16.39l-7,12.24L240,455.29l7.55-3.67a.5.5,0,0,1,.64.19.49.49,0,0,1-.11.65l-3.93,3.16,14.72,4.07a.5.5,0,0,1,.23.83C258.81,460.82,253,466.65,245.6,466.65Zm-29.55-62.41-23.66,37.45a9.23,9.23,0,0,0-.82,8.9c1.73,3.86,6,6.69,11.28,7.58L241.69,465c7.29,2.32,14-2.82,16.05-4.62L243,456.33a.5.5,0,0,1-.36-.38.48.48,0,0,1,.18-.49l1.24-1-3.79,1.83a.5.5,0,0,1-.43,0l-29.88-13.82a.53.53,0,0,1-.27-.3.55.55,0,0,1,0-.4L217,429C227.1,414.38,218.19,406,216.05,404.24Z"/><line class="cls-1" x1="205.64" y1="440.38" x2="210.12" y2="442.03"/><path class="cls-2" d="M210.12,442.53a.47.47,0,0,1-.17,0l-4.48-1.65a.49.49,0,0,1-.3-.64.5.5,0,0,1,.64-.3l4.48,1.65a.5.5,0,0,1,.3.64A.52.52,0,0,1,210.12,442.53Z"/><polygon class="cls-2" points="353.28 562.71 352.5 572.45 380.04 591.19 353.28 562.71"/><path class="cls-2" d="M380,591.69a.51.51,0,0,1-.28-.09l-27.54-18.73a.5.5,0,0,1-.22-.46l.78-9.74a.52.52,0,0,1,.34-.44.5.5,0,0,1,.52.13l26.77,28.49a.49.49,0,0,1,0,.66A.46.46,0,0,1,380,591.69ZM353,572.2l23.55,16-22.88-24.35Z"/><polygon class="cls-2" points="264.04 599.09 259.76 605.3 275.82 623.48 264.04 599.09"/><path class="cls-2" d="M275.82,624a.52.52,0,0,1-.38-.17l-16.06-18.18a.51.51,0,0,1,0-.62l4.29-6.2a.51.51,0,0,1,.45-.22.49.49,0,0,1,.41.28l11.78,24.4a.5.5,0,0,1-.18.63A.45.45,0,0,1,275.82,624Zm-15.43-18.72,13.4,15.17L264,600.08Z"/><polygon class="cls-1" points="1003.58 876.04 1006.46 946.52 1010.84 946.52 1018.89 875.32 1003.58 876.04"/><path class="cls-2" d="M1010.84,947h-4.38a.5.5,0,0,1-.5-.48l-2.88-70.48a.49.49,0,0,1,.47-.52l15.31-.72a.5.5,0,0,1,.52.56l-8,71.2A.5.5,0,0,1,1010.84,947Zm-3.9-1h3.46l7.92-70.17-14.23.66Z"/><polygon class="cls-2" points="989.38 951.3 1011.23 951.3 1011.05 946.52 1006.67 946.52 989.38 951.3"/><path class="cls-2" d="M1011.23,951.8H989.38a.5.5,0,0,1-.49-.43.49.49,0,0,1,.36-.55l17.29-4.78a.3.3,0,0,1,.13,0h4.38a.5.5,0,0,1,.5.48l.18,4.78a.5.5,0,0,1-.14.37A.51.51,0,0,1,1011.23,951.8Zm-18.16-1h17.64l-.14-3.78h-3.83Z"/><path class="cls-1" d="M934.18,701.7s-13.65,18.38,7.51,18.38L951,743.25c5.88,9,17.4,9.84,30,2.06l16.68-9.48a31.26,31.26,0,0,0,18.52-28.54v-8.21l-48.51,28.84L946.3,697.76,943.21,706Z"/><path class="cls-2" d="M964.77,751.14a16.32,16.32,0,0,1-14.24-7.62l-9.18-22.94c-6-.06-9.75-1.61-11.27-4.62-2.84-5.65,3.43-14.19,3.7-14.56a.51.51,0,0,1,.62-.15l8.53,4.11,2.9-7.77a.51.51,0,0,1,.88-.12l21.1,29.79,48.12-28.61a.5.5,0,0,1,.5,0,.48.48,0,0,1,.25.43v8.21a31.75,31.75,0,0,1-18.82,29l-16.63,9.46C975.37,749.35,969.74,751.14,964.77,751.14Zm-30.42-48.8c-1.11,1.61-5.64,8.66-3.37,13.17,1.36,2.7,5,4.07,10.71,4.07a.5.5,0,0,1,.46.32l9.26,23.16c5.7,8.7,17,9.43,29.31,1.82l16.69-9.49a30.79,30.79,0,0,0,18.27-28.1V700l-47.75,28.39a.52.52,0,0,1-.67-.14l-20.82-29.39-2.76,7.4a.49.49,0,0,1-.29.29.47.47,0,0,1-.4,0Z"/><polygon class="cls-1" points="1058.32 946.52 1059.61 875.32 1044.3 876.04 1053.94 946.52 1058.32 946.52"/><path class="cls-2" d="M1058.32,947h-4.38a.51.51,0,0,1-.5-.43l-9.63-70.48a.5.5,0,0,1,.47-.57l15.31-.72a.5.5,0,0,1,.37.14.48.48,0,0,1,.15.37l-1.29,71.2A.51.51,0,0,1,1058.32,947Zm-4-1h3.46l1.27-70.17-14.23.66Z"/><path class="cls-1" d="M1045.41,723.45l9.16,80.46v0c-7.49,6.81-.54,17,8.91,13a16.46,16.46,0,0,0,5.55-4.08c12.66-13.75-5.7-79.56-5.7-79.56Z"/><path class="cls-2" d="M1059.22,818.32a8.33,8.33,0,0,1-7.09-3.73c-1.69-2.62-2.18-7,1.92-10.87l-9.14-80.21a.48.48,0,0,1,.22-.47.54.54,0,0,1,.52,0l17.91,9.79a.48.48,0,0,1,.24.3c0,.17,4.63,16.69,7.61,34.68,4,24.27,3.34,39.53-2,45.36a17.08,17.08,0,0,1-5.71,4.2A11.26,11.26,0,0,1,1059.22,818.32Zm-13.21-94,9.06,79.51a.48.48,0,0,1-.16.42c-3.83,3.5-3.44,7.44-1.94,9.77,1.71,2.65,5.56,4.41,10.31,2.37a16.18,16.18,0,0,0,5.37-4c12-13-4.65-74.84-5.76-78.89Z"/><polygon class="cls-2" points="1000.11 919.86 1017.56 919.86 1030.18 775.96 1039.33 859.06 1045.45 919.86 1060.93 919.86 1059.26 861.76 1059.26 757.54 1001.32 757.54 1000.11 919.86"/><path class="cls-2" d="M1060.93,920.36h-15.48a.51.51,0,0,1-.5-.45l-6.11-60.8-8.6-78.07L1018.06,919.9a.51.51,0,0,1-.5.46h-17.45a.51.51,0,0,1-.35-.15.48.48,0,0,1-.15-.36l1.21-162.31a.5.5,0,0,1,.5-.5h57.93a.5.5,0,0,1,.5.5V861.76l1.68,58.08a.5.5,0,0,1-.5.52Zm-15-1h14.51l-1.66-57.59V758h-56.94l-1.19,161.32h16.48l12.58-143.45a.51.51,0,0,1,.5-.45.51.51,0,0,1,.5.44l9.15,83.11Z"/><path class="cls-3" d="M1076.84,795.75l-3-22.94a213.94,213.94,0,0,0-15.14-55.47l-.94-2.22a30,30,0,0,0-1.66-3.91l-.28-.65,0,0a29,29,0,0,0-39.54-11.47l0,0-36.09,21.15-12.42,7.69-12.3-17.36L941.9,730.85s2.07,41.44,57.42,8.81c.66-.37,1.32-.77,2-1.19h0v19.07a65.13,65.13,0,0,0,44.38,3.7l12.37-3.37,1.37,43.3Z"/><path class="cls-2" d="M1059.44,801.67a.46.46,0,0,1-.29-.1.47.47,0,0,1-.21-.39l-1.35-42.66-11.76,3.2a65.8,65.8,0,0,1-44.72-3.72.5.5,0,0,1-.29-.46V739.36l-1.25.73c-20.7,12.2-36.44,15.57-46.77,10-10.61-5.72-11.4-19.09-11.4-19.23a.47.47,0,0,1,.08-.3L955,710.29a.51.51,0,0,1,.41-.23.53.53,0,0,1,.41.22l12,17,12-7.45,36.1-21.15a.42.42,0,0,1,.21-.06,29.49,29.49,0,0,1,39.94,11.59.42.42,0,0,1,.16.19l.28.65a28.76,28.76,0,0,1,1.67,3.94l.93,2.18a214.66,214.66,0,0,1,15.18,55.6l3,22.94a.51.51,0,0,1-.35.55l-17.4,5.42Zm-1.37-44.3a.47.47,0,0,1,.3.1.48.48,0,0,1,.2.38l1.35,42.64,16.37-5.09-3-22.53a213.46,213.46,0,0,0-15.11-55.34l-1-2.22a27.56,27.56,0,0,0-1.64-3.87l-.2-.48a.43.43,0,0,1-.11-.12,28.62,28.62,0,0,0-4.88-6.53,28.52,28.52,0,0,0-34-4.75.33.33,0,0,1-.19.06l-35.9,21-12.41,7.69a.52.52,0,0,1-.68-.14l-11.87-16.76-13,19.53c.12,1.5,1.37,13.13,10.87,18.24,10,5.38,25.41,2,45.79-10,.65-.38,1.31-.77,2-1.18a.49.49,0,0,1,.51,0,.51.51,0,0,1,.26.44v18.75a64.73,64.73,0,0,0,43.75,3.53l12.37-3.37Z"/><polygon class="cls-2" points="1036.86 951.3 1058.7 951.3 1058.53 946.52 1054.15 946.52 1036.86 951.3"/><path class="cls-2" d="M1058.7,951.8h-21.84a.51.51,0,0,1-.5-.43.5.5,0,0,1,.36-.55L1054,946a.34.34,0,0,1,.14,0h4.38a.5.5,0,0,1,.5.48l.17,4.78a.47.47,0,0,1-.14.37A.51.51,0,0,1,1058.7,951.8Zm-18.16-1h17.65L1058,947h-3.83Z"/><path class="cls-1" d="M1032.93,702.7l2.68-4.84-10-16.14h-8.93l6.14,17.36.15,1.56A5.31,5.31,0,0,0,1032.93,702.7Z"/><path class="cls-2" d="M1028.34,706a5.81,5.81,0,0,1-1.24-.13,5.71,5.71,0,0,1-4.61-5.13l-.14-1.5-6.12-17.3a.5.5,0,0,1,.06-.46.52.52,0,0,1,.41-.21h8.93a.5.5,0,0,1,.43.24l10,16.13a.52.52,0,0,1,0,.51l-2.68,4.85h0A5.71,5.71,0,0,1,1028.34,706Zm-10.93-23.73,5.9,16.7,0,.12.15,1.56a4.81,4.81,0,0,0,9,1.86l2.54-4.59-9.68-15.65Zm15.52,20.48h0Z"/><circle class="cls-1" cx="1022.84" cy="679.74" r="12.77"/><path class="cls-2" d="M1022.84,693a13.28,13.28,0,1,1,13.27-13.27A13.29,13.29,0,0,1,1022.84,693Zm0-25.55a12.28,12.28,0,1,0,12.27,12.28A12.3,12.3,0,0,0,1022.84,667.46Z"/><path class="cls-1" d="M1030.52,779.54a.49.49,0,0,1-.35-.15l-8.55-8.4a.5.5,0,0,1,0-.71.5.5,0,0,1,.71,0l8.55,8.4a.5.5,0,0,1-.35.86Z"/><path class="cls-2" d="M1022.84,629.69a32.47,32.47,0,0,0-1.59,64.9l-.82-2.29a12.8,12.8,0,0,1-10.37-12.56,12.67,12.67,0,0,1,1.19-5.36c9.42,5.15,19.27,0,19.27,0l1.09,11.21s.42-5.25,4-5.85h0a12.73,12.73,0,0,1-5,10.1l2,3.28a32.48,32.48,0,0,0-9.84-63.43Z"/><path class="cls-2" d="M1021.25,695.09h0a32.91,32.91,0,1,1,11.6-1.49.49.49,0,0,1-.57-.22l-2-3.27a.49.49,0,0,1,.12-.66,12.17,12.17,0,0,0,4.74-9.05c-2.6,1-3,5.19-3,5.23a.5.5,0,0,1-.5.46h0a.5.5,0,0,1-.5-.45l-1-10.51c-2.35,1-10.61,4-18.6,0a12.07,12.07,0,0,0-.93,4.66,12.29,12.29,0,0,0,10,12.06.5.5,0,0,1,.37.33l.82,2.3a.5.5,0,0,1-.47.66Zm1.58-64.9a32,32,0,0,0-2.3,63.86l-.47-1.32a13.27,13.27,0,0,1-9.27-18.56.51.51,0,0,1,.3-.26.51.51,0,0,1,.4,0c9.08,5,18.7,0,18.8,0a.49.49,0,0,1,.47,0,.51.51,0,0,1,.26.39l.8,8.31a5,5,0,0,1,3.71-3.39.45.45,0,0,1,.4.11.46.46,0,0,1,.18.38,13.17,13.17,0,0,1-4.8,10.22l1.59,2.56a32,32,0,0,0-10.07-62.33Z"/><path class="cls-2" d="M1001.32,739a.5.5,0,0,1-.48-.37L998,728.44a.5.5,0,0,1,.35-.62.51.51,0,0,1,.62.34l2.16,7.69,1.92-17.77a.51.51,0,0,1,.56-.45.51.51,0,0,1,.44.56l-2.2,20.33a.51.51,0,0,1-.46.45Z"/><path class="cls-2" d="M1058.07,758.37a.49.49,0,0,1-.49-.47l-2.77-38.4a.5.5,0,0,1,.46-.54.51.51,0,0,1,.54.47l2.76,38.4a.5.5,0,0,1-.46.54Z"/><path class="cls-2" d="M1024.75,763.46h0a.5.5,0,0,1-.47-.53l3.58-54.51a.49.49,0,0,1,.24-.39l4-2.41a.5.5,0,0,1,.62.08l3.79,4,3.7-8.49-3.07-4.52a.5.5,0,0,1,.13-.7.51.51,0,0,1,.69.13l3.23,4.76a.49.49,0,0,1,0,.48l-4.11,9.43a.52.52,0,0,1-.38.29.49.49,0,0,1-.44-.15l-4-4.23-3.43,2.07L1025.25,763A.5.5,0,0,1,1024.75,763.46Z"/><path class="cls-2" d="M1026.07,713.5a.51.51,0,0,1-.46-.3l-3-7-8,4.82a.5.5,0,0,1-.69-.67l7.61-13.87a.51.51,0,0,1,.68-.2.49.49,0,0,1,.19.68l-6.72,12.25,6.9-4.16a.5.5,0,0,1,.72.23l3.23,7.56a.49.49,0,0,1-.26.65A.45.45,0,0,1,1026.07,713.5Z"/><path class="cls-2" d="M1043.76,737.17a4.55,4.55,0,0,1-3.46-1.5c-2.82-3.06-2.31-9.79-2.28-10.08a.48.48,0,0,1,.54-.45.49.49,0,0,1,.45.53c0,.07-.5,6.58,2,9.32a3.52,3.52,0,0,0,2.72,1.18,4.8,4.8,0,0,0,3.62-1.4c1.87-1.93,1.77-5.22,1.77-5.25a.5.5,0,0,1,.48-.52.48.48,0,0,1,.52.48c0,.15.11,3.75-2.05,6A5.81,5.81,0,0,1,1043.76,737.17Z"/><path class="cls-2" d="M940.43,740.44a.5.5,0,0,1-.35-.85l5.55-5.56a.5.5,0,0,1,.71.71l-5.56,5.56A.5.5,0,0,1,940.43,740.44Z"/><line class="cls-1" x1="1069.73" y1="787.33" x2="1079.98" y2="784.92"/><path class="cls-2" d="M1069.73,787.83a.5.5,0,0,1-.11-1l10.25-2.41a.5.5,0,0,1,.6.37.5.5,0,0,1-.37.6l-10.25,2.42Z"/><rect class="cls-1" x="615.59" y="590.88" width="352.6" height="211.56"/><path class="cls-2" d="M968.69,802.93H615.09V590.38h353.6Zm-352.6-1h351.6V591.38H616.09Z"/><polygon class="cls-1" points="615.59 802.43 791.89 590.88 968.19 802.43 615.59 802.43"/><path class="cls-2" d="M969.26,802.93H614.53L791.89,590.09l.39.47Zm-352.6-1H967.12L791.89,591.66Z"/><polygon class="cls-1" points="615.59 590.88 791.89 696.65 968.19 590.88 615.59 590.88"/><path class="cls-2" d="M791.89,697.24l-.25-.16L613.79,590.38H970ZM617.4,591.38,791.89,696.07,966.38,591.38Z"/><rect class="cls-1" x="275.82" y="304.69" width="125.57" height="75.34"/><path class="cls-2" d="M401.89,380.53H275.32V304.19H401.89Zm-125.57-1H400.89V305.19H276.32Z"/><polygon class="cls-1" points="275.82 380.03 338.6 304.69 401.39 380.03 275.82 380.03"/><path class="cls-2" d="M402.46,380.53H274.75l63.85-76.62Zm-125.57-1H400.32L338.6,305.47Z"/><polygon class="cls-1" points="275.82 304.69 338.6 342.36 401.39 304.69 275.82 304.69"/><path class="cls-2" d="M338.6,342.94,274,304.19H403.2Zm-61-37.75,61,36.59,61-36.59Z"/><path d="M939.25,394A69.16,69.16,0,0,0,898,518.73h0v37l25.23-25.23a69.17,69.17,0,1,0,16-136.46Z"/><path class="cls-1" d="M900.06,470.71l1.44-6.92h18l3.88-18.1h7l-3.87,18.1h18l-1.44,6.92h-18l-3.84,18.06h-7L918,470.71Z"/><path class="cls-1" d="M953,453.89l1.19-5.68q8.2-.79,11.77-2.62t6.62-8.68h5.85L966,495.69H958l8.86-41.8Z"/><path class="cls-2" d="M425,360.5a.42.42,0,0,1-.22-.05c-2.32-1.15-3.57-1.82-3.57-1.82A.5.5,0,0,1,421,358a.51.51,0,0,1,.68-.2s1.24.66,3.54,1.81a.5.5,0,0,1,.23.67A.51.51,0,0,1,425,360.5Z"/><path class="cls-2" d="M834.47,404.52a.45.45,0,0,1-.16,0,.51.51,0,0,1-.31-.64,29.4,29.4,0,0,0,1.66-7.68.5.5,0,1,1,1,.07,30.44,30.44,0,0,1-1.7,7.94A.51.51,0,0,1,834.47,404.52Zm-291.4-12.37c-1,0-2,0-3,0a.5.5,0,0,1,0-1h0l3,0c1.68,0,3.36,0,5-.08h0a.5.5,0,0,1,0,1C546.49,392.12,544.75,392.13,543.07,392.15Zm-11-.37h0c-2.62-.17-5.32-.41-8-.7a.49.49,0,0,1-.44-.55.5.5,0,0,1,.55-.44c2.68.29,5.36.52,8,.69a.5.5,0,0,1,0,1Zm24-.2a.5.5,0,0,1-.5-.46.49.49,0,0,1,.45-.54c2.69-.24,5.36-.57,7.93-1a.51.51,0,0,1,.57.42.51.51,0,0,1-.42.57c-2.59.4-5.28.73-8,1Zm-40-1.51h-.07c-2.6-.39-5.27-.83-7.93-1.31a.5.5,0,0,1-.4-.58.48.48,0,0,1,.58-.4c2.65.48,5.3.92,7.89,1.3a.5.5,0,0,1,.43.56A.51.51,0,0,1,516.18,390.07Zm55.8-1a.5.5,0,0,1-.49-.39.51.51,0,0,1,.38-.6c2.62-.6,5.21-1.3,7.69-2.07a.5.5,0,0,1,.63.33.49.49,0,0,1-.33.62c-2.51.79-5.12,1.49-7.77,2.1Zm263.57-.33a.51.51,0,0,1-.49-.39,30.18,30.18,0,0,0-2.7-7.23.51.51,0,0,1,.22-.68.5.5,0,0,1,.67.22,31.17,31.17,0,0,1,2.79,7.47.5.5,0,0,1-.38.6ZM500.41,387.2h-.11c-2.56-.56-5.19-1.17-7.82-1.81a.5.5,0,0,1,.24-1c2.62.65,5.24,1.26,7.79,1.81a.5.5,0,0,1-.1,1Zm86.84-2.89a.51.51,0,0,1-.46-.31.5.5,0,0,1,.27-.65c2.48-1,4.91-2.13,7.23-3.34a.49.49,0,0,1,.67.21.5.5,0,0,1-.21.68c-2.35,1.22-4.81,2.35-7.31,3.37A.41.41,0,0,1,587.25,384.31Zm-102.41-.95-.13,0c-2.55-.71-5.15-1.46-7.71-2.24a.5.5,0,0,1-.34-.62.5.5,0,0,1,.63-.34c2.55.78,5.14,1.53,7.68,2.24a.49.49,0,0,1,.35.61A.5.5,0,0,1,484.84,383.36Zm-15.34-4.67-.16,0c-2.51-.84-5.07-1.72-7.59-2.62a.49.49,0,0,1-.3-.64.5.5,0,0,1,.64-.3c2.51.9,5.06,1.78,7.57,2.61a.5.5,0,0,1-.16,1Zm132-1.76a.48.48,0,0,1-.42-.23.49.49,0,0,1,.15-.69c2.22-1.44,4.39-3,6.46-4.65a.5.5,0,0,1,.62.79c-2.09,1.66-4.29,3.24-6.54,4.7A.56.56,0,0,1,601.45,376.93Zm227-2.14a.52.52,0,0,1-.4-.18,57.78,57.78,0,0,0-5.34-5.83.5.5,0,0,1,.7-.72,60.93,60.93,0,0,1,5.43,5.92.49.49,0,0,1-.39.81ZM454.4,373.3a.57.57,0,0,1-.18,0c-2.51-1-5-1.95-7.47-3a.49.49,0,0,1-.27-.65.5.5,0,0,1,.65-.27c2.44,1,4.95,2,7.45,2.94a.51.51,0,0,1,.28.65A.48.48,0,0,1,454.4,373.3Zm-14.85-6.06a.45.45,0,0,1-.2,0c-2.49-1.08-5-2.19-7.34-3.29a.5.5,0,0,1-.24-.66.49.49,0,0,1,.66-.24c2.37,1.09,4.83,2.19,7.32,3.27a.5.5,0,0,1,.25.66A.49.49,0,0,1,439.55,367.24ZM614,367a.5.5,0,0,1-.35-.86c1.89-1.83,3.71-3.78,5.44-5.81a.49.49,0,0,1,.7-.06.51.51,0,0,1,.06.71c-1.74,2.05-3.6,4-5.5,5.88A.47.47,0,0,1,614,367ZM817,363.69a.51.51,0,0,1-.31-.11c-2-1.57-4.15-3.15-6.45-4.7a.52.52,0,0,1-.13-.7.5.5,0,0,1,.7-.13c2.31,1.57,4.49,3.16,6.5,4.74a.51.51,0,0,1-.31.9Zm-13.23-9a.48.48,0,0,1-.26-.07c-2.19-1.32-4.53-2.65-6.95-4a.5.5,0,1,1,.48-.88c2.43,1.32,4.78,2.67,7,4a.51.51,0,0,1,.18.69A.52.52,0,0,1,803.81,354.65Zm-179-.16-.46-.21-.36-.36c1.54-2.17,3-4.4,4.31-6.61a.5.5,0,0,1,.86.52C627.8,350.06,626.34,352.3,624.79,354.49Zm-.46-.21h0ZM789.72,347a.46.46,0,0,1-.22-.06c-2.29-1.15-4.72-2.32-7.21-3.48a.51.51,0,0,1-.25-.66.52.52,0,0,1,.67-.25c2.5,1.17,4.94,2.35,7.24,3.5a.5.5,0,0,1-.23.95ZM632.55,341a.59.59,0,0,1-.22-.05.49.49,0,0,1-.22-.67c1.18-2.4,2.27-4.85,3.22-7.29a.49.49,0,0,1,.64-.28.5.5,0,0,1,.29.64c-1,2.47-2.06,4.95-3.26,7.37A.48.48,0,0,1,632.55,341Zm142.63-.88a.51.51,0,0,1-.2,0c-2.36-1-4.84-2.09-7.37-3.14a.5.5,0,0,1,.38-.92c2.54,1.05,5,2.11,7.39,3.15a.5.5,0,0,1-.2,1ZM760.36,334a.63.63,0,0,1-.19,0q-3.69-1.46-7.47-2.9a.5.5,0,0,1,.35-.93c2.53,1,5,1.92,7.49,2.9a.5.5,0,0,1,.28.65A.49.49,0,0,1,760.36,334Zm-15-5.7a.47.47,0,0,1-.17,0q-3.73-1.36-7.55-2.71a.5.5,0,0,1,.33-.94q3.82,1.35,7.56,2.71a.52.52,0,0,1,.3.65A.5.5,0,0,1,745.35,328.3Zm-107-2.18-.14,0a.5.5,0,0,1-.34-.62c.72-2.56,1.33-5.17,1.8-7.75a.49.49,0,0,1,.58-.4.49.49,0,0,1,.4.58c-.47,2.61-1.08,5.26-1.82,7.85A.49.49,0,0,1,638.35,326.12Zm91.87-3.18a.5.5,0,0,1-.17,0c-2.51-.87-5-1.73-7.59-2.58a.51.51,0,0,1-.32-.64.5.5,0,0,1,.64-.31q3.83,1.28,7.6,2.58a.51.51,0,0,1,.31.64A.5.5,0,0,1,730.22,322.94ZM715,317.83l-.16,0c-2.53-.84-5.08-1.66-7.63-2.49a.5.5,0,0,1-.32-.63.51.51,0,0,1,.63-.32c2.55.83,5.1,1.65,7.64,2.49a.49.49,0,0,1,.31.63A.48.48,0,0,1,715,317.83Zm-15.28-4.93-.15,0-7.65-2.42a.5.5,0,0,1,.3-1l7.65,2.42a.51.51,0,0,1,.33.63A.51.51,0,0,1,699.72,312.9Zm-58.55-2.53h0a.5.5,0,0,1-.46-.54c.15-1.9.22-3.83.22-5.73q0-1.12,0-2.22a.5.5,0,0,1,.48-.52.54.54,0,0,1,.52.49c0,.75,0,1.49,0,2.25,0,1.93-.08,3.88-.22,5.81A.5.5,0,0,1,641.17,310.37Zm43.22-2.29-.15,0-7.67-2.38a.5.5,0,0,1-.32-.63.5.5,0,0,1,.62-.33l7.67,2.38a.5.5,0,0,1-.15,1Zm-15.31-4.75-.15,0-7.67-2.37a.51.51,0,0,1-.33-.63.5.5,0,0,1,.62-.33l7.67,2.37a.5.5,0,0,1,.33.63A.49.49,0,0,1,669.08,303.33Zm-15.34-4.75a.39.39,0,0,1-.15,0c-2.57-.8-5.13-1.59-7.66-2.39a.5.5,0,0,1,.29-.95l7.67,2.39a.5.5,0,0,1-.15,1Zm-13-4.2a.51.51,0,0,1-.5-.43,75.15,75.15,0,0,0-1.45-7.82.51.51,0,0,1,.37-.61.5.5,0,0,1,.6.37,80.12,80.12,0,0,1,1.48,7.93.51.51,0,0,1-.43.56Zm-2.29-.6a.39.39,0,0,1-.15,0c-2.58-.81-5.13-1.63-7.65-2.44a.5.5,0,1,1,.3-.95l7.65,2.44a.49.49,0,0,1,.32.63A.48.48,0,0,1,638.42,293.78Zm-15.29-4.92-.15,0c-2.58-.85-5.12-1.69-7.63-2.54a.5.5,0,1,1,.32-.94l7.62,2.53a.5.5,0,0,1-.16,1Zm-15.21-5.13a.51.51,0,0,1-.17,0c-2.57-.89-5.1-1.79-7.57-2.68a.5.5,0,0,1,.34-.94c2.47.89,5,1.79,7.56,2.68a.5.5,0,0,1-.16,1ZM637,278.82a.49.49,0,0,1-.47-.34c-.86-2.48-1.85-5-2.95-7.4a.5.5,0,1,1,.91-.41c1.12,2.45,2.12,5,3,7.49a.49.49,0,0,1-.31.63A.41.41,0,0,1,637,278.82Zm-44.19-.56-.18,0c-2.6-1-5.12-2-7.49-2.93a.5.5,0,1,1,.37-.92c2.37.95,4.88,1.93,7.47,2.91a.5.5,0,0,1,.29.65A.48.48,0,0,1,592.82,278.26Zm-14.9-6a.48.48,0,0,1-.2,0c-2.57-1.11-5-2.23-7.34-3.32a.5.5,0,0,1,.43-.9c2.29,1.08,4.75,2.2,7.31,3.3a.51.51,0,0,1,.26.66A.5.5,0,0,1,577.92,272.25Zm-14.5-6.92a.46.46,0,0,1-.23-.06c-2.53-1.35-4.88-2.71-7-4a.51.51,0,0,1-.16-.69.5.5,0,0,1,.69-.15c2.08,1.31,4.41,2.66,6.92,4a.5.5,0,0,1,.2.68A.49.49,0,0,1,563.42,265.33Zm67-1.1A.5.5,0,0,1,630,264c-1.3-2.29-2.72-4.57-4.22-6.76a.5.5,0,0,1,.82-.56c1.52,2.21,3,4.51,4.27,6.83a.5.5,0,0,1-.19.68A.5.5,0,0,1,630.42,264.23Zm-80.48-7.56a.5.5,0,0,1-.32-.11,37.69,37.69,0,0,1-5.75-5.65.49.49,0,0,1,.07-.7.51.51,0,0,1,.71.07,36.67,36.67,0,0,0,5.6,5.51.49.49,0,0,1,.08.7A.51.51,0,0,1,549.94,256.67ZM621.36,251a.5.5,0,0,1-.39-.18c-1.67-2-3.46-4.06-5.3-6a.5.5,0,0,1,0-.71.51.51,0,0,1,.71,0c1.86,1.93,3.66,3.95,5.36,6a.5.5,0,0,1-.39.82Zm-80.71-6.81a.5.5,0,0,1-.48-.38,13.24,13.24,0,0,1-.39-3.18,13.72,13.72,0,0,1,.93-4.9.5.5,0,0,1,.64-.29.49.49,0,0,1,.29.64,13,13,0,0,0-.86,4.55,12.32,12.32,0,0,0,.36,2.94.49.49,0,0,1-.37.6Zm69.57-4.7a.52.52,0,0,1-.33-.12c-2-1.76-4.1-3.44-6.22-5a.51.51,0,0,1-.11-.7.5.5,0,0,1,.7-.1c2.14,1.56,4.26,3.26,6.29,5a.51.51,0,0,1,.05.71A.52.52,0,0,1,610.22,239.52Zm-12.94-9.44A.47.47,0,0,1,597,230a77.11,77.11,0,0,0-7-3.74.5.5,0,0,1,.42-.9,77.67,77.67,0,0,1,7.12,3.78.5.5,0,0,1-.26.93Zm-51.78-.34a.53.53,0,0,1-.34-.13.5.5,0,0,1,0-.71,27,27,0,0,1,6.31-5.13.5.5,0,1,1,.5.86,26.62,26.62,0,0,0-6.08,4.94A.48.48,0,0,1,545.5,229.74Zm37.26-6.38-.15,0a54.67,54.67,0,0,0-7.7-2,.5.5,0,0,1,.17-1,55.25,55.25,0,0,1,7.84,2,.5.5,0,0,1-.16,1Zm-23.67-1.66a.5.5,0,0,1-.12-1,34.79,34.79,0,0,1,8-1,.52.52,0,0,1,.51.5.5.5,0,0,1-.5.5,34,34,0,0,0-7.82,1Z"/><path class="cls-2" d="M828.67,415.28a.53.53,0,0,1-.3-.09.51.51,0,0,1-.11-.7c.79-1.1,1.53-2.21,2.19-3.3a.51.51,0,0,1,.69-.17.51.51,0,0,1,.17.69c-.68,1.11-1.43,2.24-2.24,3.36A.49.49,0,0,1,828.67,415.28Z"/><polygon class="cls-1" points="771.43 463.54 820.41 431.9 820.41 453.95 771.43 463.54"/><path class="cls-2" d="M771.43,464a.5.5,0,0,1-.27-.92l49-31.64a.51.51,0,0,1,.52,0,.5.5,0,0,1,.26.44V454a.51.51,0,0,1-.41.49l-49,9.58Zm48.48-31.22-46,29.73,46-9Z"/><polygon class="cls-1" points="799.62 422.25 836.36 439.3 771.43 463.54 799.62 422.25"/><path class="cls-2" d="M771.43,464a.5.5,0,0,1-.41-.78L799.2,422a.52.52,0,0,1,.63-.17l36.74,17a.51.51,0,0,1,0,.93L771.61,464Zm28.36-41.15-27,39.63,62.32-23.27Z"/><polygon class="cls-1" points="820.41 431.9 771.43 463.54 836.36 439.3 820.41 431.9"/><path class="cls-2" d="M771.43,464a.5.5,0,0,1-.27-.92l49-31.64a.51.51,0,0,1,.49,0l16,7.4a.51.51,0,0,1,0,.93L771.61,464Zm49-31.57-44.88,29,59.49-22.21Z"/></svg>